SplineFontDB: 3.2
FontName: ChessCancun
FullName: ChessCancun
FamilyName: ChessCancun
Weight: Regular
Copyright: Donated to the public domain 2026 by Sam Trenholme
UComments: "2022-4-14: Created with FontForge (http://fontforge.org)"
Version: 001.000
ItalicAngle: 0
UnderlinePosition: 0
UnderlineWidth: 0
Ascent: 500
Descent: 500
InvalidEm: 0
LayerCount: 2
Layer: 0 0 "Back" 1
Layer: 1 0 "Fore" 0
XUID: [1021 900 -2068765213 18787]
FSType: 0
OS2Version: 0
OS2_WeightWidthSlopeOnly: 0
OS2_UseTypoMetrics: 1
CreationTime: 1650005861
ModificationTime: 1770616682
PfmFamily: 17
TTFWeight: 400
TTFWidth: 5
LineGap: 0
VLineGap: 0
Panose: 0 0 0 0 0 0 0 0 0 0
OS2TypoAscent: 500
OS2TypoAOffset: 0
OS2TypoDescent: -500
OS2TypoDOffset: 0
OS2TypoLinegap: 500
OS2WinAscent: 500
OS2WinAOffset: 0
OS2WinDescent: 500
OS2WinDOffset: 0
HheadAscent: 500
HheadAOffset: 0
HheadDescent: -500
HheadDOffset: 0
OS2SubXSize: 648
OS2SubYSize: 699
OS2SubXOff: 0
OS2SubYOff: 139
OS2SupXSize: 648
OS2SupYSize: 699
OS2SupXOff: 0
OS2SupYOff: 479
OS2StrikeYSize: 49
OS2StrikeYPos: 258
OS2CapHeight: 340
OS2XHeight: 256
OS2Vendor: 'PfEd'
MarkAttachClasses: 1
DEI: 91125
LangName: 1033
Encoding: ISO8859-1
UnicodeInterp: none
NameList: AGL For New Fonts
DisplaySize: -48
AntiAlias: 1
FitToEm: 0
WinInfo: 0 26 12
BeginPrivate: 0
EndPrivate
TeXData: 1 0 0 1048576 524288 349525 682885 1048576 349525 783286 444596 497025 792723 393216 433062 380633 303038 157286 324010 404750 52429 2506097 1059062 262144
BeginChars: 256 42

StartChar: space
Encoding: 32 32 0
Width: 1000
Flags: HW
LayerCount: 2
Fore
SplineSet
0 0 m 1024
EndSplineSet
EndChar

StartChar: exclam
Encoding: 33 33 1
Width: 1000
Flags: HW
LayerCount: 2
Fore
SplineSet
950 -450 m 1
 1000 -450 l 1
 1000 -500 l 1
 950 -500 l 1
 950 -450 l 1
EndSplineSet
EndChar

StartChar: quotedbl
Encoding: 34 34 2
Width: 1000
Flags: HW
LayerCount: 2
Fore
SplineSet
0 -450 m 1
 1000 -450 l 1
 1000 -500 l 1
 0 -500 l 5
 0 -450 l 1
EndSplineSet
EndChar

StartChar: numbersign
Encoding: 35 35 3
Width: 1000
Flags: HW
LayerCount: 2
Fore
SplineSet
0 -450 m 1
 50 -450 l 1
 50 -500 l 1
 0 -500 l 5
 0 -450 l 1
EndSplineSet
EndChar

StartChar: dollar
Encoding: 36 36 4
Width: 1000
Flags: HW
LayerCount: 2
Fore
SplineSet
950 500 m 5
 1000 500 l 5
 1000 -500 l 5
 950 -500 l 5
 950 500 l 5
0 0 m 1024
EndSplineSet
EndChar

StartChar: percent
Encoding: 37 37 5
Width: 1000
Flags: HW
LayerCount: 2
Fore
SplineSet
0 500 m 5
 50 500 l 5
 50 -500 l 5
 0 -500 l 5
 0 500 l 5
0 0 m 1024
EndSplineSet
EndChar

StartChar: parenleft
Encoding: 40 40 6
Width: 1000
Flags: HW
LayerCount: 2
Fore
SplineSet
0 450 m 1
 0 500 l 5
 1000 500 l 1
 1000 450 l 1
 0 450 l 1
EndSplineSet
EndChar

StartChar: parenright
Encoding: 41 41 7
Width: 1000
Flags: HW
LayerCount: 2
Fore
SplineSet
0 450 m 1
 0 500 l 5
 50 500 l 1
 50 450 l 1
 0 450 l 1
EndSplineSet
EndChar

StartChar: B
Encoding: 66 66 8
Width: 1000
Flags: HW
LayerCount: 2
Fore
SplineSet
3.4638671875 -498.25390625 m 0
 1.6220703125 -496.705078125 0.5927734375 -493.469726562 0.1630859375 -487.884765625 c 2
 -0.1513671875 -483.794921875 l 1
 68.0927734375 -415.549804688 l 2
 134.162109375 -349.479492188 136.317382812 -347.266601562 135.713867188 -346.137695312 c 0
 135.37109375 -345.49609375 127.198242188 -332.032226562 117.551757812 -316.217773438 c 2
 100.01171875 -287.46484375 l 1
 103.350585938 -284.072265625 l 2
 110.166015625 -277.147460938 113.66796875 -274.771484375 126.220703125 -268.552734375 c 0
 145.5234375 -258.990234375 161.182617188 -253.923828125 180.49609375 -250.994140625 c 0
 191.000976562 -249.400390625 197.721679688 -249.034179688 216.553710938 -249.028320312 c 2
 234.620117188 -249.0234375 l 1
 300.34375 -183.227539062 l 1
 366.06640625 -117.431640625 l 1
 374.27734375 -96.923828125 l 2
 378.79296875 -85.64453125 382.774414062 -75.724609375 383.124023438 -74.8798828125 c 2
 383.759765625 -73.34375 l 1
 372.177734375 -66.3994140625 l 2
 358.389648438 -58.1318359375 344.436523438 -48.91015625 337.50390625 -43.484375 c 0
 334.740234375 -41.3212890625 332.323242188 -39.5712890625 332.1328125 -39.5966796875 c 0
 331.943359375 -39.62109375 257.190429688 -114.383789062 166.015625 -205.734375 c 2
 0.244140625 -371.826171875 l 1
 0.11328125 -360.116210938 l 1
 -0.017578125 -348.407226562 l 1
 160.231445312 -188.157226562 l 2
 309.994140625 -38.39453125 320.435546875 -27.845703125 319.786132812 -26.9677734375 c 0
 319.404296875 -26.451171875 317.694335938 -24.1845703125 315.985351562 -21.931640625 c 0
 311.7734375 -16.3759765625 307.956054688 -9.82421875 302.49609375 1.220703125 c 0
 295.259765625 15.8603515625 291.73828125 26.849609375 289.541015625 41.646484375 c 0
 288.974609375 45.4619140625 288.360351562 49.14453125 288.17578125 49.8291015625 c 0
 287.868164062 50.9775390625 276.659179688 39.87109375 144.04296875 -92.9931640625 c 2
 0.244140625 -237.060546875 l 1
 0.11328125 -225.350585938 l 1
 -0.017578125 -213.641601562 l 1
 143.493164062 -70.0771484375 l 1
 287.00390625 73.486328125 l 1
 287.32421875 79.345703125 l 2
 288.858398438 107.426757812 299.75 142.296875 313.405273438 162.845703125 c 0
 320.584960938 173.650390625 331.8984375 186.088867188 342.7734375 195.133789062 c 0
 345.055664062 197.033203125 351.8671875 202.397460938 357.91015625 207.0546875 c 0
 376.567382812 221.435546875 399.51953125 240.034179688 413.57421875 252.161132812 c 0
 430.537109375 266.798828125 448.376953125 284.532226562 465.73828125 304.016601562 c 2
 469.708984375 308.47265625 l 1
 465.93359375 310.66796875 l 2
 456.448242188 316.185546875 447.76953125 324.393554688 442.758789062 332.584960938 c 0
 441.220703125 335.100585938 439.791992188 337.40625 439.584960938 337.709960938 c 0
 439.34765625 338.05859375 396.024414062 294.953125 321.8046875 220.522460938 c 0
 257.231445312 155.765625 158.405273438 56.7421875 102.190429688 0.4697265625 c 2
 -0.017578125 -101.84375 l 1
 0.11328125 -91.041015625 l 1
 0.244140625 -80.2392578125 l 1
 217.454101562 137.629882812 l 2
 385.966796875 306.654296875 434.58984375 355.686523438 434.333984375 356.337890625 c 0
 434.15234375 356.799804688 433.8828125 360.473632812 433.736328125 364.501953125 c 0
 433 384.62890625 439.290039062 400.767578125 453.345703125 414.815429688 c 0
 463.13671875 424.602539062 473.865234375 430.362304688 487.060546875 432.916015625 c 0
 491.750976562 433.82421875 504.298828125 434.141601562 509.299804688 433.479492188 c 2
 512.0078125 433.120117188 l 1
 545.403320312 466.560546875 l 1
 578.798828125 500 l 1
 589.813476562 500 l 1
 600.827148438 500 l 1
 564.77734375 463.947265625 l 1
 528.7265625 427.89453125 l 1
 532.307617188 425.780273438 l 2
 538.1015625 422.361328125 542.478515625 418.833007812 547.892578125 413.21875 c 0
 555.383789062 405.450195312 560.032226562 397.9375 563.15625 388.55078125 c 0
 566.543945312 378.372070312 567.266601562 364.9921875 565.08984375 352.783203125 c 0
 564.880859375 351.612304688 579.78125 366.259765625 639.2265625 425.659179688 c 2
 713.624023438 500 l 1
 724.853515625 500 l 1
 736.083007812 500 l 1
 636.51171875 400.427734375 l 1
 536.939453125 300.854492188 l 1
 540.564453125 296.817382812 l 2
 548.9375 287.490234375 561.407226562 274.633789062 569.681640625 266.795898438 c 0
 578.697265625 258.255859375 593.000976562 245.60546875 593.641601562 245.60546875 c 0
 593.8359375 245.60546875 651.233398438 302.844726562 721.19140625 372.802734375 c 2
 848.387695312 500 l 1
 859.618164062 500 l 1
 870.848632812 500 l 1
 738.390625 367.541015625 l 1
 605.932617188 235.08203125 l 1
 616.076171875 226.998046875 l 2
 621.655273438 222.551757812 632.262695312 214.344726562 639.6484375 208.760742188 c 0
 651.927734375 199.4765625 656.631835938 195.6328125 665.4453125 187.68359375 c 2
 668.537109375 184.895507812 l 1
 826.08984375 342.447265625 l 1
 983.643554688 500 l 1
 986.659179688 500 l 2
 993.296875 500 1000 498.459960938 1000 496.934570312 c 0
 1000 496.604492188 984.275390625 480.625 965.056640625 461.424804688 c 0
 945.837890625 442.223632812 873.408203125 369.65625 804.100585938 300.165039062 c 2
 678.088867188 173.815429688 l 1
 680.286132812 171.014648438 l 2
 686.916015625 162.563476562 693.797851562 150.319335938 697.915039062 139.6484375 c 0
 702.830078125 126.909179688 707.986328125 108.721679688 709.78515625 97.7763671875 c 2
 710.6875 92.2802734375 l 1
 855.34375 236.935546875 l 1
 1000 381.590820312 l 1
 1000 370.588867188 l 1
 1000 359.5859375 l 1
 856.270507812 215.880859375 l 1
 712.540039062 72.17578125 l 1
 712.203125 65.9951171875 l 2
 711.5625 54.25 709.825195312 40.1474609375 707.923828125 31.25 c 0
 704.072265625 13.23046875 695.216796875 -6.1015625 683.877929688 -21.240234375 c 0
 672.640625 -36.2421875 657.287109375 -48.49609375 626.108398438 -67.345703125 c 2
 616.229492188 -73.318359375 l 1
 616.869140625 -74.8671875 l 2
 617.220703125 -75.71875 621.333007812 -85.9228515625 626.006835938 -97.54296875 c 2
 634.50390625 -118.668945312 l 1
 817.251953125 64.078125 l 1
 1000 246.826171875 l 1
 1000 235.823242188 l 1
 1000 224.821289062 l 1
 820.556640625 45.40234375 l 2
 721.86328125 -53.2783203125 641.11328125 -134.251953125 641.11328125 -134.538085938 c 0
 641.11328125 -134.825195312 646.827148438 -149.211914062 653.810546875 -166.508789062 c 0
 660.793945312 -183.805664062 666.561523438 -198.270507812 666.627929688 -198.65234375 c 0
 666.712890625 -199.14453125 664.301757812 -200.182617188 658.331054688 -202.220703125 c 0
 630.956054688 -211.567382812 599.37109375 -219.508789062 576.171875 -222.876953125 c 0
 571.47265625 -223.55859375 567.447265625 -224.118164062 567.228515625 -224.119140625 c 0
 566.47265625 -224.124023438 571.547851562 -230.200195312 577.145507812 -235.99609375 c 0
 583.381835938 -242.452148438 587.2265625 -245.520507812 596.2109375 -251.213867188 c 0
 607.615234375 -258.44140625 612.134765625 -260.400390625 620.966796875 -261.943359375 c 2
 625.244140625 -262.690429688 l 1
 712.158203125 -175.901367188 l 2
 759.9609375 -128.166992188 844.284179688 -43.9580078125 899.541992188 11.23046875 c 2
 1000.01269531 111.572265625 l 1
 999.883789062 100.341796875 l 1
 999.755859375 89.111328125 l 1
 823.1171875 -87.115234375 l 2
 725.965820312 -184.0390625 646.549804688 -263.411132812 646.635742188 -263.498046875 c 0
 646.85546875 -263.717773438 726.131835938 -252.413085938 741.165039062 -250.017578125 c 0
 752.985351562 -248.134765625 753.813476562 -248.064453125 758.743164062 -248.532226562 c 0
 761.587890625 -248.801757812 766.772460938 -249.022460938 770.263671875 -249.0234375 c 2
 776.610351562 -249.0234375 l 1
 888.305664062 -137.329101562 l 1
 1000 -25.6357421875 l 1
 1000 -37.14453125 l 1
 1000 -48.654296875 l 1
 899.9140625 -148.6875 l 2
 844.8671875 -203.706054688 799.877929688 -248.76953125 799.938476562 -248.829101562 c 0
 799.999023438 -248.888671875 803.014648438 -249.1796875 806.640625 -249.477539062 c 0
 825.126953125 -250.993164062 845.897460938 -256.173828125 863.717773438 -263.713867188 c 0
 866.833984375 -265.033203125 873.099609375 -268.08984375 877.639648438 -270.506835938 c 0
 882.1796875 -272.924804688 886.041992188 -274.90234375 886.22265625 -274.90234375 c 0
 886.40234375 -274.90234375 912.076171875 -249.50390625 943.275390625 -218.461914062 c 2
 1000 -162.021484375 l 1
 1000 -173.174804688 l 1
 1000 -184.328125 l 1
 949.236328125 -235.08984375 l 2
 902.534179688 -281.790039062 898.533203125 -285.916992188 899.221679688 -286.678710938 c 0
 899.907226562 -287.435546875 898.026367188 -290.661132812 877.149414062 -324.5390625 c 0
 864.59765625 -344.907226562 853.802734375 -362.412109375 853.161132812 -363.439453125 c 2
 851.993164062 -365.305664062 l 1
 849.838867188 -363.3203125 l 2
 846.266601562 -360.026367188 839.831054688 -356.270507812 833.90234375 -354.017578125 c 2
 831.298828125 -353.028320312 l 1
 758.046875 -426.279296875 l 1
 684.795898438 -499.529296875 l 1
 672.841796875 -499.3984375 l 1
 660.888671875 -499.267578125 l 1
 736.728515625 -423.83984375 l 2
 809.990234375 -350.9765625 812.521484375 -348.3984375 811.19140625 -348.025390625 c 0
 810.434570312 -347.8125 805.859375 -347.431640625 801.025390625 -347.178710938 c 0
 796.19140625 -346.924804688 790.478515625 -346.46484375 788.330078125 -346.155273438 c 0
 786.071289062 -345.830078125 782.159179688 -345.711914062 779.052734375 -345.875 c 0
 776.098632812 -346.030273438 755.034179688 -348.772460938 732.243164062 -351.96875 c 2
 690.8046875 -357.780273438 l 1
 619.9375 -428.646484375 l 1
 549.071289062 -499.51171875 l 1
 537.543945312 -499.51171875 l 1
 526.017578125 -499.51171875 l 1
 595.102539062 -430.50390625 l 1
 664.1875 -361.497070312 l 1
 655.946289062 -362.639648438 l 2
 651.4140625 -363.268554688 643.639648438 -364.34765625 638.671875 -365.038085938 c 0
 622.631835938 -367.265625 608.540039062 -367.154296875 595.817382812 -364.698242188 c 0
 586.018554688 -362.807617188 572.837890625 -358.217773438 562.96484375 -353.259765625 c 2
 558.438476562 -350.986328125 l 1
 484.174804688 -425.249023438 l 1
 409.911132812 -499.51171875 l 1
 398.903320312 -499.51171875 l 1
 387.896484375 -499.51171875 l 1
 466.409179688 -421.03125 l 2
 509.590820312 -377.8671875 544.911132812 -342.436523438 544.8984375 -342.295898438 c 0
 544.885742188 -342.155273438 543.633789062 -341.051757812 542.116210938 -339.84375 c 0
 531.3515625 -331.2734375 517.181640625 -318.385742188 513.553710938 -313.865234375 c 0
 509.265625 -308.522460938 504.146484375 -296.33984375 501.436523438 -285.034179688 c 0
 500.809570312 -282.416015625 500.174804688 -280.274414062 500.026367188 -280.276367188 c 0
 499.876953125 -280.276367188 499.022460938 -282.96875 498.126953125 -286.2578125 c 0
 494.805664062 -298.446289062 490.229492188 -308.877929688 485.381835938 -315.311523438 c 0
 479.336914062 -323.333007812 463.522460938 -336.80078125 451.079101562 -344.522460938 c 0
 441.721679688 -350.329101562 425.544921875 -357.942382812 415.52734375 -361.25390625 c 2
 412.353515625 -362.302734375 l 1
 343.750976562 -430.907226562 l 1
 275.147460938 -499.51171875 l 1
 264.118164062 -499.51171875 l 1
 253.08984375 -499.51171875 l 1
 319.438476562 -433.227539062 l 1
 385.788085938 -366.943359375 l 1
 378.045898438 -366.618164062 l 2
 372.178710938 -366.372070312 359.966796875 -364.856445312 327.637695312 -360.36328125 c 2
 284.97265625 -354.432617188 l 1
 212.431640625 -426.97265625 l 1
 139.891601562 -499.51171875 l 1
 128.874023438 -499.51171875 l 1
 117.857421875 -499.51171875 l 1
 191.772460938 -425.642578125 l 1
 265.688476562 -351.7734375 l 1
 245.270507812 -348.919921875 l 2
 221.384765625 -345.581054688 217.876953125 -345.336914062 208.984375 -346.387695312 c 0
 205.358398438 -346.81640625 200.634765625 -347.170898438 198.486328125 -347.176757812 c 0
 187.823242188 -347.202148438 169.862304688 -351.569335938 159.94921875 -356.545898438 c 0
 155.348632812 -358.856445312 152.415039062 -360.798828125 149.561523438 -363.42578125 c 2
 147.51171875 -365.3125 l 1
 146.124023438 -363.083007812 l 1
 144.736328125 -360.854492188 l 1
 75.4443359375 -430.182617188 l 2
 37.333984375 -468.313476562 5.8828125 -499.51171875 5.5546875 -499.51171875 c 0
 5.2265625 -499.51171875 4.28515625 -498.946289062 3.4638671875 -498.25390625 c 0
381.34765625 -332.767578125 m 0
 407.091796875 -329.833984375 426.118164062 -322.84765625 439.94140625 -311.251953125 c 0
 449.034179688 -303.624023438 458.411132812 -292.713867188 466.778320312 -280.029296875 c 0
 476.442382812 -265.377929688 481.19140625 -250.118164062 482.240234375 -230.346679688 c 2
 482.5703125 -224.12109375 l 1
 474.731445312 -224.12109375 l 1
 466.892578125 -224.12109375 l 1
 462.154296875 -231.293945312 l 2
 449.904296875 -249.838867188 438.061523438 -263.397460938 426.490234375 -272.126953125 c 0
 417.862304688 -278.635742188 395.959960938 -288.385742188 381.907226562 -291.973632812 c 0
 376.01953125 -293.477539062 369.263671875 -294.405273438 361.81640625 -294.733398438 c 0
 354.475585938 -295.056640625 352.74609375 -294.84375 315.861328125 -289.077148438 c 0
 285.1640625 -284.278320312 279.408203125 -283.149414062 260.25390625 -278.168945312 c 0
 246.29296875 -274.5390625 242.9765625 -274.171875 224.12109375 -274.170898438 c 0
 207.083007812 -274.170898438 202.84375 -274.4609375 187.744140625 -276.666992188 c 0
 169.9453125 -279.267578125 154.620117188 -283.766601562 141.97265625 -290.104492188 c 2
 138.193359375 -291.998046875 l 1
 142.017578125 -298.220703125 l 2
 154.935546875 -319.240234375 159.482421875 -326.629882812 160.526367188 -328.302734375 c 2
 161.704101562 -330.189453125 l 1
 163.249023438 -328.694335938 l 2
 165.5234375 -326.495117188 170.71875 -323.96484375 174.845703125 -323.046875 c 0
 198.88671875 -317.701171875 202.954101562 -317.14453125 217.7734375 -317.171875 c 0
 228.501953125 -317.192382812 230.4921875 -317.328125 237.060546875 -318.4921875 c 0
 241.088867188 -319.206054688 250.565429688 -320.56640625 258.119140625 -321.515625 c 0
 273.228515625 -323.4140625 286.499023438 -325.293945312 302.94140625 -327.865234375 c 0
 315.624023438 -329.84765625 333.784179688 -332.236328125 343.75 -333.232421875 c 0
 352.451171875 -334.102539062 371.729492188 -333.864257812 381.34765625 -332.767578125 c 0
664.094726562 -332.337890625 m 0
 677.211914062 -330.813476562 684.642578125 -329.776367188 706.54296875 -326.413085938 c 0
 716.077148438 -324.950195312 731.630859375 -322.758789062 741.107421875 -321.544921875 c 0
 750.583984375 -320.331054688 760.911132812 -318.8515625 764.056640625 -318.2578125 c 0
 768.958984375 -317.33203125 771.482421875 -317.17578125 781.73828125 -317.1640625 c 0
 796.549804688 -317.146484375 800.51171875 -317.6875 824.513671875 -323.010742188 c 0
 828.708007812 -323.94140625 833.483398438 -326.131835938 836.240234375 -328.390625 c 0
 837.767578125 -329.642578125 838.390625 -329.909179688 838.735351562 -329.458007812 c 0
 839.828125 -328.03125 861.360351562 -292.677734375 861.405273438 -292.236328125 c 0
 861.551757812 -290.803710938 840.678710938 -282.759765625 829.833984375 -280.068359375 c 0
 804.125976562 -273.689453125 766.08203125 -271.998046875 746.086914062 -276.34375 c 0
 743.5390625 -276.897460938 737.830078125 -278.346679688 733.3984375 -279.564453125 c 0
 722.204101562 -282.640625 709.688476562 -285.064453125 685.791015625 -288.78515625 c 0
 645.196289062 -295.10546875 645.577148438 -295.05859375 637.893554688 -294.71484375 c 0
 626.26953125 -294.196289062 617.803710938 -292.547851562 607.177734375 -288.733398438 c 0
 595.83984375 -284.663085938 582.495117188 -278.2734375 575.423828125 -273.529296875 c 0
 563.6015625 -265.596679688 551.407226562 -252.227539062 538.70703125 -233.276367188 c 2
 532.571289062 -224.12109375 l 1
 524.754882812 -224.12109375 l 1
 516.939453125 -224.12109375 l 1
 517.243164062 -230.102539062 l 2
 518.45703125 -253.994140625 524.498046875 -270.018554688 539.836914062 -290.0390625 c 0
 554.526367188 -309.211914062 568.90234375 -320.068359375 587.959960938 -326.3828125 c 0
 609.318359375 -333.459960938 636.291015625 -335.569335938 664.094726562 -332.337890625 c 0
376.46484375 -240.966796875 m 0
 391.9375 -225.491210938 398.85546875 -218.260742188 398.19140625 -218.258789062 c 0
 394.736328125 -218.249023438 363.032226562 -209.549804688 347.629882812 -204.384765625 c 0
 334.986328125 -200.145507812 333.227539062 -199.435546875 333.373046875 -198.625976562 c 0
 333.439453125 -198.254882812 337.079101562 -189.063476562 341.4609375 -178.19921875 c 0
 345.842773438 -167.3359375 349.811523438 -157.458007812 350.280273438 -156.25 c 0
 351.016601562 -154.348632812 344.717773438 -160.462890625 303.4921875 -201.66015625 c 0
 265.694335938 -239.432617188 256.029296875 -249.337890625 256.709960938 -249.609375 c 0
 257.8828125 -250.075195312 282.0625 -253.673828125 313.4765625 -258.055664062 c 0
 327.844726562 -260.059570312 342.346679688 -262.119140625 345.703125 -262.630859375 c 0
 349.060546875 -263.143554688 352.247070312 -263.586914062 352.78515625 -263.6171875 c 0
 353.4609375 -263.655273438 360.791992188 -256.642578125 376.46484375 -240.966796875 c 0
385.7421875 -260.40234375 m 0
 390.419921875 -259.0703125 393.5 -257.483398438 402.494140625 -251.7734375 c 0
 411.545898438 -246.026367188 416.590820312 -242.124023438 422.126953125 -236.583984375 c 0
 427.059570312 -231.647460938 433.495117188 -224.12109375 432.783203125 -224.12109375 c 0
 432.571289062 -224.12109375 429.01171875 -223.657226562 424.873046875 -223.08984375 c 2
 417.34765625 -222.05859375 l 1
 397.272460938 -242.149414062 l 1
 377.197265625 -262.241210938 l 1
 379.39453125 -261.913085938 l 2
 380.603515625 -261.732421875 383.459960938 -261.052734375 385.7421875 -260.40234375 c 0
519.287109375 -196.774414062 m 0
 540.440429688 -195.635742188 557.302734375 -193.354492188 582.579101562 -188.211914062 c 0
 600.540039062 -184.55859375 624.51171875 -178.865234375 624.51171875 -178.25390625 c 0
 624.51171875 -177.485351562 600.091796875 -172.154296875 585.44921875 -169.7265625 c 0
 531.608398438 -160.798828125 463.724609375 -160.986328125 411.1328125 -170.208007812 c 0
 396.981445312 -172.689453125 375.48828125 -177.534179688 375.48828125 -178.2421875 c 0
 375.48828125 -178.657226562 400.319335938 -184.818359375 411.62109375 -187.20703125 c 0
 439.103515625 -193.015625 459.653320312 -195.79296875 483.642578125 -196.940429688 c 0
 491.071289062 -197.295898438 511.345703125 -197.201171875 519.287109375 -196.774414062 c 0
400.390625 -137.989257812 m 1
 422.166015625 -133.907226562 441.744140625 -131.4921875 466.796875 -129.794921875 c 0
 478.75390625 -128.985351562 520.875 -128.982421875 532.71484375 -129.790039062 c 0
 558.84375 -131.573242188 584.739257812 -134.91015625 604.978515625 -139.099609375 c 0
 607.528320312 -139.627929688 609.650390625 -140.021484375 609.693359375 -139.975585938 c 0
 609.830078125 -139.830078125 586.651367188 -80.6298828125 586.333007812 -80.310546875 c 0
 585.924804688 -79.90234375 572.16796875 -77.921875 561.279296875 -76.7041015625 c 0
 520.340820312 -72.1259765625 478.86328125 -72.12890625 437.98828125 -76.7119140625 c 0
 425.888671875 -78.0693359375 413.545898438 -79.8994140625 413.10546875 -80.40234375 c 0
 412.909179688 -80.626953125 407.963867188 -93.115234375 402.116210938 -108.154296875 c 0
 396.267578125 -123.193359375 391.067382812 -136.557617188 390.55859375 -137.852539062 c 0
 389.690429688 -140.06640625 389.686523438 -140.190429688 390.49609375 -139.944335938 c 0
 390.969726562 -139.799804688 395.421875 -138.919921875 400.390625 -137.989257812 c 1
 400.390625 -137.989257812 l 1
419.946289062 -45.6708984375 m 0
 471.805664062 -37.947265625 533.07421875 -38.2265625 584.862304688 -46.4228515625 c 2
 590.868164062 -47.373046875 l 1
 596.092773438 -45.3447265625 l 2
 615.639648438 -37.7568359375 632.336914062 -27.04296875 644.787109375 -14.1015625 c 0
 665.301757812 7.2236328125 677.296875 36.876953125 678.538085938 69.3359375 c 0
 679.03125 82.251953125 677.393554688 94.388671875 673.353515625 107.755859375 c 0
 666.287109375 131.133789062 655.900390625 148.790039062 639.651367188 165.043945312 c 0
 636.404296875 168.29296875 620.434570312 181.9921875 601.806640625 197.508789062 c 0
 566.653320312 226.790039062 558.663085938 233.556640625 550.537109375 240.923828125 c 0
 541.477539062 249.138671875 518.96484375 271.674804688 509.401367188 282.104492188 c 0
 504.415039062 287.54296875 500.182617188 291.9921875 499.997070312 291.9921875 c 0
 499.810546875 291.9921875 497.267578125 289.41015625 494.344726562 286.254882812 c 0
 469.90625 259.873046875 452.21875 243.016601562 425.78125 220.913085938 c 0
 386.728515625 188.262695312 365.817382812 170.512695312 361.393554688 166.259765625 c 0
 347.97265625 153.359375 337.856445312 138.392578125 331.360351562 121.826171875 c 0
 323.897460938 102.791992188 320.947265625 87.3544921875 321.469726562 70.068359375 c 0
 322.1171875 48.6708984375 326.82421875 30.09765625 336.30859375 11.521484375 c 0
 341.625976562 1.1083984375 347.9765625 -7.5302734375 356.5234375 -15.974609375 c 0
 364.615234375 -23.970703125 373.321289062 -30.396484375 384.033203125 -36.2802734375 c 0
 394.048828125 -41.78125 408.021484375 -47.5185546875 410.424804688 -47.1162109375 c 0
 411.244140625 -46.9794921875 415.529296875 -46.3291015625 419.946289062 -45.6708984375 c 0
493.896484375 28.48828125 m 1
 487.7265625 30.08984375 484.295898438 33.685546875 482.970703125 39.94140625 c 0
 482.612304688 41.6279296875 482.421875 49.91015625 482.421875 63.7451171875 c 2
 482.421875 84.9609375 l 1
 473.999023438 85.005859375 l 2
 469.366210938 85.0302734375 458.984375 85.2001953125 450.927734375 85.3837890625 c 0
 436.541992188 85.7109375 436.231445312 85.7392578125 433.59375 86.9755859375 c 0
 430.205078125 88.5634765625 428.416015625 90.349609375 426.807617188 93.75 c 0
 425.668945312 96.1572265625 425.537109375 97.0166015625 425.537109375 102.05078125 c 0
 425.537109375 107.084960938 425.668945312 107.944335938 426.807617188 110.3515625 c 0
 428.413085938 113.74609375 430.19921875 115.532226562 433.59375 117.137695312 c 2
 436.279296875 118.408203125 l 1
 459.329101562 118.552734375 l 1
 482.37890625 118.697265625 l 1
 482.522460938 142.528320312 l 1
 482.666015625 166.360351562 l 1
 484.37890625 169.727539062 l 2
 485.703125 172.33203125 486.626953125 173.454101562 488.452148438 174.67578125 c 0
 491.768554688 176.896484375 494.1171875 177.465820312 500 177.479492188 c 0
 506.584960938 177.493164062 509.543945312 176.537109375 512.70703125 173.374023438 c 0
 516.85546875 169.225585938 516.80078125 169.624023438 516.977539062 142.456054688 c 2
 517.1328125 118.65234375 l 1
 539.728515625 118.65234375 l 2
 563.862304688 118.65234375 565.276367188 118.53125 569.220703125 116.120117188 c 0
 577.208007812 111.23828125 577.12109375 92.8525390625 569.0859375 87.8876953125 c 0
 565.383789062 85.5986328125 563.719726562 85.4609375 539.6953125 85.455078125 c 2
 517.134765625 85.44921875 l 1
 516.967773438 62.6220703125 l 2
 516.787109375 37.9482421875 516.791015625 37.984375 514.025390625 33.8525390625 c 0
 512.821289062 32.0546875 511.681640625 31.111328125 509.178710938 29.837890625 c 0
 506.23046875 28.3388671875 505.431640625 28.158203125 501.122070312 28.013671875 c 0
 498.247070312 27.91796875 495.36328125 28.107421875 493.896484375 28.48828125 c 2
 493.896484375 28.48828125 l 1
507.517578125 334.984375 m 0
 512.145507812 335.627929688 517.521484375 337.439453125 520.522460938 339.365234375 c 0
 523.37109375 341.193359375 527.224609375 345.215820312 528.932617188 348.14453125 c 0
 533.544921875 356.053710938 534.509765625 372.021484375 530.999023438 382.34375 c 0
 529.493164062 386.770507812 527.551757812 389.825195312 524.278320312 392.91796875 c 0
 520.830078125 396.176757812 518.1484375 397.653320312 512.939453125 399.165039062 c 0
 502.112304688 402.307617188 487.106445312 400.8828125 479.477539062 395.986328125 c 0
 476.603515625 394.142578125 472.750976562 390.108398438 471.092773438 387.20703125 c 0
 465.159179688 376.823242188 465.456054688 356.8671875 471.689453125 347.153320312 c 0
 473.533203125 344.279296875 477.567382812 340.426757812 480.46875 338.768554688 c 0
 486.833007812 335.131835938 497.672851562 333.615234375 507.517578125 334.984375 c 0
847.881835938 -447.877929688 m 2
 876.358398438 -419.479492188 922.23828125 -373.721679688 949.8359375 -346.193359375 c 2
 1000.01464844 -296.142578125 l 1
 999.884765625 -307.6171875 l 1
 999.755859375 -319.091796875 l 1
 909.416992188 -409.301757812 l 1
 819.078125 -499.51171875 l 1
 807.591796875 -499.51171875 l 1
 796.104492188 -499.51171875 l 1
 847.881835938 -447.877929688 l 2
948.45703125 -482.055664062 m 2
 958.140625 -472.455078125 973.69921875 -457.0234375 983.032226562 -447.763671875 c 2
 1000 -430.926757812 l 1
 1000 -441.998046875 l 1
 1000 -453.069335938 l 1
 975.866210938 -476.291015625 l 1
 951.732421875 -499.51171875 l 1
 941.291992188 -499.51171875 l 1
 930.850585938 -499.51171875 l 1
 948.45703125 -482.055664062 l 2
0.11328125 44.982421875 m 1
 0.244140625 55.541015625 l 1
 221.923828125 277.6484375 l 1
 443.603515625 499.755859375 l 1
 454.802734375 499.88671875 l 2
 460.961914062 499.958984375 465.899414062 499.958984375 465.775390625 499.88671875 c 0
 465.651367188 499.814453125 360.796875 395.055664062 232.765625 267.08984375 c 2
 -0.017578125 34.423828125 l 1
 0.11328125 44.982421875 l 1
-0 179.9296875 m 1
 -0 190.669921875 l 1
 76.0537109375 266.84375 l 2
 117.8828125 308.739257812 187.365234375 378.342773438 230.459960938 421.517578125 c 2
 308.8125 500.017578125 l 1
 319.690429688 499.88671875 l 1
 330.568359375 499.755859375 l 1
 165.284179688 334.47265625 l 1
 -0 169.190429688 l 1
 -0 179.9296875 l 1
-0 315.438476562 m 1
 -0 326.416992188 l 1
 86.8017578125 413.217773438 l 1
 173.603515625 500.018554688 l 1
 184.580078125 499.887695312 l 1
 195.556640625 499.755859375 l 1
 97.7783203125 402.108398438 l 1
 -0 304.459960938 l 1
 -0 315.438476562 l 1
0.001953125 450.197265625 m 1
 0.00390625 461.181640625 l 1
 19.4072265625 480.599609375 l 1
 38.810546875 500.017578125 l 1
 49.6806640625 499.88671875 l 1
 60.55078125 499.755859375 l 1
 30.275390625 469.484375 l 1
 -0 439.211914062 l 1
 0.001953125 450.197265625 l 1
EndSplineSet
EndChar

StartChar: b
Encoding: 98 98 9
Width: 1000
Flags: H
LayerCount: 2
Fore
SplineSet
370.361328125 -366.217773438 m 1
 366.866210938 -365.869140625 332.3828125 -361.110351562 251.953125 -349.876953125 c 0
 237.31640625 -347.83203125 223.14453125 -346.043945312 220.458984375 -345.90234375 c 0
 217.408203125 -345.7421875 213.102539062 -345.938476562 208.984375 -346.426757812 c 0
 205.358398438 -346.856445312 200.634765625 -347.211914062 198.486328125 -347.217773438 c 0
 187.823242188 -347.243164062 169.862304688 -351.610351562 159.94921875 -356.587890625 c 0
 155.352539062 -358.895507812 152.415039062 -360.83984375 149.568359375 -363.459960938 c 2
 147.525390625 -365.33984375 l 1
 146.801757812 -364.208984375 l 2
 146.404296875 -363.586914062 135.713867188 -346.07421875 123.044921875 -325.291992188 c 2
 100.01171875 -287.505859375 l 1
 103.350585938 -284.11328125 l 2
 110.166015625 -277.188476562 113.66796875 -274.8125 126.220703125 -268.59375 c 0
 145.5234375 -259.03125 161.182617188 -253.96484375 180.49609375 -251.03515625 c 0
 191.036132812 -249.435546875 197.73046875 -249.075195312 217.041015625 -249.065429688 c 0
 227.24609375 -249.060546875 238.0390625 -248.83984375 241.025390625 -248.575195312 c 0
 246.263671875 -248.112304688 246.93359375 -248.170898438 260.068359375 -250.26171875 c 0
 292.053710938 -255.353515625 352.603515625 -263.712890625 357.484375 -263.711914062 c 0
 363.278320312 -263.711914062 373.997070312 -262.845703125 379.078125 -261.969726562 c 0
 386.120117188 -260.755859375 390.528320312 -259.104492188 396.7890625 -255.336914062 c 0
 413.421875 -245.327148438 421.051757812 -238.966796875 431.05078125 -226.776367188 c 2
 433.111328125 -224.263671875 l 1
 428.8359375 -223.696289062 l 2
 403.166015625 -220.288085938 375.014648438 -213.608398438 347.629882812 -204.42578125 c 0
 335.09765625 -200.223632812 333.228515625 -199.47265625 333.368164062 -198.690429688 c 0
 333.432617188 -198.33203125 344.384765625 -171.012695312 357.708007812 -137.98046875 c 0
 371.030273438 -104.948242188 382.337890625 -76.8984375 382.834960938 -75.6474609375 c 2
 383.739257812 -73.373046875 l 1
 372.16796875 -66.43359375 l 2
 349.541015625 -52.8662109375 335.076171875 -42.544921875 325.994140625 -33.486328125 c 0
 316.74609375 -24.263671875 311.45703125 -16.5859375 303.458007812 -0.7734375 c 0
 294.547851562 16.837890625 290.998046875 28.697265625 288.25390625 50.0078125 c 0
 287.029296875 59.51953125 287.020507812 81.580078125 288.23828125 90.291015625 c 0
 291.98046875 117.075195312 301.78125 145.313476562 313.405273438 162.8046875 c 0
 320.584960938 173.609375 331.8984375 186.047851562 342.7734375 195.092773438 c 0
 345.055664062 196.991210938 351.8671875 202.35546875 357.91015625 207.013671875 c 0
 376.567382812 221.393554688 399.51953125 239.993164062 413.57421875 252.120117188 c 0
 430.537109375 266.7578125 448.376953125 284.491210938 465.73828125 303.975585938 c 2
 469.708984375 308.430664062 l 1
 465.93359375 310.626953125 l 2
 453.344726562 317.950195312 443.249023438 329.018554688 438.600585938 340.594726562 c 0
 431.643554688 357.922851562 431.995117188 379.42578125 439.498046875 395.436523438 c 0
 442.694335938 402.2578125 447.408203125 408.840820312 453.345703125 414.774414062 c 0
 462.94140625 424.366210938 472.9765625 429.866210938 485.969726562 432.657226562 c 0
 492.603515625 434.08203125 506.323242188 434.215820312 512.784179688 432.918945312 c 0
 521.359375 431.198242188 529.108398438 428.014648438 536.376953125 423.225585938 c 0
 541.515625 419.83984375 552.205078125 409.149414062 555.590820312 404.01171875 c 0
 562.465820312 393.578125 565.717773438 383.22265625 566.248046875 370.076171875 c 0
 567.293945312 344.19140625 556.1484375 323.733398438 533.806640625 310.529296875 c 2
 530.260742188 308.43359375 l 1
 533.548828125 304.708984375 l 2
 549.440429688 286.712890625 567.233398438 268.497070312 580.078125 257.075195312 c 0
 596.028320312 242.892578125 618.904296875 224.33984375 640.573242188 208.014648438 c 0
 647.124023438 203.079101562 654.814453125 197.041992188 657.663085938 194.598632812 c 0
 676.517578125 178.423828125 690.094726562 159.875 697.915039062 139.607421875 c 0
 704.231445312 123.237304688 708.724609375 106.059570312 711.26171875 88.58203125 c 0
 713.27734375 74.69140625 711.8046875 49.365234375 707.923828125 31.208984375 c 0
 704.072265625 13.1884765625 695.216796875 -6.142578125 683.876953125 -21.28125 c 0
 672.641601562 -36.28125 657.286132812 -48.5380859375 626.118164062 -67.380859375 c 2
 616.25 -73.3466796875 l 1
 617.158203125 -75.634765625 l 2
 617.657226562 -76.892578125 628.966796875 -104.948242188 642.290039062 -137.98046875 c 0
 655.614257812 -171.012695312 666.567382812 -198.342773438 666.631835938 -198.713867188 c 0
 666.711914062 -199.1796875 664.15234375 -200.274414062 658.331054688 -202.26171875 c 0
 630.956054688 -211.609375 599.37109375 -219.549804688 576.171875 -222.91796875 c 0
 571.471679688 -223.599609375 567.447265625 -224.159179688 567.228515625 -224.16015625 c 0
 565.6015625 -224.168945312 580.853515625 -240.412109375 586.442382812 -244.624023438 c 0
 595.208984375 -251.229492188 607.840820312 -258.543945312 613.41015625 -260.23828125 c 0
 619.791015625 -262.180664062 632.62890625 -263.712890625 642.521484375 -263.712890625 c 0
 646.614257812 -263.712890625 714.081054688 -254.375 741.165039062 -250.059570312 c 0
 752.985351562 -248.17578125 753.813476562 -248.10546875 758.743164062 -248.573242188 c 0
 761.587890625 -248.842773438 772.375 -249.06640625 782.71484375 -249.069335938 c 0
 803.263671875 -249.075195312 809.452148438 -249.4375 820.658203125 -251.291015625 c 0
 840.147460938 -254.515625 858.474609375 -260.571289062 875.48828125 -269.408203125 c 0
 886.0234375 -274.880859375 889.131835938 -276.986328125 895.09375 -282.6875 c 2
 900.046875 -287.423828125 l 1
 877.1875 -324.518554688 l 2
 864.615234375 -344.920898438 853.802734375 -362.453125 853.161132812 -363.48046875 c 2
 851.993164062 -365.346679688 l 1
 849.838867188 -363.361328125 l 2
 845.501953125 -359.36328125 838.474609375 -355.559570312 830.532226562 -352.912109375 c 0
 820.029296875 -349.41015625 808.774414062 -347.217773438 801.26953125 -347.211914062 c 0
 798.986328125 -347.211914062 794.15234375 -346.856445312 790.52734375 -346.426757812 c 0
 786.424804688 -345.940429688 782.091796875 -345.741210938 779.052734375 -345.899414062 c 0
 776.3671875 -346.040039062 742.638671875 -350.555664062 704.1015625 -355.934570312 c 0
 665.563476562 -361.313476562 631.7578125 -365.9453125 628.9765625 -366.227539062 c 0
 618.517578125 -367.288085938 606.140625 -366.728515625 595.743164062 -364.724609375 c 0
 581.446289062 -361.96875 563.329101562 -354.565429688 550.98046875 -346.43359375 c 0
 541.328125 -340.076171875 518.944335938 -320.623046875 513.553710938 -313.90625 c 0
 509.265625 -308.563476562 504.146484375 -296.381835938 501.436523438 -285.075195312 c 0
 500.809570312 -282.45703125 500.174804688 -280.315429688 500.026367188 -280.317382812 c 0
 499.876953125 -280.317382812 499.022460938 -283.010742188 498.126953125 -286.298828125 c 0
 494.805664062 -298.487304688 490.229492188 -308.918945312 485.381835938 -315.352539062 c 0
 479.336914062 -323.374023438 463.522460938 -336.841796875 451.079101562 -344.563476562 c 0
 436.633789062 -353.528320312 416.17578125 -362.067382812 402.754882812 -364.735351562 c 0
 393.119140625 -366.650390625 380.489257812 -367.228515625 370.361328125 -366.217773438 c 1
 370.361328125 -366.217773438 l 1
381.34765625 -332.80859375 m 0
 407.091796875 -329.875 426.118164062 -322.888671875 439.94140625 -311.29296875 c 0
 449.034179688 -303.665039062 458.411132812 -292.755859375 466.778320312 -280.0703125 c 0
 476.442382812 -265.418945312 481.19140625 -250.159179688 482.240234375 -230.387695312 c 2
 482.5703125 -224.162109375 l 1
 474.731445312 -224.162109375 l 1
 466.893554688 -224.162109375 l 1
 462.154296875 -231.3359375 l 2
 449.904296875 -249.879882812 438.061523438 -263.439453125 426.490234375 -272.16796875 c 0
 417.862304688 -278.676757812 395.959960938 -288.426757812 381.907226562 -292.015625 c 0
 376.01953125 -293.518554688 369.263671875 -294.446289062 361.81640625 -294.774414062 c 0
 354.475585938 -295.09765625 352.74609375 -294.884765625 315.861328125 -289.118164062 c 0
 285.1640625 -284.319335938 279.408203125 -283.190429688 260.25390625 -278.209960938 c 0
 246.29296875 -274.580078125 242.9765625 -274.212890625 224.12109375 -274.211914062 c 0
 207.083007812 -274.211914062 202.84375 -274.501953125 187.744140625 -276.708007812 c 0
 169.9453125 -279.309570312 154.620117188 -283.80859375 141.97265625 -290.145507812 c 2
 138.193359375 -292.040039062 l 1
 142.017578125 -298.26171875 l 2
 154.935546875 -319.28125 159.482421875 -326.670898438 160.526367188 -328.34375 c 2
 161.704101562 -330.23046875 l 1
 163.249023438 -328.735351562 l 2
 165.5234375 -326.536132812 170.71875 -324.005859375 174.845703125 -323.087890625 c 0
 198.88671875 -317.7421875 202.954101562 -317.185546875 217.7734375 -317.212890625 c 0
 228.501953125 -317.233398438 230.4921875 -317.369140625 237.060546875 -318.533203125 c 0
 241.088867188 -319.247070312 250.565429688 -320.608398438 258.119140625 -321.557617188 c 0
 273.228515625 -323.456054688 286.499023438 -325.3359375 302.94140625 -327.90625 c 0
 315.624023438 -329.889648438 333.783203125 -332.27734375 343.75 -333.2734375 c 0
 352.451171875 -334.143554688 371.729492188 -333.905273438 381.34765625 -332.80859375 c 0
664.094726562 -332.37890625 m 0
 677.211914062 -330.854492188 684.642578125 -329.817382812 706.54296875 -326.455078125 c 0
 716.077148438 -324.991210938 731.630859375 -322.799804688 741.107421875 -321.5859375 c 0
 750.583984375 -320.372070312 760.911132812 -318.892578125 764.056640625 -318.298828125 c 0
 768.958984375 -317.373046875 771.482421875 -317.216796875 781.73828125 -317.205078125 c 0
 796.549804688 -317.1875 800.51171875 -317.729492188 824.513671875 -323.051757812 c 0
 828.708007812 -323.982421875 833.483398438 -326.172851562 836.240234375 -328.431640625 c 0
 837.767578125 -329.68359375 838.390625 -329.950195312 838.735351562 -329.499023438 c 0
 839.828125 -328.072265625 861.360351562 -292.71875 861.405273438 -292.27734375 c 0
 861.551757812 -290.845703125 840.678710938 -282.80078125 829.833984375 -280.109375 c 0
 804.125976562 -273.731445312 766.08203125 -272.0390625 746.086914062 -276.384765625 c 0
 743.5390625 -276.938476562 737.830078125 -278.387695312 733.3984375 -279.60546875 c 0
 722.204101562 -282.681640625 709.688476562 -285.10546875 685.791015625 -288.826171875 c 0
 645.196289062 -295.146484375 645.577148438 -295.099609375 637.893554688 -294.756835938 c 0
 626.26953125 -294.237304688 617.803710938 -292.588867188 607.177734375 -288.774414062 c 0
 595.83984375 -284.704101562 582.495117188 -278.314453125 575.423828125 -273.5703125 c 0
 563.6015625 -265.637695312 551.407226562 -252.26953125 538.70703125 -233.317382812 c 2
 532.571289062 -224.162109375 l 1
 524.754882812 -224.162109375 l 1
 516.939453125 -224.162109375 l 1
 517.243164062 -230.143554688 l 2
 518.45703125 -254.036132812 524.498046875 -270.059570312 539.836914062 -290.080078125 c 0
 554.526367188 -309.252929688 568.90234375 -320.110351562 587.959960938 -326.424804688 c 0
 609.318359375 -333.500976562 636.291015625 -335.610351562 664.094726562 -332.37890625 c 0
519.287109375 -196.815429688 m 0
 540.440429688 -195.676757812 557.302734375 -193.395507812 582.579101562 -188.25390625 c 0
 600.540039062 -184.599609375 624.51171875 -178.90625 624.51171875 -178.294921875 c 0
 624.51171875 -177.526367188 600.091796875 -172.1953125 585.44921875 -169.767578125 c 0
 531.608398438 -160.83984375 463.724609375 -161.02734375 411.1328125 -170.249023438 c 0
 396.981445312 -172.73046875 375.48828125 -177.575195312 375.48828125 -178.284179688 c 0
 375.48828125 -178.698242188 400.319335938 -184.859375 411.62109375 -187.248046875 c 0
 439.103515625 -193.056640625 459.653320312 -195.833984375 483.642578125 -196.982421875 c 0
 491.071289062 -197.336914062 511.345703125 -197.2421875 519.287109375 -196.815429688 c 0
400.390625 -138.030273438 m 1
 422.166015625 -133.94921875 441.744140625 -131.533203125 466.796875 -129.8359375 c 0
 478.75390625 -129.026367188 520.875 -129.0234375 532.71484375 -129.831054688 c 0
 558.84375 -131.615234375 584.739257812 -134.951171875 604.978515625 -139.140625 c 0
 607.528320312 -139.668945312 609.650390625 -140.063476562 609.693359375 -140.017578125 c 0
 609.830078125 -139.87109375 586.651367188 -80.6708984375 586.333007812 -80.3515625 c 0
 585.924804688 -79.943359375 572.16796875 -77.962890625 561.279296875 -76.74609375 c 0
 520.340820312 -72.16796875 478.86328125 -72.169921875 437.98828125 -76.75390625 c 0
 425.888671875 -78.1103515625 413.545898438 -79.9404296875 413.10546875 -80.443359375 c 0
 412.909179688 -80.66796875 407.963867188 -93.15625 402.116210938 -108.1953125 c 0
 396.267578125 -123.234375 391.067382812 -136.598632812 390.55859375 -137.893554688 c 0
 389.690429688 -140.107421875 389.686523438 -140.232421875 390.49609375 -139.985351562 c 0
 390.969726562 -139.840820312 395.421875 -138.9609375 400.390625 -138.030273438 c 1
 400.390625 -138.030273438 l 1
419.946289062 -45.7119140625 m 0
 471.805664062 -37.98828125 533.07421875 -38.267578125 584.862304688 -46.4638671875 c 2
 590.868164062 -47.4150390625 l 1
 596.092773438 -45.3857421875 l 2
 615.639648438 -37.7978515625 632.336914062 -27.083984375 644.787109375 -14.142578125 c 0
 665.301757812 7.1826171875 677.296875 36.8359375 678.538085938 69.294921875 c 0
 679.03125 82.2109375 677.393554688 94.34765625 673.353515625 107.713867188 c 0
 666.287109375 131.092773438 655.900390625 148.749023438 639.651367188 165.002929688 c 0
 636.404296875 168.251953125 620.434570312 181.951171875 601.806640625 197.466796875 c 0
 566.653320312 226.749023438 558.663085938 233.515625 550.537109375 240.8828125 c 0
 541.477539062 249.09765625 518.96484375 271.633789062 509.401367188 282.063476562 c 0
 504.415039062 287.501953125 500.182617188 291.951171875 499.997070312 291.951171875 c 0
 499.810546875 291.951171875 497.267578125 289.369140625 494.344726562 286.213867188 c 0
 469.90625 259.83203125 452.21875 242.974609375 425.78125 220.872070312 c 0
 386.728515625 188.220703125 365.817382812 170.471679688 361.393554688 166.21875 c 0
 347.97265625 153.318359375 337.856445312 138.3515625 331.360351562 121.78515625 c 0
 323.897460938 102.750976562 320.947265625 87.3134765625 321.469726562 70.02734375 c 0
 322.1171875 48.6298828125 326.82421875 30.056640625 336.30859375 11.48046875 c 0
 341.625976562 1.0673828125 347.9765625 -7.572265625 356.5234375 -16.015625 c 0
 364.615234375 -24.01171875 373.321289062 -30.4375 384.033203125 -36.3212890625 c 0
 394.048828125 -41.822265625 408.021484375 -47.5595703125 410.424804688 -47.1572265625 c 0
 411.244140625 -47.0205078125 415.529296875 -46.3701171875 419.946289062 -45.7119140625 c 0
493.896484375 28.447265625 m 1
 487.7265625 30.0478515625 484.295898438 33.6435546875 482.970703125 39.8994140625 c 0
 482.612304688 41.5869140625 482.421875 49.869140625 482.421875 63.703125 c 2
 482.421875 84.919921875 l 1
 473.999023438 84.96484375 l 2
 469.366210938 84.9892578125 458.984375 85.1591796875 450.927734375 85.3427734375 c 0
 436.541992188 85.669921875 436.231445312 85.6982421875 433.59375 86.9345703125 c 0
 430.205078125 88.5224609375 428.416015625 90.30859375 426.807617188 93.708984375 c 0
 425.668945312 96.1162109375 425.537109375 96.9755859375 425.537109375 102.009765625 c 0
 425.537109375 107.043945312 425.668945312 107.90234375 426.807617188 110.310546875 c 0
 428.413085938 113.705078125 430.19921875 115.491210938 433.59375 117.096679688 c 2
 436.279296875 118.3671875 l 1
 459.329101562 118.51171875 l 1
 482.37890625 118.655273438 l 1
 482.522460938 142.487304688 l 5
 482.666015625 166.319335938 l 1
 484.37890625 169.686523438 l 2
 485.703125 172.291015625 486.626953125 173.413085938 488.452148438 174.634765625 c 0
 491.768554688 176.854492188 494.1171875 177.424804688 500 177.4375 c 0
 506.584960938 177.452148438 509.543945312 176.49609375 512.70703125 173.333007812 c 0
 516.85546875 169.184570312 516.80078125 169.58203125 516.977539062 142.415039062 c 2
 517.1328125 118.611328125 l 1
 539.727539062 118.611328125 l 2
 563.862304688 118.611328125 565.276367188 118.490234375 569.220703125 116.079101562 c 0
 577.208007812 111.197265625 577.120117188 92.8115234375 569.0859375 87.845703125 c 0
 565.383789062 85.5576171875 563.719726562 85.419921875 539.6953125 85.4140625 c 2
 517.134765625 85.408203125 l 1
 516.967773438 62.5810546875 l 2
 516.787109375 37.9072265625 516.791015625 37.943359375 514.025390625 33.8115234375 c 0
 512.821289062 32.013671875 511.681640625 31.0693359375 509.178710938 29.796875 c 0
 506.23046875 28.2978515625 505.431640625 28.1171875 501.122070312 27.97265625 c 0
 498.247070312 27.876953125 495.36328125 28.06640625 493.896484375 28.447265625 c 2
 493.896484375 28.447265625 l 1
507.517578125 334.943359375 m 0
 512.145507812 335.586914062 517.521484375 337.3984375 520.522460938 339.323242188 c 0
 523.37109375 341.151367188 527.224609375 345.173828125 528.932617188 348.103515625 c 0
 533.544921875 356.012695312 534.509765625 371.98046875 530.999023438 382.302734375 c 0
 529.493164062 386.729492188 527.551757812 389.784179688 524.278320312 392.876953125 c 0
 520.830078125 396.134765625 518.1484375 397.612304688 512.939453125 399.124023438 c 0
 502.112304688 402.266601562 487.106445312 400.840820312 479.477539062 395.9453125 c 0
 476.603515625 394.1015625 472.750976562 390.067382812 471.092773438 387.166015625 c 0
 465.159179688 376.78125 465.456054688 356.825195312 471.689453125 347.112304688 c 0
 473.533203125 344.23828125 477.567382812 340.385742188 480.46875 338.727539062 c 0
 486.833007812 335.090820312 497.672851562 333.57421875 507.517578125 334.943359375 c 0
EndSplineSet
EndChar

StartChar: f
Encoding: 102 102 10
Width: 1000
Flags: H
LayerCount: 2
Fore
SplineSet
359.1796875 -465.844726562 m 0
 361.377929688 -462.012695312 375.07421875 -446.935546875 394.64453125 -426.8046875 c 0
 437.080078125 -383.153320312 456.989257812 -362.336914062 461.096679688 -357.32421875 c 0
 472.3828125 -343.551757812 481.985351562 -325.829101562 488.556640625 -306.643554688 c 0
 495.772460938 -285.578125 498.571289062 -269.303710938 498.126953125 -251.006835938 c 2
 498.046875 -247.717773438 l 1
 494.018554688 -250.813476562 l 2
 483.09375 -259.209960938 468.264648438 -267.772460938 457.275390625 -272.028320312 c 0
 431.568359375 -281.984375 425.100585938 -284.796875 409.423828125 -292.83984375 c 0
 380.97265625 -307.4375 358.98828125 -322.92578125 339.427734375 -342.15234375 c 0
 326.721679688 -354.641601562 317.728515625 -365.368164062 309.330078125 -378.051757812 c 0
 304.731445312 -384.995117188 301.806640625 -390.163085938 290.520507812 -411.279296875 c 0
 279.6328125 -431.651367188 275.127929688 -438.814453125 269.987304688 -443.923828125 c 0
 263.559570312 -450.314453125 254.955078125 -453.544921875 242.919921875 -454.0859375 c 0
 233.376953125 -454.514648438 226.634765625 -452.9296875 219.0234375 -448.46875 c 0
 214.41015625 -445.764648438 207.731445312 -438.961914062 203.84765625 -433.010742188 c 0
 201.625976562 -429.60546875 200.254882812 -427.94140625 199.8125 -428.111328125 c 0
 199.443359375 -428.252929688 197.413085938 -428.809570312 195.298828125 -429.349609375 c 0
 187.8984375 -431.239257812 179.969726562 -432.359375 172.10546875 -432.627929688 c 2
 164.280273438 -432.89453125 l 1
 158.921875 -430.768554688 l 2
 146.551757812 -425.859375 133.133789062 -418.3671875 126.950195312 -412.916992188 c 0
 116.259765625 -403.493164062 103.470703125 -386.805664062 97.3876953125 -374.342773438 c 0
 91.7158203125 -362.72265625 87.8916015625 -348.040039062 85.640625 -329.239257812 c 0
 84.572265625 -320.3125 84.4130859375 -300.932617188 85.365234375 -295.556640625 c 0
 90.3564453125 -267.3671875 104.991210938 -239.586914062 138.8203125 -194.091796875 c 0
 162.844726562 -161.780273438 173.8203125 -144.71484375 184.575195312 -122.94921875 c 0
 194.20703125 -103.45703125 198.721679688 -88.9912109375 198.735351562 -77.5751953125 c 0
 198.74609375 -68.5390625 200.756835938 -48.08984375 202.452148438 -39.775390625 c 0
 204.309570312 -30.6630859375 208.108398438 -21.8486328125 214.60546875 -11.576171875 c 0
 216.967773438 -7.841796875 220.282226562 -2.587890625 221.971679688 0.09765625 c 0
 227.444335938 8.798828125 242.598632812 27.3388671875 253.986328125 39.265625 c 2
 259.216796875 44.7431640625 l 1
 256.306640625 53.42578125 l 2
 249.08984375 74.9658203125 244.0390625 96.2373046875 241.015625 117.831054688 c 0
 237.771484375 140.9921875 236.681640625 167.032226562 238.091796875 187.6953125 c 2
 238.365234375 191.700195312 l 1
 242.83984375 190.077148438 l 2
 267.806640625 181.0234375 297.078125 166.681640625 319.009765625 152.756835938 c 0
 322.456054688 150.569335938 325.369140625 148.779296875 325.484375 148.779296875 c 0
 325.598632812 148.779296875 325.635742188 159.365234375 325.56640625 172.303710938 c 2
 325.439453125 195.828125 l 1
 271.484375 237.395507812 l 1
 217.529296875 278.962890625 l 1
 217.40625 370.609375 l 1
 217.282226562 462.255859375 l 1
 283.934570312 462.255859375 l 1
 350.5859375 462.255859375 l 1
 350.5859375 428.80859375 l 1
 350.5859375 395.361328125 l 1
 392.333984375 395.361328125 l 1
 434.08203125 395.361328125 l 1
 434.08203125 428.80859375 l 1
 434.08203125 462.255859375 l 1
 500.9765625 462.255859375 l 1
 567.87109375 462.255859375 l 1
 567.87109375 428.80859375 l 1
 567.87109375 395.361328125 l 1
 609.375 395.361328125 l 1
 650.87890625 395.361328125 l 1
 650.87890625 428.80859375 l 1
 650.87890625 462.255859375 l 1
 717.774414062 462.255859375 l 1
 784.670898438 462.255859375 l 1
 784.546875 370.61328125 l 1
 784.423828125 278.970703125 l 1
 730.46875 237.40234375 l 1
 676.513671875 195.833007812 l 1
 676.389648438 126.17578125 l 1
 676.266601562 56.5185546875 l 1
 677.366210938 55.8447265625 l 2
 677.971679688 55.474609375 682.3125 52.9052734375 687.01171875 50.134765625 c 0
 723.821289062 28.4384765625 757.07421875 -0.1396484375 784.759765625 -33.8720703125 c 0
 801.135742188 -53.8251953125 819.951171875 -82.0751953125 835.501953125 -110.059570312 c 0
 873.559570312 -178.544921875 896.461914062 -251.349609375 907.450195312 -338.76953125 c 0
 910.532226562 -363.295898438 913.474609375 -407.642578125 915.331054688 -457.543945312 c 2
 915.662109375 -466.455078125 l 1
 887.802734375 -466.455078125 l 1
 859.943359375 -466.455078125 l 1
 859.723632812 -414.819335938 l 2
 859.5859375 -382.784179688 859.29296875 -360.588867188 858.94921875 -356.34765625 c 0
 855.231445312 -310.392578125 849.646484375 -279.553710938 837.240234375 -236.474609375 c 0
 824.615234375 -192.638671875 813.228515625 -162.48828125 797.040039062 -130.029296875 c 0
 785.616210938 -107.125 777.028320312 -92.59765625 763.250976562 -72.8720703125 c 0
 754.732421875 -60.67578125 751.416992188 -56.2255859375 745.5625 -49.126953125 c 0
 704.224609375 0.9912109375 637.954101562 41.626953125 568.115234375 59.6796875 c 0
 558.479492188 62.169921875 540.583007812 65.990234375 540.225585938 65.6318359375 c 0
 540.13671875 65.54296875 540.327148438 64.0546875 540.650390625 62.32421875 c 0
 541.053710938 60.1650390625 541.201171875 53.75 541.12109375 41.845703125 c 0
 541.056640625 32.3115234375 541.171875 23.5537109375 541.377929688 22.3828125 c 2
 541.751953125 20.25390625 l 1
 548.341796875 17.9404296875 l 2
 584.34375 5.3017578125 623.565429688 -13.8203125 649.658203125 -31.4560546875 c 0
 671.473632812 -46.2001953125 683.463867188 -58.1494140625 698.346679688 -79.98046875 c 0
 722.749023438 -115.775390625 743.848632812 -160.975585938 760.272460938 -212.64453125 c 0
 775.5625 -260.74609375 783.96875 -301.038085938 787.577148438 -343.513671875 c 0
 789.10546875 -361.502929688 789.486328125 -374.826171875 789.829101562 -422.143554688 c 2
 790.149414062 -466.455078125 l 1
 574.489257812 -466.455078125 l 2
 402.099609375 -466.455078125 358.899414062 -466.333007812 359.1796875 -465.844726562 c 0
231.201171875 -403.591796875 m 0
 235.137695312 -401.579101562 237.561523438 -398.415039062 241.772460938 -389.794921875 c 0
 245.974609375 -381.19140625 249.887695312 -371.602539062 252.430664062 -363.671875 c 0
 253.716796875 -359.663085938 253.943359375 -358.3203125 253.696289062 -356.168945312 c 0
 252.821289062 -348.540039062 247.723632812 -343.896484375 240.22265625 -343.896484375 c 0
 233.953125 -343.896484375 227.60546875 -350.8671875 219.19921875 -366.981445312 c 0
 215.908203125 -373.291015625 214.854492188 -374.837890625 211.522460938 -378.260742188 c 0
 207.3671875 -382.526367188 206.424804688 -383.985351562 205.53125 -387.534179688 c 0
 204.635742188 -391.091796875 205.6015625 -393.799804688 208.955078125 -397.1328125 c 0
 211.629882812 -399.79296875 216.969726562 -402.978515625 220.93359375 -404.279296875 c 0
 223.65625 -405.173828125 228.778320312 -404.830078125 231.201171875 -403.591796875 c 0
168.676757812 -347.784179688 m 0
 174.467773438 -345.58984375 177.999023438 -340.735351562 178.530273438 -334.239257812 c 0
 178.8671875 -330.1171875 179.814453125 -327.008789062 182.059570312 -322.65625 c 0
 184.338867188 -318.240234375 190.36328125 -312.1328125 195.068359375 -309.469726562 c 0
 199.326171875 -307.059570312 203.235351562 -303.170898438 204.360351562 -300.224609375 c 0
 207.513671875 -291.967773438 199.356445312 -280.607421875 189.072265625 -278.93359375 c 0
 185.559570312 -278.361328125 180.697265625 -279.336914062 176.858398438 -281.3828125 c 0
 169.93359375 -285.073242188 159.56640625 -294.201171875 154.380859375 -301.171875 c 0
 150.840820312 -305.9296875 146.258789062 -315.36328125 144.797851562 -320.899414062 c 0
 141.096679688 -334.91796875 142.34375 -342.759765625 148.899414062 -346.69140625 c 0
 152.452148438 -348.821289062 154.618164062 -349.2578125 160.64453125 -349.055664062 c 0
 164.461914062 -348.928710938 166.513671875 -348.603515625 168.676757812 -347.784179688 c 0
516.926757812 -223.5390625 m 0
 520.208984375 -222.564453125 523.411132812 -220.033203125 525.712890625 -216.594726562 c 0
 526.75390625 -215.041015625 529.162109375 -211.572265625 531.065429688 -208.88671875 c 0
 548.432617188 -184.3828125 558.229492188 -157.462890625 560.54296875 -127.883789062 c 0
 561.59375 -114.450195312 560.985351562 -109.435546875 557.727539062 -104.657226562 c 0
 553.797851562 -98.8955078125 545.979492188 -96.6484375 535.676757812 -98.3203125 c 0
 526.537109375 -99.802734375 523.1171875 -104.009765625 524.424804688 -112.162109375 c 0
 525.263671875 -117.396484375 525.125976562 -132.2890625 524.171875 -139.55078125 c 0
 522.668945312 -150.991210938 520.37890625 -158.015625 513.669921875 -171.77734375 c 0
 507.987304688 -183.432617188 503.186523438 -190.915039062 496.984375 -197.78125 c 0
 493.75 -201.362304688 492.458007812 -204.555664062 492.491210938 -208.88671875 c 0
 492.53125 -214.1015625 495.390625 -217.7890625 501.95703125 -221.095703125 c 0
 508.06640625 -224.172851562 512.40625 -224.880859375 516.926757812 -223.5390625 c 0
262.012695312 -127.633789062 m 0
 265.490234375 -126.0546875 267.37890625 -123.622070312 270.9765625 -116.0859375 c 0
 272.82421875 -112.216796875 274.798828125 -108.399414062 275.366210938 -107.603515625 c 2
 276.396484375 -106.15625 l 1
 278.481445312 -107.563476562 l 2
 286.731445312 -113.131835938 302.830078125 -114.1484375 311.224609375 -109.630859375 c 0
 314.580078125 -107.825195312 318.766601562 -103.53515625 320.629882812 -99.994140625 c 0
 322.6796875 -96.09765625 324.556640625 -89.966796875 325.150390625 -85.232421875 c 0
 325.916015625 -79.12890625 324.647460938 -72.720703125 321.58984375 -67.2509765625 c 2
 320.369140625 -65.0654296875 l 1
 328.275390625 -61.1123046875 l 2
 339.561523438 -55.46875 341.584960938 -53.091796875 341.513671875 -45.556640625 c 0
 341.435546875 -37.3291015625 337.020507812 -30.2392578125 330.615234375 -28.056640625 c 0
 329.703125 -27.7451171875 327.25390625 -27.490234375 325.173828125 -27.490234375 c 0
 320.58203125 -27.490234375 317.123046875 -28.4931640625 308.1640625 -32.4208984375 c 0
 277.048828125 -46.060546875 253.713867188 -69.5048828125 240.415039062 -100.48828125 c 0
 238.5078125 -104.932617188 238.072265625 -106.510742188 237.889648438 -109.62890625 c 0
 237.768554688 -111.706054688 237.928710938 -114.4453125 238.24609375 -115.732421875 c 0
 240.045898438 -123.014648438 247.893554688 -128.48828125 256.591796875 -128.52734375 c 0
 258.911132812 -128.538085938 260.653320312 -128.250976562 262.012695312 -127.633789062 c 0
356.689453125 4.5654296875 m 0
 357.763671875 5.119140625 363.98046875 8.46484375 370.50390625 12.0009765625 c 0
 383.578125 19.0869140625 388.380859375 21.244140625 395.068359375 23.0341796875 c 0
 397.528320312 23.6923828125 399.615234375 24.3056640625 399.70703125 24.3974609375 c 0
 399.798828125 24.4892578125 399.63671875 26.6396484375 399.345703125 29.1767578125 c 0
 398.690429688 34.896484375 399.107421875 50.5537109375 400.092773438 57.2177734375 c 0
 400.489257812 59.8994140625 400.750976562 62.1552734375 400.673828125 62.232421875 c 0
 400.379882812 62.52734375 389.1875 59.4208984375 384.521484375 57.7509765625 c 0
 373.817382812 53.91796875 358.571289062 45.3095703125 349.150390625 37.7802734375 c 0
 347.388671875 36.3720703125 344.790039062 34.48828125 343.375976562 33.5947265625 c 0
 337.752929688 30.0380859375 334.993164062 25.060546875 335.665039062 19.685546875 c 0
 336.360351562 14.119140625 341.21875 6.6591796875 345.775390625 4.1591796875 c 0
 348.025390625 2.923828125 353.9296875 3.14453125 356.689453125 4.5654296875 c 0
642.692382812 200.8828125 m 1
 642.822265625 214.901367188 l 1
 657.194335938 226.151367188 l 1
 671.567382812 237.40234375 l 1
 586.271484375 237.525390625 l 2
 539.359375 237.59375 462.59375 237.59375 415.680664062 237.525390625 c 2
 330.385742188 237.40234375 l 1
 344.7578125 226.151367188 l 1
 359.130859375 214.901367188 l 1
 359.260742188 200.8828125 l 1
 359.389648438 186.865234375 l 1
 500.9765625 186.865234375 l 1
 642.563476562 186.865234375 l 1
 642.692382812 200.8828125 l 1
733.03125 284.19140625 m 1
 750.244140625 297.534179688 l 1
 750.375 308.849609375 l 1
 750.505859375 320.166015625 l 1
 500.732421875 320.166015625 l 1
 250.958984375 320.166015625 l 1
 251.08984375 308.864257812 l 1
 251.220703125 297.5625 l 1
 268.798828125 284.234375 l 1
 286.376953125 270.907226562 l 1
 501.09765625 270.877929688 l 1
 715.819335938 270.849609375 l 1
 733.03125 284.19140625 l 1
EndSplineSet
EndChar

StartChar: d
Encoding: 100 100 11
Width: 1000
Flags: HW
LayerCount: 2
Fore
SplineSet
359.1796875 -452.69921875 m 0
 361.377929688 -448.8671875 375.07421875 -433.790039062 394.64453125 -413.659179688 c 0
 437.080078125 -370.0078125 456.989257812 -349.19140625 461.096679688 -344.178710938 c 0
 472.3828125 -330.405273438 481.985351562 -312.682617188 488.556640625 -293.498046875 c 0
 495.772460938 -272.432617188 498.571289062 -256.158203125 498.126953125 -237.861328125 c 2
 498.046875 -234.571289062 l 1
 494.018554688 -237.66796875 l 2
 483.09375 -246.064453125 468.264648438 -254.626953125 457.275390625 -258.8828125 c 0
 431.568359375 -268.838867188 425.100585938 -271.651367188 409.423828125 -279.694335938 c 0
 380.97265625 -294.291992188 358.98828125 -309.779296875 339.427734375 -329.006835938 c 0
 326.721679688 -341.495117188 317.728515625 -352.221679688 309.330078125 -364.905273438 c 0
 304.731445312 -371.849609375 301.806640625 -377.017578125 290.520507812 -398.133789062 c 0
 279.6328125 -418.505859375 275.127929688 -425.668945312 269.987304688 -430.778320312 c 0
 263.559570312 -437.168945312 254.955078125 -440.399414062 242.919921875 -440.940429688 c 0
 233.376953125 -441.369140625 226.634765625 -439.784179688 219.0234375 -435.323242188 c 0
 214.41015625 -432.619140625 207.731445312 -425.81640625 203.84765625 -419.864257812 c 0
 201.625976562 -416.459960938 200.254882812 -414.795898438 199.8125 -414.965820312 c 0
 199.443359375 -415.106445312 197.413085938 -415.6640625 195.298828125 -416.204101562 c 0
 187.8984375 -418.09375 179.969726562 -419.213867188 172.10546875 -419.481445312 c 2
 164.280273438 -419.748046875 l 1
 158.921875 -417.622070312 l 2
 146.551757812 -412.713867188 133.133789062 -405.221679688 126.950195312 -399.771484375 c 0
 116.259765625 -390.346679688 103.470703125 -373.66015625 97.3876953125 -361.196289062 c 0
 91.7158203125 -349.576171875 87.8916015625 -334.893554688 85.640625 -316.09375 c 0
 84.572265625 -307.166992188 84.4130859375 -287.786132812 85.365234375 -282.411132812 c 0
 90.3564453125 -254.221679688 104.991210938 -226.44140625 138.8203125 -180.9453125 c 0
 162.844726562 -148.633789062 173.8203125 -131.568359375 184.575195312 -109.803710938 c 0
 194.20703125 -90.3115234375 198.721679688 -75.845703125 198.735351562 -64.4296875 c 0
 198.74609375 -55.3935546875 200.756835938 -34.9443359375 202.452148438 -26.62890625 c 0
 204.309570312 -17.517578125 208.108398438 -8.703125 214.60546875 1.5693359375 c 0
 216.967773438 5.3046875 220.282226562 10.5576171875 221.971679688 13.2431640625 c 0
 227.444335938 21.9443359375 242.598632812 40.484375 253.986328125 52.412109375 c 2
 259.216796875 57.888671875 l 1
 256.306640625 66.572265625 l 2
 249.08984375 88.111328125 244.0390625 109.383789062 241.015625 130.9765625 c 0
 237.771484375 154.137695312 236.681640625 180.178710938 238.091796875 200.840820312 c 2
 238.365234375 204.845703125 l 1
 242.83984375 203.22265625 l 2
 267.58203125 194.250976562 296.66796875 180.02734375 318.603515625 166.171875 c 2
 324.462890625 162.470703125 l 1
 324.59375 174.745117188 l 2
 324.693359375 184.1484375 324.579101562 187.163085938 324.10546875 187.634765625 c 0
 323.764648438 187.97265625 299.426757812 206.784179688 270.01953125 229.436523438 c 2
 216.552734375 270.623046875 l 1
 216.4296875 362.26953125 l 1
 216.305664062 453.916992188 l 1
 282.958007812 453.916992188 l 1
 349.609375 453.916992188 l 1
 349.609375 420.469726562 l 1
 349.609375 387.022460938 l 1
 391.357421875 387.022460938 l 1
 433.10546875 387.022460938 l 1
 433.10546875 420.469726562 l 1
 433.10546875 453.916992188 l 1
 500 453.916992188 l 1
 566.89453125 453.916992188 l 1
 566.89453125 420.469726562 l 1
 566.89453125 387.022460938 l 1
 608.3984375 387.022460938 l 1
 649.90234375 387.022460938 l 1
 649.90234375 420.469726562 l 1
 649.90234375 453.916992188 l 1
 716.797851562 453.916992188 l 1
 783.694335938 453.916992188 l 1
 783.5703125 362.274414062 l 1
 783.447265625 270.631835938 l 1
 729.4921875 229.063476562 l 1
 675.537109375 187.495117188 l 1
 675.413085938 128.833984375 l 1
 675.2890625 70.1728515625 l 1
 678.831054688 68.134765625 l 2
 721.620117188 43.5078125 755.069335938 15.4482421875 784.759765625 -20.7265625 c 0
 801.135742188 -40.6796875 819.951171875 -68.9287109375 835.501953125 -96.9140625 c 0
 873.559570312 -165.399414062 896.461914062 -238.204101562 907.450195312 -325.624023438 c 0
 910.532226562 -350.150390625 913.474609375 -394.497070312 915.331054688 -444.3984375 c 2
 915.662109375 -453.309570312 l 1
 887.762695312 -453.309570312 l 2
 869.48828125 -453.309570312 859.86328125 -453.141601562 859.86328125 -452.821289062 c 0
 859.86328125 -452.497070312 783.131835938 -452.333007812 630.64453125 -452.333007812 c 0
 478.358398438 -452.333007812 401.323242188 -452.497070312 401.123046875 -452.821289062 c 0
 400.638671875 -453.604492188 358.729492188 -453.482421875 359.1796875 -452.69921875 c 0
859.720703125 -388.734375 m 2
 859.486328125 -351.504882812 859.3125 -346.438476562 857.641601562 -328.065429688 c 0
 853.997070312 -288.005859375 845.29296875 -247.383789062 830.079101562 -199.4296875 c 0
 815.534179688 -153.581054688 797.4375 -113.274414062 775.810546875 -78.5537109375 c 0
 767.516601562 -65.23828125 753.982421875 -46.1904296875 745.5625 -35.9814453125 c 0
 704.224609375 14.1376953125 637.954101562 54.7734375 568.115234375 72.8251953125 c 0
 558.626953125 75.27734375 540.584960938 79.1376953125 540.236328125 78.7890625 c 0
 540.153320312 78.7060546875 540.506835938 76.0576171875 541.021484375 72.904296875 c 0
 543.463867188 57.931640625 544.716796875 35.4052734375 543.498046875 28.40625 c 0
 541.974609375 19.662109375 537.328125 15.2255859375 529.038085938 14.5986328125 c 0
 522.907226562 14.134765625 517.39453125 15.6923828125 514.5546875 18.69140625 c 0
 511.655273438 21.7529296875 511.252929688 23.5791015625 511.237304688 33.7509765625 c 0
 511.212890625 48.6591796875 510.0546875 59.076171875 507.048828125 71.423828125 c 0
 502.2109375 91.2919921875 493.021484375 109.932617188 480.00390625 126.280273438 c 0
 476.0234375 131.279296875 466.170898438 141.905273438 465.515625 141.905273438 c 0
 463.83203125 141.905273438 451.197265625 126.026367188 445.578125 116.849609375 c 0
 433.9765625 97.8994140625 427.762695312 78.7236328125 425.537109375 55.00390625 c 0
 425.146484375 50.833984375 424.604492188 46.646484375 424.333007812 45.697265625 c 0
 423.470703125 42.677734375 421.1171875 39.53515625 418.6171875 38.06640625 c 0
 416.341796875 36.7294921875 416.029296875 36.6806640625 409.66796875 36.6806640625 c 0
 403.4296875 36.6806640625 402.926757812 36.75390625 400.278320312 38.0546875 c 0
 397.002929688 39.6630859375 394.884765625 42.0322265625 393.560546875 45.56640625 c 0
 392.317382812 48.88671875 391.8359375 53.7509765625 392.509765625 56.1884765625 c 0
 392.80078125 57.2451171875 392.96484375 58.1845703125 392.874023438 58.2763671875 c 0
 392.615234375 58.5341796875 380.866210938 54.1904296875 373.794921875 51.22265625 c 0
 368.275390625 48.90625 360.232421875 44.9990234375 347.443359375 38.421875 c 0
 344.500976562 36.9091796875 343.602539062 36.6806640625 340.607421875 36.6806640625 c 0
 337.7265625 36.6806640625 336.783203125 36.9013671875 334.879882812 38.01953125 c 0
 330.091796875 40.8349609375 325.706054688 47.9677734375 325.303710938 53.5966796875 c 0
 325.096679688 56.4892578125 325.234375 57.2578125 326.37890625 59.59765625 c 0
 327.100585938 61.0732421875 328.685546875 63.15625 329.901367188 64.2255859375 c 0
 331.727539062 65.8330078125 353.095703125 77.2333984375 364.868164062 82.8818359375 c 0
 366.143554688 83.4931640625 367.1875 84.20703125 367.1875 84.466796875 c 0
 367.1875 84.9931640625 356.145507812 95.6728515625 349.365234375 101.703125 c 0
 328.91015625 119.897460938 304.1328125 136.944335938 279.418945312 149.827148438 c 0
 274.81640625 152.2265625 271.97265625 153.459960938 271.973632812 153.055664062 c 0
 271.973632812 152.697265625 272.313476562 149.436523438 272.727539062 145.811523438 c 0
 277.606445312 103.168945312 289.033203125 64.7880859375 307.908203125 27.6474609375 c 0
 312.763671875 18.09375 313.306640625 15.611328125 311.555664062 10.9736328125 c 0
 309.076171875 4.4072265625 300.747070312 -1.69921875 294.198242188 -1.7509765625 c 0
 287.744140625 -1.802734375 283.497070312 2.6064453125 275.66796875 17.484375 c 2
 272.423828125 23.6494140625 l 1
 267.768554688 18.8525390625 l 2
 260.998046875 11.875 257.950195312 7.87109375 252.532226562 -1.1611328125 c 0
 242.385742188 -18.0771484375 235.04296875 -32.8251953125 232.717773438 -40.95703125 c 0
 230.57421875 -48.453125 230.396484375 -51.0634765625 231.266601562 -62.298828125 c 2
 232.049804688 -72.41015625 l 1
 230.795898438 -78.65625 l 2
 227.251953125 -96.298828125 221.076171875 -111.833984375 210.93359375 -128.6171875 c 0
 195.638671875 -153.926757812 164.7265625 -201.614257812 139.5234375 -238.783203125 c 0
 129.551757812 -253.489257812 124.256835938 -265.70703125 119.453125 -285.096679688 c 0
 117.612304688 -292.528320312 117.1875 -296.270507812 117.1875 -305.0625 c 0
 117.1875 -317.381835938 118.96484375 -328.873046875 122.39453125 -338.725585938 c 0
 126.493164062 -350.500976562 131.40234375 -357.568359375 142.290039062 -367.369140625 c 0
 149.331054688 -373.706054688 154.086914062 -377.05078125 160.403320312 -380.106445312 c 0
 167.620117188 -383.59765625 172.518554688 -384.629882812 180.419921875 -384.322265625 c 0
 187.26171875 -384.055664062 189.513671875 -383.5390625 196.2890625 -380.676757812 c 0
 207.307617188 -376.021484375 212.326171875 -370.640625 218.666992188 -356.685546875 c 0
 223.736328125 -345.526367188 229.760742188 -336.176757812 234.109375 -332.721679688 c 0
 236.395507812 -330.904296875 238.7421875 -330.44140625 242.094726562 -331.14453125 c 0
 247.217773438 -332.21875 249.817382812 -334.865234375 251.247070312 -340.461914062 c 0
 252.303710938 -344.59765625 252.07421875 -345.822265625 247.974609375 -357.936523438 c 0
 242.977539062 -372.701171875 238.228515625 -381.623046875 228.288085938 -394.924804688 c 2
 224.1171875 -400.504882812 l 1
 225.387695312 -404.080078125 l 2
 226.864257812 -408.236328125 228.458984375 -411.151367188 230.573242188 -413.55859375 c 0
 235.12109375 -418.73828125 241.374023438 -417.799804688 248.703125 -410.837890625 c 0
 253.537109375 -406.24609375 255.799804688 -402.612304688 264.063476562 -386.170898438 c 0
 279.940429688 -354.583984375 294.48828125 -331.5625 309.01953125 -315.032226562 c 0
 319.146484375 -303.51171875 342.974609375 -282.577148438 358.213867188 -271.8125 c 0
 379.36328125 -256.873046875 390.131835938 -250.860351562 411.704101562 -241.942382812 c 0
 429.096679688 -234.752929688 447.7109375 -226.215820312 455.810546875 -221.711914062 c 0
 482.379882812 -206.938476562 502.916015625 -184.361328125 515.7890625 -155.770507812 c 0
 520.814453125 -144.609375 523.1796875 -136.25 524.442382812 -125.184570312 c 0
 525.130859375 -119.150390625 525.158203125 -102.86328125 524.486328125 -98.880859375 c 0
 522.993164062 -90.03125 527.889648438 -85.392578125 539.365234375 -84.78515625 c 0
 543.559570312 -84.5634765625 544.842773438 -84.6865234375 547.854492188 -85.6005859375 c 0
 550.798828125 -86.49609375 551.833984375 -87.1103515625 553.946289062 -89.22265625 c 0
 558.67578125 -93.953125 559.682617188 -99.1875 558.620117188 -113.517578125 c 0
 557.595703125 -127.325195312 555.588867188 -138.631835938 551.911132812 -151.307617188 c 0
 547.508789062 -166.477539062 539.000976562 -184.686523438 530.1796875 -197.817382812 c 2
 527.801757812 -201.358398438 l 1
 529.021484375 -205.385742188 l 2
 534.920898438 -224.859375 536.3046875 -250.42578125 532.671875 -272.827148438 c 0
 529.490234375 -292.442382812 519.671875 -320.577148438 509.645507812 -338.807617188 c 0
 498.33984375 -359.36328125 477.787109375 -382.258789062 448.2421875 -407.208984375 c 0
 439.329101562 -414.735351562 428.16015625 -424.620117188 426.560546875 -426.397460938 c 2
 425.629882812 -427.430664062 l 1
 642.796875 -427.430664062 l 1
 859.963867188 -427.430664062 l 1
 859.720703125 -388.734375 l 2
153.3828125 -325.06640625 m 0
 152.208984375 -324.634765625 150.4140625 -323.422851562 149.39453125 -322.372070312 c 0
 145.75 -318.616210938 144.826171875 -312.844726562 146.400390625 -303.651367188 c 0
 149.470703125 -285.723632812 157.961914062 -272.150390625 173.20703125 -260.805664062 c 0
 178.950195312 -256.53125 181.353515625 -255.459960938 185.306640625 -255.411132812 c 0
 191.162109375 -255.33984375 197.450195312 -259.899414062 200.755859375 -266.614257812 c 0
 202.116210938 -269.376953125 202.389648438 -270.477539062 202.375976562 -273.124023438 c 0
 202.365234375 -275.23046875 202.0625 -276.86328125 201.48046875 -277.950195312 c 0
 200.180664062 -280.376953125 196.90234375 -283.754882812 193.801757812 -285.860351562 c 0
 189.504882812 -288.778320312 185.768554688 -292.444335938 183.286132812 -296.178710938 c 0
 180.513671875 -300.348632812 178.23828125 -306.599609375 178.229492188 -310.069335938 c 0
 178.220703125 -313.481445312 176.618164062 -318.401367188 174.801757812 -320.59765625 c 0
 173.951171875 -321.625976562 171.916015625 -323.08984375 170.086914062 -323.990234375 c 0
 167.095703125 -325.462890625 166.465820312 -325.584960938 161.192382812 -325.712890625 c 0
 156.920898438 -325.815429688 154.989257812 -325.65625 153.3828125 -325.06640625 c 0
270.15234375 -114.440429688 m 0
 266.608398438 -113.1796875 262.516601562 -110.353515625 260.740234375 -107.938476562 c 0
 257.368164062 -103.352539062 256.833984375 -96.44140625 259.34765625 -89.921875 c 0
 261.438476562 -84.5 266.719726562 -74.197265625 270.37890625 -68.4033203125 c 0
 281.775390625 -50.35546875 297.458984375 -35.626953125 316.708984375 -24.8935546875 c 0
 322.520507812 -21.654296875 333.31640625 -16.8427734375 338.064453125 -15.3779296875 c 0
 342.817382812 -13.9111328125 348.521484375 -13.9609375 351.825195312 -15.5 c 0
 357.143554688 -17.9765625 360.811523438 -24.435546875 361.21875 -32.0400390625 c 0
 361.426757812 -35.9296875 361.331054688 -36.544921875 360.141601562 -38.9755859375 c 0
 359.423828125 -40.443359375 358.151367188 -42.220703125 357.3125 -42.92578125 c 0
 356.474609375 -43.6318359375 352.34765625 -45.931640625 348.140625 -48.0380859375 c 2
 340.493164062 -51.8681640625 l 1
 342.280273438 -55.53125 l 2
 345.600585938 -62.3388671875 346.219726562 -69.015625 344.280273438 -77.0888671875 c 0
 342.171875 -85.865234375 337.7578125 -92.6240234375 331.86328125 -96.1005859375 c 0
 323.51953125 -101.022460938 307.055664062 -100.19140625 298.500976562 -94.41796875 c 2
 296.416015625 -93.0107421875 l 1
 295.385742188 -94.4580078125 l 2
 294.818359375 -95.25390625 292.84375 -99.0712890625 290.99609375 -102.940429688 c 0
 287.3984375 -110.4765625 285.509765625 -112.908203125 282.032226562 -114.48828125 c 0
 279.36328125 -115.700195312 273.631835938 -115.676757812 270.15234375 -114.440429688 c 0
641.6015625 137.022460938 m 2
 641.6015625 187.315429688 l 1
 500 187.315429688 l 1
 358.3984375 187.315429688 l 1
 358.3984375 162.470703125 l 1
 358.3984375 137.625976562 l 1
 365.112304688 131.788085938 l 2
 373.94140625 124.110351562 384.232421875 114.217773438 393.5546875 104.446289062 c 0
 397.708984375 100.091796875 401.249023438 96.6865234375 401.420898438 96.8779296875 c 0
 401.592773438 97.0703125 402.450195312 99.4248046875 403.326171875 102.110351562 c 0
 413.727539062 133.998046875 433.447265625 161.513671875 460.83984375 182.359375 c 2
 464.893554688 185.444335938 l 1
 469.544921875 181.948242188 l 2
 491.374023438 165.540039062 509.223632812 144.946289062 522.94921875 120.3359375 c 2
 526.944335938 113.171875 l 1
 530.684570312 112.86328125 l 2
 565.973632812 109.951171875 596.633789062 103.396484375 626.719726562 92.330078125 c 0
 632.096679688 90.3525390625 637.479492188 88.2880859375 638.682617188 87.7431640625 c 0
 639.884765625 87.197265625 641.034179688 86.74609375 641.235351562 86.740234375 c 0
 641.436523438 86.734375 641.6015625 109.361328125 641.6015625 137.022460938 c 2
689.537109375 245.54296875 m 1
 720.379882812 270.567382812 l 1
 610.190429688 270.690429688 l 2
 549.5859375 270.7578125 450.413085938 270.7578125 389.806640625 270.690429688 c 2
 279.61328125 270.567382812 l 1
 310.583007812 245.579101562 l 1
 341.552734375 220.58984375 l 1
 500.123046875 220.5546875 l 1
 658.693359375 220.518554688 l 1
 689.537109375 245.54296875 l 1
750 362.364257812 m 1
 750 420.713867188 l 1
 716.552734375 420.713867188 l 1
 683.10546875 420.713867188 l 1
 683.10546875 387.266601562 l 1
 683.10546875 353.819335938 l 1
 607.91015625 353.819335938 l 1
 532.71484375 353.819335938 l 1
 532.71484375 387.266601562 l 1
 532.71484375 420.713867188 l 1
 499.755859375 420.713867188 l 1
 466.796875 420.713867188 l 1
 466.796875 387.266601562 l 1
 466.796875 353.819335938 l 1
 391.845703125 353.819335938 l 1
 316.89453125 353.819335938 l 1
 316.89453125 387.266601562 l 1
 316.89453125 420.713867188 l 1
 283.447265625 420.713867188 l 1
 250 420.713867188 l 1
 250 362.364257812 l 1
 250 304.014648438 l 1
 500 304.014648438 l 1
 750 304.014648438 l 1
 750 362.364257812 l 1
EndSplineSet
EndChar

StartChar: k
Encoding: 107 107 12
Width: 1000
Flags: H
LayerCount: 2
Fore
SplineSet
466.796875 -394.063476562 m 4
 403.93359375 -392.526367188 354.268554688 -388.243164062 305.908203125 -380.189453125 c 4
 268.453125 -373.952148438 238.043945312 -366.057617188 218.26171875 -357.434570312 c 4
 208.165039062 -353.033203125 202.4609375 -349.583007812 195.163085938 -343.462890625 c 6
 193.793945312 -342.313476562 l 5
 209.931640625 -282.673828125 l 5
 226.069335938 -223.034179688 l 5
 218.0703125 -177.732421875 l 6
 211.637695312 -141.307617188 209.857421875 -132.068359375 208.981445312 -130.583984375 c 4
 207.600585938 -128.244140625 203.495117188 -125.356445312 196.044921875 -121.486328125 c 4
 185.595703125 -116.057617188 180.63671875 -112.403320312 161.584960938 -96.0888671875 c 4
 137.948242188 -75.8486328125 126.009765625 -64.39453125 117.522460938 -53.8134765625 c 4
 97.54296875 -28.904296875 85.55078125 0.5869140625 81.0927734375 35.7802734375 c 4
 78.8896484375 53.1748046875 78.658203125 66.111328125 80.3427734375 77.701171875 c 4
 83.4345703125 98.96875 92.40234375 119.95703125 107.723632812 141.787109375 c 4
 117.025390625 155.038085938 131.831054688 171.2109375 142.57421875 179.852539062 c 4
 166.268554688 198.913085938 193.720703125 210.098632812 227.05078125 214.2734375 c 4
 235.395507812 215.318359375 259.821289062 215.765625 267.916992188 215.022460938 c 4
 291.114257812 212.891601562 325.744140625 204.8203125 344.3359375 197.2109375 c 4
 347.908203125 195.749023438 356.103515625 192.5390625 362.548828125 190.076171875 c 4
 395.993164062 177.299804688 398.421875 176.270507812 406.150390625 171.59765625 c 4
 408.91015625 169.928710938 410.12109375 169.409179688 409.94921875 169.96875 c 4
 409.081054688 172.807617188 408.111328125 180.590820312 407.870117188 186.659179688 c 4
 407.272460938 201.71875 410.0703125 215.647460938 416.298828125 228.627929688 c 4
 419.504882812 235.30859375 421.896484375 239.200195312 426.212890625 244.764648438 c 4
 448.884765625 273.985351562 483.760742188 287.102539062 519.611328125 279.891601562 c 4
 546.525390625 274.478515625 571.490234375 254.26171875 583.762695312 227.939453125 c 4
 588.849609375 217.029296875 591.806640625 203.202148438 591.791992188 190.391601562 c 4
 591.787109375 186.162109375 590.686523438 173.833007812 590.05078125 170.890625 c 6
 589.756835938 169.526367188 l 5
 592.97265625 171.495117188 l 6
 601.538085938 176.737304688 619.096679688 184.067382812 652.34375 196.279296875 c 4
 685.298828125 208.383789062 714.412109375 214.9140625 739.74609375 215.883789062 c 4
 786.33984375 217.66796875 824.3515625 206.46875 855.46875 181.791992188 c 4
 866.280273438 173.217773438 881.712890625 156.334960938 891.2421875 142.65625 c 4
 906.411132812 120.8828125 915.080078125 100.965820312 919.00390625 78.8740234375 c 4
 920.306640625 71.537109375 920.787109375 55.130859375 919.961914062 46.1787109375 c 4
 917.668945312 21.330078125 911.682617188 -1.2431640625 902.0859375 -21.22265625 c 4
 891.375 -43.5224609375 879.295898438 -58.890625 855.95703125 -79.9150390625 c 4
 827.860351562 -105.224609375 816.65234375 -113.96484375 803.403320312 -120.897460938 c 4
 796.46875 -124.526367188 793.276367188 -126.819335938 791.415039062 -129.508789062 c 4
 790.155273438 -131.330078125 789.563476562 -134.428710938 782.2421875 -177.481445312 c 6
 774.415039062 -223.5078125 l 5
 790.5 -283.681640625 l 5
 806.583984375 -343.85546875 l 5
 805.513671875 -345.001953125 l 6
 802.502929688 -348.224609375 790.57421875 -355.04296875 781.25 -358.870117188 c 4
 740.151367188 -375.739257812 662.747070312 -388.435546875 575.1953125 -392.666992188 c 4
 544.55078125 -394.1484375 495.91015625 -394.775390625 466.796875 -394.063476562 c 4
554.6875 -360.234375 m 4
 643.483398438 -356.3984375 714.375 -345.521484375 759.399414062 -328.82421875 c 4
 763.091796875 -327.454101562 766.11328125 -326.200195312 766.11328125 -326.037109375 c 4
 766.11328125 -325.873046875 762.982421875 -324.573242188 759.155273438 -323.1484375 c 4
 693.096679688 -298.545898438 602.87109375 -286.900390625 487.79296875 -288.124023438 c 4
 458.869140625 -288.431640625 446.5390625 -288.823242188 423.583984375 -290.162109375 c 4
 354.891601562 -294.16796875 299.309570312 -303.711914062 254.638671875 -319.169921875 c 4
 246.8515625 -321.864257812 234.86328125 -326.647460938 234.86328125 -327.05859375 c 4
 234.86328125 -327.239257812 235.248046875 -327.504882812 235.717773438 -327.6484375 c 4
 236.1875 -327.791992188 239.755859375 -329.041015625 243.646484375 -330.422851562 c 4
 295.331054688 -348.779296875 366.831054688 -358.608398438 465.33203125 -360.896484375 c 4
 478.815429688 -361.209960938 543.14453125 -360.733398438 554.6875 -360.234375 c 4
253.248046875 -278.4765625 m 4
 291.005859375 -268.075195312 340.220703125 -260.525390625 395.01953125 -256.727539062 c 4
 426.40625 -254.552734375 446.984375 -253.811523438 486.083984375 -253.448242188 c 4
 582.413085938 -252.5546875 662.947265625 -259.041992188 724.12109375 -272.625 c 4
 733.869140625 -274.7890625 746.315429688 -277.888671875 751.198242188 -279.369140625 c 4
 752.528320312 -279.772460938 753.66796875 -280.049804688 753.731445312 -279.987304688 c 4
 753.907226562 -279.811523438 739.397460938 -224.450195312 739.096679688 -224.149414062 c 4
 738.2734375 -223.326171875 708.055664062 -217.645507812 690.185546875 -214.954101562 c 4
 638.116210938 -207.11328125 584.90234375 -203.369140625 515.625 -202.672851562 c 4
 429.625 -201.80859375 355.576171875 -206.856445312 292.236328125 -217.901367188 c 4
 278.70703125 -220.260742188 261.87109375 -223.669921875 261.393554688 -224.1484375 c 4
 261.234375 -224.306640625 257.724609375 -236.6953125 253.592773438 -251.676757812 c 4
 249.4609375 -266.659179688 245.948242188 -279.334960938 245.787109375 -279.845703125 c 4
 245.567382812 -280.538085938 245.681640625 -280.701171875 246.234375 -280.489257812 c 4
 246.641601562 -280.333007812 249.797851562 -279.427734375 253.248046875 -278.4765625 c 4
265.869140625 -190.828125 m 4
 329.499023438 -176.075195312 414.521484375 -169.017578125 517.333984375 -169.954101562 c 4
 582.564453125 -170.548828125 631.352539062 -173.607421875 678.921875 -180.0859375 c 4
 698.477539062 -182.749023438 725.778320312 -187.69140625 740.4765625 -191.23046875 c 4
 742.624023438 -191.747070312 744.446289062 -192.104492188 744.526367188 -192.0234375 c 4
 744.8125 -191.73828125 756.78125 -120.740234375 756.577148438 -120.537109375 c 4
 756.112304688 -120.072265625 736.271484375 -115.419921875 725.09765625 -113.15625 c 4
 659.698242188 -99.90625 580.604492188 -93.884765625 483.642578125 -94.7744140625 c 4
 465.112304688 -94.9453125 449.291992188 -95.1767578125 448.486328125 -95.2900390625 c 4
 447.680664062 -95.404296875 442.297851562 -95.630859375 436.5234375 -95.794921875 c 4
 379.428710938 -97.41796875 316.743164062 -104.40234375 271.728515625 -114.155273438 c 4
 262.563476562 -116.141601562 244.943359375 -120.461914062 244.241210938 -120.895507812 c 4
 243.833984375 -121.147460938 245.358398438 -131.142578125 249.764648438 -157.111328125 c 4
 253.111328125 -176.838867188 255.8515625 -193.049804688 255.854492188 -193.134765625 c 4
 255.857421875 -193.219726562 256.244140625 -193.168945312 256.713867188 -193.021484375 c 4
 257.18359375 -192.874023438 261.303710938 -191.88671875 265.869140625 -190.828125 c 4
223.668945312 -93.3447265625 m 4
 278.760742188 -74.4140625 356.76171875 -64.341796875 469.604492188 -61.5888671875 c 6
 482.91015625 -61.263671875 l 5
 482.91015625 -59.7392578125 l 6
 482.909179688 -56.4912109375 481.901367188 -32.3994140625 481.426757812 -24.2783203125 c 4
 480.396484375 -6.6630859375 476.962890625 10.3623046875 470.849609375 28.1728515625 c 4
 457.877929688 65.962890625 440.111328125 96.2392578125 416.994140625 119.947265625 c 4
 413.098632812 123.94140625 408.154296875 128.623046875 406.005859375 130.349609375 c 4
 377.323242188 153.3984375 325.19921875 174.034179688 281.73828125 179.544921875 c 4
 250.563476562 183.499023438 220.086914062 180.518554688 196.2890625 171.190429688 c 4
 172.751953125 161.963867188 154.548828125 146.891601562 139.196289062 123.915039062 c 4
 126.022460938 104.200195312 119.62890625 80.9072265625 119.62890625 52.6259765625 c 4
 119.62890625 17.9697265625 129.03125 -9.7724609375 148.341796875 -32.0908203125 c 4
 154.6015625 -39.326171875 167.927734375 -52.3798828125 176.025390625 -59.208984375 c 4
 181.106445312 -63.494140625 219.364257812 -94.255859375 220.006835938 -94.5732421875 c 4
 220.02734375 -94.5830078125 221.67578125 -94.0302734375 223.668945312 -93.3447265625 c 4
800.224609375 -77.8046875 m 4
 826.020507812 -57.1259765625 832.806640625 -51.2666015625 842.775390625 -41.068359375 c 4
 855.734375 -27.8095703125 862.282226562 -19.05859375 867.9453125 -7.4326171875 c 4
 876.6796875 10.5 880.913085938 32.9072265625 880.21484375 57.5087890625 c 4
 879.4453125 84.6181640625 873.424804688 105.3984375 860.890625 124.209960938 c 4
 855.034179688 132.998046875 851.016601562 137.926757812 844.01171875 144.913085938 c 4
 824.072265625 164.799804688 799.016601562 176.206054688 766.6015625 180.15234375 c 4
 756.815429688 181.34375 732.897460938 181.33984375 722.16796875 180.145507812 c 4
 691.200195312 176.697265625 660.616210938 167.73828125 631.103515625 153.469726562 c 4
 609.51171875 143.030273438 595.870117188 133.65625 582.962890625 120.38671875 c 4
 560.28125 97.0693359375 541.731445312 65.6083984375 529.489257812 29.6953125 c 4
 520.102539062 2.1591796875 517.620117188 -13.00390625 516.770507812 -47.9833984375 c 6
 516.448242188 -61.2529296875 l 5
 530.319335938 -61.5810546875 l 6
 630.536132812 -63.953125 715.489257812 -74.412109375 770.751953125 -91.181640625 c 4
 775.317382812 -92.5673828125 779.14453125 -93.791015625 779.255859375 -93.9013671875 c 4
 779.368164062 -94.0126953125 779.557617188 -94.1025390625 779.676757812 -94.1025390625 c 4
 779.795898438 -94.1025390625 789.04296875 -86.7685546875 800.224609375 -77.8046875 c 4
501.162109375 33.94921875 m 4
 501.65234375 35.896484375 503.22265625 41.1142578125 504.65234375 45.5458984375 c 4
 506.08203125 49.9765625 508.37109375 57.1630859375 509.739257812 61.5146484375 c 4
 511.107421875 65.8671875 513.231445312 71.7998046875 514.458984375 74.6982421875 c 4
 515.686523438 77.59765625 517.639648438 82.302734375 518.798828125 85.154296875 c 4
 519.958007812 88.0068359375 523.48046875 95.5869140625 526.627929688 102 c 4
 533.681640625 116.375 539.40234375 128.854492188 542.485351562 136.592773438 c 4
 547.895507812 150.172851562 556.612304688 174.4921875 557.3671875 178.114257812 c 4
 559.190429688 186.860351562 558.811523438 197.508789062 556.374023438 206.033203125 c 4
 553.712890625 215.342773438 549.127929688 222.973632812 541.748046875 230.375 c 4
 532.970703125 239.1796875 524.180664062 243.971679688 511.9921875 246.596679688 c 4
 506.509765625 247.77734375 491.46484375 247.744140625 484.619140625 246.53515625 c 4
 472.771484375 244.443359375 463.47265625 239.975585938 456.54296875 233.045898438 c 4
 447.248046875 223.750976562 442.721679688 211.309570312 442.063476562 193.250976562 c 4
 441.684570312 182.856445312 442.4609375 178.4140625 446.9609375 165.247070312 c 4
 456.53125 137.243164062 460.66015625 127.372070312 476.708007812 94.1298828125 c 4
 485.38671875 76.1533203125 486.045898438 74.376953125 496.40234375 41.029296875 c 4
 498.216796875 35.1884765625 499.829101562 30.4091796875 499.986328125 30.4091796875 c 4
 500.143554688 30.4091796875 500.672851562 32.001953125 501.162109375 33.94921875 c 4
482.421875 315.321289062 m 5
 482.421875 347.303710938 l 5
 460.551757812 347.303710938 l 6
 436.649414062 347.303710938 434.791015625 347.48046875 430.961914062 350.125 c 4
 427.2421875 352.6953125 425.3046875 357.330078125 425.3046875 363.661132812 c 4
 425.3046875 370.046875 427.170898438 374.517578125 430.912109375 377.091796875 c 4
 434.946289062 379.8671875 436.48046875 380.018554688 460.530273438 380.018554688 c 6
 482.377929688 380.018554688 l 5
 482.522460938 403.627929688 l 5
 482.666015625 427.23828125 l 5
 484.37890625 430.60546875 l 6
 485.703125 433.209960938 486.626953125 434.33203125 488.452148438 435.553710938 c 4
 491.768554688 437.774414062 494.1171875 438.34375 500 438.356445312 c 4
 506.584960938 438.37109375 509.543945312 437.415039062 512.70703125 434.251953125 c 4
 516.850585938 430.109375 516.799804688 430.467773438 516.977539062 403.599609375 c 6
 517.133789062 380.061523438 l 5
 540.915039062 379.91796875 l 6
 563.859375 379.779296875 564.774414062 379.73828125 566.89453125 378.752929688 c 4
 570.168945312 377.23046875 572.059570312 375.408203125 573.583007812 372.305664062 c 4
 574.852539062 369.721679688 574.951171875 369.09375 574.951171875 363.626953125 c 4
 574.951171875 358.03515625 574.875976562 357.584960938 573.481445312 354.858398438 c 4
 571.873046875 351.713867188 569.02734375 349.182617188 566.02734375 348.229492188 c 4
 564.239257812 347.661132812 543.911132812 346.967773438 526.000976562 346.864257812 c 6
 517.578125 346.815429688 l 5
 517.578125 337.862304688 l 6
 517.578125 332.938476562 517.432617188 318.65625 517.25390625 306.124023438 c 6
 516.930664062 283.338867188 l 5
 499.67578125 283.338867188 l 5
 482.421875 283.338867188 l 5
 482.421875 315.321289062 l 5
EndSplineSet
EndChar

StartChar: n
Encoding: 110 110 13
Width: 1000
Flags: H
LayerCount: 2
Fore
SplineSet
314.259765625 -385.87109375 m 6
 312.196289062 -382.650390625 311.388671875 -371.18359375 312.032226562 -354.24609375 c 4
 312.88671875 -331.7421875 314.811523438 -320.665039062 321.615234375 -299.107421875 c 4
 327.123046875 -281.657226562 335.197265625 -263.512695312 347.2109375 -241.586914062 c 4
 356.1953125 -225.192382812 363.998046875 -215.7578125 394.64453125 -184.232421875 c 4
 437.080078125 -140.581054688 456.989257812 -119.765625 461.096679688 -114.752929688 c 4
 472.3828125 -100.979492188 481.985351562 -83.2568359375 488.556640625 -64.0712890625 c 4
 495.772460938 -43.005859375 498.571289062 -26.732421875 498.126953125 -8.435546875 c 6
 498.046875 -5.1455078125 l 5
 494.018554688 -8.2412109375 l 6
 483.09375 -16.6376953125 468.264648438 -25.2001953125 457.275390625 -29.4560546875 c 4
 431.568359375 -39.412109375 425.100585938 -42.2255859375 409.423828125 -50.2685546875 c 4
 380.97265625 -64.865234375 358.98828125 -80.353515625 339.427734375 -99.580078125 c 4
 326.721679688 -112.069335938 317.728515625 -122.795898438 309.330078125 -135.479492188 c 4
 304.731445312 -142.422851562 301.806640625 -147.591796875 290.520507812 -168.708007812 c 4
 279.6328125 -189.079101562 275.127929688 -196.2421875 269.987304688 -201.3515625 c 4
 263.559570312 -207.743164062 254.955078125 -210.97265625 242.919921875 -211.513671875 c 4
 233.376953125 -211.942382812 226.634765625 -210.357421875 219.0234375 -205.896484375 c 4
 214.41015625 -203.192382812 207.731445312 -196.389648438 203.84765625 -190.438476562 c 4
 201.625976562 -187.034179688 200.254882812 -185.369140625 199.8125 -185.5390625 c 4
 199.443359375 -185.680664062 197.413085938 -186.23828125 195.298828125 -186.77734375 c 4
 187.8984375 -188.666992188 179.969726562 -189.788085938 172.10546875 -190.055664062 c 6
 164.280273438 -190.322265625 l 5
 158.921875 -188.196289062 l 6
 146.551757812 -183.287109375 133.133789062 -175.794921875 126.950195312 -170.344726562 c 4
 116.259765625 -160.920898438 103.470703125 -144.234375 97.3876953125 -131.770507812 c 4
 91.7158203125 -120.150390625 87.8916015625 -105.467773438 85.640625 -86.6669921875 c 4
 84.572265625 -77.740234375 84.4130859375 -58.3603515625 85.365234375 -52.9853515625 c 4
 90.3564453125 -24.7958984375 104.991210938 2.984375 138.8203125 48.48046875 c 4
 162.844726562 80.7919921875 173.8203125 97.857421875 184.575195312 119.622070312 c 4
 194.20703125 139.115234375 198.721679688 153.581054688 198.735351562 164.997070312 c 4
 198.74609375 174.032226562 200.756835938 194.481445312 202.452148438 202.796875 c 4
 204.309570312 211.908203125 208.108398438 220.72265625 214.60546875 230.995117188 c 4
 216.967773438 234.73046875 220.282226562 239.983398438 221.971679688 242.668945312 c 4
 227.444335938 251.370117188 242.598632812 269.911132812 253.986328125 281.837890625 c 6
 259.216796875 287.315429688 l 5
 256.306640625 295.998046875 l 6
 249.08984375 317.537109375 244.0390625 338.809570312 241.015625 360.40234375 c 4
 237.771484375 383.563476562 236.681640625 409.604492188 238.091796875 430.267578125 c 6
 238.365234375 434.271484375 l 5
 242.83984375 432.649414062 l 6
 260.918945312 426.09375 284.201171875 415.423828125 301.2109375 405.8984375 c 4
 336.118164062 386.3515625 364.87890625 363.91796875 393.551757812 333.873046875 c 4
 397.708007812 329.518554688 401.249023438 326.112304688 401.420898438 326.3046875 c 4
 401.592773438 326.49609375 402.450195312 328.850585938 403.326171875 331.536132812 c 4
 413.727539062 363.424804688 433.447265625 390.940429688 460.83984375 411.786132812 c 6
 464.893554688 414.870117188 l 5
 469.544921875 411.374023438 l 6
 491.374023438 394.965820312 509.223632812 374.373046875 522.94921875 349.762695312 c 6
 526.944335938 342.59765625 l 5
 530.684570312 342.2890625 l 6
 579.100585938 338.294921875 619.662109375 327.3359375 660.262695312 307.282226562 c 4
 709.1015625 283.158203125 750.65234375 250.256835938 784.759765625 208.69921875 c 4
 801.135742188 188.74609375 819.951171875 160.497070312 835.501953125 132.512695312 c 4
 873.559570312 64.02734375 896.461914062 -8.7783203125 907.450195312 -96.1982421875 c 4
 910.642578125 -121.598632812 913.17578125 -160.310546875 915.583007812 -220.465820312 c 4
 915.880859375 -227.90625 916.227539062 -268.020507812 916.359375 -310.431640625 c 6
 916.599609375 -386.969726562 l 5
 615.78125 -386.969726562 l 5
 314.963867188 -386.969726562 l 5
 314.259765625 -385.87109375 l 6
857.432617188 -347.541015625 m 6
 857.438476562 -344.921875 857.762695312 -336.95703125 858.154296875 -329.840820312 c 4
 859.702148438 -301.665039062 859.94140625 -282.206054688 859.736328125 -201.178710938 c 4
 859.595703125 -145.908203125 859.353515625 -118.465820312 858.963867188 -113.776367188 c 4
 855.071289062 -66.9013671875 849.654296875 -37.0068359375 837.240234375 6.0966796875 c 4
 824.615234375 49.93359375 813.228515625 80.083984375 797.040039062 112.541992188 c 4
 785.616210938 135.447265625 777.028320312 149.973632812 763.250976562 169.700195312 c 4
 754.732421875 181.895507812 751.416992188 186.345703125 745.5625 193.4453125 c 4
 704.224609375 243.563476562 637.954101562 284.19921875 568.115234375 302.250976562 c 4
 558.626953125 304.704101562 540.584960938 308.563476562 540.236328125 308.215820312 c 4
 540.153320312 308.131835938 540.506835938 305.484375 541.021484375 302.331054688 c 4
 543.463867188 287.358398438 544.716796875 264.83203125 543.498046875 257.83203125 c 4
 541.974609375 249.088867188 537.328125 244.65234375 529.038085938 244.025390625 c 4
 522.907226562 243.561523438 517.39453125 245.119140625 514.5546875 248.118164062 c 4
 511.655273438 251.1796875 511.252929688 253.005859375 511.237304688 263.176757812 c 4
 511.212890625 278.084960938 510.0546875 288.502929688 507.048828125 300.850585938 c 4
 502.2109375 320.71875 493.021484375 339.359375 480.00390625 355.706054688 c 4
 476.0234375 360.706054688 466.170898438 371.331054688 465.515625 371.331054688 c 4
 463.83203125 371.331054688 451.197265625 355.453125 445.578125 346.275390625 c 4
 433.9765625 327.325195312 427.762695312 308.150390625 425.537109375 284.4296875 c 4
 425.146484375 280.260742188 424.604492188 276.072265625 424.333007812 275.123046875 c 4
 423.470703125 272.103515625 421.1171875 268.961914062 418.6171875 267.4921875 c 4
 416.341796875 266.155273438 416.029296875 266.106445312 409.66796875 266.106445312 c 4
 403.4296875 266.106445312 402.926757812 266.180664062 400.278320312 267.48046875 c 4
 397.002929688 269.088867188 394.884765625 271.458007812 393.560546875 274.993164062 c 4
 392.317382812 278.313476562 391.8359375 283.177734375 392.509765625 285.615234375 c 4
 392.80078125 286.671875 392.96484375 287.611328125 392.874023438 287.703125 c 4
 392.615234375 287.9609375 380.866210938 283.6171875 373.794921875 280.649414062 c 4
 368.275390625 278.33203125 360.232421875 274.42578125 347.443359375 267.848632812 c 4
 344.500976562 266.3359375 343.602539062 266.106445312 340.607421875 266.106445312 c 4
 337.7265625 266.106445312 336.783203125 266.327148438 334.879882812 267.446289062 c 4
 330.091796875 270.260742188 325.706054688 277.39453125 325.303710938 283.022460938 c 4
 325.096679688 285.916015625 325.234375 286.684570312 326.37890625 289.0234375 c 4
 327.100585938 290.5 328.685546875 292.58203125 329.901367188 293.651367188 c 4
 331.727539062 295.259765625 353.095703125 306.66015625 364.868164062 312.307617188 c 4
 366.143554688 312.919921875 367.1875 313.6328125 367.1875 313.892578125 c 4
 367.1875 314.419921875 356.145507812 325.098632812 349.365234375 331.129882812 c 4
 328.91015625 349.323242188 304.1328125 366.370117188 279.418945312 379.25390625 c 4
 274.81640625 381.65234375 271.97265625 382.885742188 271.973632812 382.482421875 c 4
 271.973632812 382.123046875 272.313476562 378.86328125 272.727539062 375.237304688 c 4
 277.606445312 332.595703125 289.033203125 294.21484375 307.908203125 257.073242188 c 4
 312.763671875 247.51953125 313.306640625 245.037109375 311.555664062 240.400390625 c 4
 309.076171875 233.833007812 300.747070312 227.727539062 294.198242188 227.674804688 c 4
 287.744140625 227.624023438 283.497070312 232.032226562 275.66796875 246.91015625 c 6
 272.423828125 253.076171875 l 5
 267.768554688 248.279296875 l 6
 260.998046875 241.301757812 257.950195312 237.297851562 252.532226562 228.264648438 c 4
 242.385742188 211.348632812 235.04296875 196.600585938 232.717773438 188.469726562 c 4
 230.57421875 180.97265625 230.396484375 178.36328125 231.266601562 167.127929688 c 6
 232.049804688 157.015625 l 5
 230.795898438 150.770507812 l 6
 227.251953125 133.127929688 221.076171875 117.591796875 210.93359375 100.80859375 c 4
 195.638671875 75.5 164.7265625 27.8115234375 139.5234375 -9.3564453125 c 4
 129.551757812 -24.0625 124.256835938 -36.28125 119.453125 -55.6708984375 c 4
 117.612304688 -63.1025390625 117.1875 -66.8447265625 117.1875 -75.63671875 c 4
 117.1875 -87.9560546875 118.96484375 -99.4462890625 122.39453125 -109.299804688 c 4
 126.493164062 -121.07421875 131.40234375 -128.141601562 142.290039062 -137.942382812 c 4
 149.331054688 -144.279296875 154.086914062 -147.624023438 160.403320312 -150.680664062 c 4
 167.620117188 -154.171875 172.518554688 -155.203125 180.419921875 -154.895507812 c 4
 187.26171875 -154.629882812 189.513671875 -154.112304688 196.2890625 -151.25 c 4
 207.307617188 -146.594726562 212.326171875 -141.213867188 218.666992188 -127.258789062 c 4
 225.465820312 -112.291992188 232.756835938 -102.435546875 237.716796875 -101.504882812 c 4
 241.784179688 -100.7421875 247.41796875 -103.063476562 249.440429688 -106.336914062 c 4
 250.952148438 -108.782226562 252.102539062 -113.762695312 251.729492188 -116.248046875 c 4
 251.557617188 -117.399414062 249.8671875 -122.916992188 247.974609375 -128.509765625 c 4
 242.977539062 -143.275390625 238.228515625 -152.197265625 228.288085938 -165.498046875 c 6
 224.1171875 -171.079101562 l 5
 225.387695312 -174.654296875 l 6
 226.864257812 -178.809570312 228.458984375 -181.725585938 230.573242188 -184.1328125 c 4
 235.12109375 -189.3125 241.374023438 -188.374023438 248.703125 -181.412109375 c 4
 253.537109375 -176.8203125 255.799804688 -173.186523438 264.063476562 -156.745117188 c 4
 279.940429688 -125.157226562 294.48828125 -102.13671875 309.01953125 -85.6064453125 c 4
 319.146484375 -74.0849609375 342.974609375 -53.1513671875 358.213867188 -42.38671875 c 4
 379.36328125 -27.447265625 390.131835938 -21.43359375 411.704101562 -12.5166015625 c 4
 429.096679688 -5.3271484375 447.7109375 3.2109375 455.810546875 7.7138671875 c 4
 482.379882812 22.4873046875 502.916015625 45.064453125 515.7890625 73.65625 c 4
 520.814453125 84.81640625 523.1796875 93.17578125 524.442382812 104.241210938 c 4
 525.130859375 110.276367188 525.158203125 126.5625 524.486328125 130.544921875 c 4
 522.993164062 139.39453125 527.889648438 144.034179688 539.365234375 144.641601562 c 4
 543.559570312 144.86328125 544.842773438 144.740234375 547.854492188 143.825195312 c 4
 550.798828125 142.930664062 551.833984375 142.315429688 553.946289062 140.203125 c 4
 558.67578125 135.473632812 559.682617188 130.239257812 558.620117188 115.908203125 c 4
 557.595703125 102.100585938 555.588867188 90.794921875 551.911132812 78.1181640625 c 4
 547.508789062 62.9482421875 539.000976562 44.7392578125 530.1796875 31.609375 c 6
 527.801757812 28.068359375 l 5
 529.021484375 24.041015625 l 6
 534.920898438 4.5673828125 536.3046875 -20.9990234375 532.671875 -43.4013671875 c 4
 529.490234375 -63.0166015625 519.671875 -91.1513671875 509.645507812 -109.381835938 c 4
 498.33984375 -129.9375 477.787109375 -152.83203125 448.2421875 -177.782226562 c 4
 424.768554688 -197.60546875 408.126953125 -214.165039062 394.30859375 -231.452148438 c 4
 372.849609375 -258.297851562 358.833007812 -286.440429688 353.3125 -313.765625 c 4
 351.151367188 -324.465820312 349.883789062 -339.375 350.430664062 -347.686523438 c 6
 350.733398438 -352.301757812 l 5
 604.077148438 -352.301757812 l 5
 857.421875 -352.301757812 l 5
 857.432617188 -347.541015625 l 6
153.3828125 -95.6396484375 m 4
 152.208984375 -95.208984375 150.4140625 -93.99609375 149.39453125 -92.9453125 c 4
 145.75 -89.189453125 144.826171875 -83.41796875 146.400390625 -74.2255859375 c 4
 149.470703125 -56.296875 157.961914062 -42.724609375 173.20703125 -31.37890625 c 4
 178.950195312 -27.1044921875 181.353515625 -26.033203125 185.306640625 -25.9853515625 c 4
 191.162109375 -25.9140625 197.450195312 -30.4736328125 200.755859375 -37.1884765625 c 4
 202.116210938 -39.951171875 202.389648438 -41.0517578125 202.375976562 -43.697265625 c 4
 202.365234375 -45.8037109375 202.0625 -47.4375 201.48046875 -48.5244140625 c 4
 200.180664062 -50.951171875 196.90234375 -54.328125 193.801757812 -56.43359375 c 4
 189.504882812 -59.3515625 185.768554688 -63.0185546875 183.286132812 -66.7529296875 c 4
 180.513671875 -70.921875 178.23828125 -77.173828125 178.229492188 -80.6435546875 c 4
 178.220703125 -84.0546875 176.618164062 -88.974609375 174.801757812 -91.1708984375 c 4
 173.951171875 -92.19921875 171.916015625 -93.6640625 170.086914062 -94.564453125 c 4
 167.095703125 -96.037109375 166.465820312 -96.1591796875 161.192382812 -96.2861328125 c 4
 156.920898438 -96.3896484375 154.989257812 -96.2294921875 153.3828125 -95.6396484375 c 4
270.15234375 114.986328125 m 5
 266.608398438 116.24609375 262.516601562 119.072265625 260.740234375 121.487304688 c 4
 257.368164062 126.073242188 256.833984375 132.985351562 259.34765625 139.504882812 c 4
 261.438476562 144.926757812 266.719726562 155.228515625 270.37890625 161.0234375 c 4
 281.775390625 179.071289062 297.458984375 193.799804688 316.708984375 204.532226562 c 4
 322.520507812 207.772460938 333.31640625 212.583007812 338.064453125 214.048828125 c 4
 342.817382812 215.515625 348.521484375 215.46484375 351.825195312 213.926757812 c 4
 357.143554688 211.450195312 360.811523438 204.991210938 361.21875 197.385742188 c 4
 361.426757812 193.49609375 361.331054688 192.880859375 360.141601562 190.450195312 c 4
 359.423828125 188.983398438 358.151367188 187.205078125 357.3125 186.5 c 4
 356.474609375 185.794921875 352.34765625 183.494140625 348.140625 181.387695312 c 6
 340.493164062 177.55859375 l 5
 342.280273438 173.89453125 l 6
 345.600585938 167.087890625 346.219726562 160.411132812 344.280273438 152.336914062 c 4
 342.171875 143.561523438 337.7578125 136.802734375 331.86328125 133.326171875 c 4
 323.51953125 128.404296875 307.055664062 129.234375 298.500976562 135.008789062 c 6
 296.416015625 136.416015625 l 5
 295.385742188 134.96875 l 6
 294.818359375 134.172851562 292.84375 130.35546875 290.99609375 126.485351562 c 4
 287.3984375 118.950195312 285.509765625 116.517578125 282.032226562 114.938476562 c 4
 279.36328125 113.7265625 273.631835938 113.749023438 270.15234375 114.986328125 c 5
 270.15234375 114.986328125 l 5
EndSplineSet
EndChar

StartChar: l
Encoding: 108 108 14
Width: 1000
Flags: H
LayerCount: 2
Fore
SplineSet
466.796875 -411.586914062 m 0
 403.93359375 -410.049804688 354.268554688 -405.767578125 305.908203125 -397.713867188 c 0
 268.453125 -391.475585938 238.043945312 -383.581054688 218.26171875 -374.958007812 c 0
 208.165039062 -370.557617188 202.4609375 -367.106445312 195.163085938 -360.986328125 c 2
 193.793945312 -359.837890625 l 1
 209.931640625 -300.197265625 l 1
 226.069335938 -240.557617188 l 1
 218.0703125 -195.255859375 l 2
 211.637695312 -158.831054688 209.857421875 -149.591796875 208.981445312 -148.107421875 c 0
 207.600585938 -145.767578125 203.495117188 -142.880859375 196.044921875 -139.009765625 c 0
 185.595703125 -133.58203125 180.63671875 -129.926757812 161.584960938 -113.612304688 c 0
 137.948242188 -93.3720703125 126.009765625 -81.91796875 117.522460938 -71.3369140625 c 0
 97.54296875 -46.4287109375 85.55078125 -16.9375 81.0927734375 18.2568359375 c 0
 78.8896484375 35.650390625 78.658203125 48.587890625 80.3427734375 60.177734375 c 0
 83.4345703125 81.4443359375 92.40234375 102.432617188 107.723632812 124.262695312 c 0
 117.025390625 137.514648438 131.831054688 153.686523438 142.57421875 162.329101562 c 0
 166.268554688 181.389648438 193.720703125 192.575195312 227.05078125 196.749023438 c 0
 235.395507812 197.793945312 259.821289062 198.2421875 267.916992188 197.498046875 c 0
 291.114257812 195.368164062 325.744140625 187.296875 344.3359375 179.6875 c 0
 347.908203125 178.225585938 356.103515625 175.014648438 362.548828125 172.552734375 c 0
 395.993164062 159.776367188 398.421875 158.747070312 406.150390625 154.073242188 c 0
 408.91015625 152.404296875 410.12109375 151.885742188 409.94921875 152.4453125 c 0
 409.081054688 155.283203125 408.111328125 163.067382812 407.870117188 169.135742188 c 0
 407.272460938 184.194335938 410.0703125 198.124023438 416.298828125 211.104492188 c 0
 419.504882812 217.784179688 421.896484375 221.676757812 426.212890625 227.241210938 c 0
 448.884765625 256.461914062 483.760742188 269.578125 519.611328125 262.368164062 c 0
 546.525390625 256.955078125 571.490234375 236.73828125 583.762695312 210.416015625 c 0
 588.849609375 199.505859375 591.806640625 185.678710938 591.791992188 172.868164062 c 0
 591.787109375 168.638671875 590.686523438 156.309570312 590.05078125 153.3671875 c 2
 589.756835938 152.002929688 l 1
 592.97265625 153.970703125 l 2
 601.538085938 159.213867188 619.096679688 166.54296875 652.34375 178.755859375 c 0
 685.298828125 190.860351562 714.412109375 197.390625 739.74609375 198.360351562 c 0
 786.33984375 200.143554688 824.3515625 188.9453125 855.46875 164.268554688 c 0
 866.280273438 155.694335938 881.712890625 138.811523438 891.2421875 125.1328125 c 0
 906.411132812 103.358398438 915.080078125 83.4423828125 919.00390625 61.349609375 c 0
 920.306640625 54.0126953125 920.787109375 37.6064453125 919.961914062 28.6552734375 c 0
 917.668945312 3.806640625 911.682617188 -18.7666015625 902.0859375 -38.7470703125 c 0
 891.375 -61.046875 879.295898438 -76.4150390625 855.95703125 -97.4384765625 c 0
 827.860351562 -122.749023438 816.65234375 -131.48828125 803.403320312 -138.421875 c 0
 796.467773438 -142.05078125 793.275390625 -144.34375 791.416015625 -147.033203125 c 0
 790.158203125 -148.853515625 789.560546875 -151.975585938 782.239257812 -194.990234375 c 2
 774.407226562 -241.000976562 l 1
 790.49609375 -301.190429688 l 1
 806.583984375 -361.379882812 l 1
 805.513671875 -362.525390625 l 2
 802.502929688 -365.749023438 790.57421875 -372.567382812 781.25 -376.39453125 c 0
 740.151367188 -393.263671875 662.747070312 -405.958984375 575.1953125 -410.19140625 c 0
 544.55078125 -411.672851562 495.91015625 -412.298828125 466.796875 -411.586914062 c 0
252.57421875 -340.1875 m 1
 301.68359375 -326.014648438 361.333007812 -318.053710938 443.84765625 -314.66015625 c 0
 463.671875 -313.845703125 534.278320312 -313.840820312 552.978515625 -314.654296875 c 0
 619.7109375 -317.5546875 673.791015625 -323.733398438 723.14453125 -334.096679688 c 0
 732.71875 -336.107421875 750.893554688 -340.537109375 753.108398438 -341.399414062 c 0
 753.84375 -341.686523438 753.96484375 -341.576171875 753.73828125 -340.826171875 c 0
 753.584960938 -340.315429688 750.28125 -327.41015625 746.3984375 -312.146484375 c 0
 742.514648438 -296.883789062 739.216796875 -284.2734375 739.068359375 -284.125976562 c 0
 738.6328125 -283.690429688 722.211914062 -280.25390625 709.37890625 -277.912109375 c 0
 665.8203125 -269.96484375 618.669921875 -265.314453125 557.12890625 -262.897460938 c 0
 536.767578125 -262.09765625 463.083984375 -262.1015625 442.87109375 -262.903320312 c 0
 383.794921875 -265.247070312 339.006835938 -269.58984375 295.41015625 -277.19921875 c 0
 282.063476562 -279.529296875 262.421875 -283.612304688 261.860351562 -284.172851562 c 0
 261.724609375 -284.30859375 258.2265625 -297.012695312 254.086914062 -312.403320312 c 0
 249.948242188 -327.793945312 246.430664062 -340.803710938 246.271484375 -341.314453125 c 0
 246.047851562 -342.029296875 246.165039062 -342.171875 246.780273438 -341.935546875 c 0
 247.220703125 -341.767578125 249.827148438 -340.98046875 252.57421875 -340.1875 c 1
 252.57421875 -340.1875 l 1
276.934570312 -242.994140625 m 0
 317.140625 -233.336914062 365.993164062 -226.77734375 420.654296875 -223.697265625 c 0
 466.158203125 -221.1328125 525.814453125 -220.842773438 570.068359375 -222.970703125 c 0
 632.337890625 -225.965820312 686.95703125 -233.067382812 727.524414062 -243.443359375 c 0
 730.604492188 -244.23046875 733.1953125 -244.8046875 733.28125 -244.71875 c 0
 733.3671875 -244.6328125 735.176757812 -233.609375 737.301757812 -220.223632812 c 0
 740.095703125 -202.625976562 741.01171875 -195.7890625 740.607421875 -195.540039062 c 0
 739.603515625 -194.918945312 716.298828125 -189.362304688 706.200195312 -187.3359375 c 0
 647.583007812 -175.5703125 573.666992188 -170.01171875 487.3046875 -170.875 c 0
 471.057617188 -171.038085938 452.05078125 -171.3984375 445.068359375 -171.67578125 c 0
 380.075195312 -174.263671875 328.849609375 -180.11328125 284.423828125 -190.01953125 c 0
 274.551757812 -192.220703125 260.3984375 -195.791015625 260.01171875 -196.178710938 c 0
 259.84375 -196.346679688 265.763671875 -237.541992188 266.862304688 -243.852539062 c 0
 267.077148438 -245.083007812 267.338867188 -245.403320312 267.970703125 -245.20703125 c 0
 268.426757812 -245.064453125 272.459960938 -244.069335938 276.934570312 -242.994140625 c 0
757.52734375 -130.302734375 m 0
 772.598632812 -115.686523438 787.170898438 -103.525390625 811.397460938 -85.345703125 c 0
 846.24609375 -59.1953125 857.678710938 -47.330078125 867.701171875 -26.9091796875 c 0
 877.143554688 -7.6708984375 881.44140625 14.2041015625 880.701171875 39.2529296875 c 0
 879.790039062 70.0751953125 872.126953125 92.212890625 854.541015625 114.833007812 c 0
 836.40234375 138.162109375 810.974609375 153.381835938 779.78515625 159.577148438 c 0
 768.24609375 161.870117188 760.703125 162.5078125 745.1171875 162.509765625 c 0
 730.666015625 162.51171875 726.018554688 162.192382812 712.890625 160.295898438 c 0
 686.513671875 156.486328125 656.35546875 146.76953125 628.173828125 132.999023438 c 0
 608.96484375 123.61328125 596.782226562 115.153320312 584.265625 102.5078125 c 0
 558.208984375 76.18359375 539.795898438 43.8740234375 527.163085938 2.3076171875 c 0
 522.364257812 -13.48046875 520.48046875 -23.548828125 519.046875 -41.0693359375 c 0
 518.5390625 -47.279296875 517.231445312 -110.473632812 517.603515625 -110.826171875 c 0
 517.723632812 -110.940429688 526.831054688 -111.28515625 537.841796875 -111.59375 c 0
 599.1796875 -113.309570312 637.625 -116.44140625 685.546875 -123.624023438 c 0
 706.584960938 -126.77734375 733.380859375 -131.532226562 747.0703125 -134.541015625 c 0
 749.353515625 -135.041992188 751.421875 -135.475585938 751.66796875 -135.502929688 c 0
 751.913085938 -135.530273438 754.549804688 -133.190429688 757.52734375 -130.302734375 c 0
740.478515625 -93.7392578125 m 0
 736.5078125 -92.2578125 726.662109375 -89.6171875 718.069335938 -87.7294921875 c 0
 682.91796875 -80.0078125 631.684570312 -75.1767578125 564.502929688 -73.2509765625 c 2
 553.078125 -72.9228515625 l 1
 553.409179688 -65.5888671875 l 2
 554.485351562 -41.7470703125 558.366210938 -15.05859375 562.702148438 -1.68359375 c 0
 567.76171875 13.921875 580.9609375 36.99609375 595.529296875 55.701171875 c 0
 602.96875 65.25390625 614.7265625 78.19921875 621.09375 83.8486328125 c 0
 629.772460938 91.5478515625 658.243164062 107.615234375 673.33984375 113.333007812 c 0
 704.756835938 125.232421875 739.577148438 126.3671875 773.338867188 116.59375 c 0
 790.038085938 111.759765625 802.666015625 105.333984375 812.188476562 96.82421875 c 0
 822.178710938 87.896484375 827.908203125 79 831.299804688 67.1494140625 c 0
 835.142578125 53.7216796875 836.568359375 29.8076171875 834.23828125 17.8583984375 c 0
 831.919921875 5.9716796875 826.583007812 -5.09375 817.474609375 -16.8994140625 c 0
 813.466796875 -22.09375 796.376953125 -39.162109375 781.000976562 -53.326171875 c 0
 766.349609375 -66.82421875 757.766601562 -75.9462890625 747.536132812 -88.8974609375 c 0
 745.0859375 -91.9990234375 742.934570312 -94.521484375 742.756835938 -94.501953125 c 0
 742.578125 -94.4833984375 741.552734375 -94.1396484375 740.478515625 -93.7392578125 c 0
256.669921875 -132.842773438 m 0
 283.55859375 -127.174804688 327.353515625 -120.267578125 356.93359375 -117.028320312 c 0
 386.512695312 -113.790039062 420.701171875 -111.876953125 467.407226562 -110.84765625 c 2
 482.421875 -110.516601562 l 1
 482.421875 -103.529296875 l 2
 482.421875 -91.8515625 481.475585938 -55.296875 480.931640625 -45.9521484375 c 0
 479.564453125 -22.4580078125 476.703125 -6.3271484375 470.928710938 10.4443359375 c 0
 460.260742188 41.4267578125 446.686523438 66.92578125 429.309570312 88.6240234375 c 0
 423.141601562 96.3271484375 411.52734375 108.388671875 406.005859375 112.825195312 c 0
 377.323242188 135.875 325.19921875 156.509765625 281.73828125 162.021484375 c 0
 260.828125 164.672851562 238.609375 164.137695312 220.043945312 160.533203125 c 0
 199.306640625 156.5078125 180.888671875 148.1875 165.571289062 135.924804688 c 0
 148.692382812 122.413085938 133.642578125 101.388671875 126.953125 81.9775390625 c 0
 115.404296875 48.4619140625 117.586914062 4.544921875 132.297851562 -25.5615234375 c 0
 135.486328125 -32.087890625 141.982421875 -42.3330078125 146.129882812 -47.3779296875 c 0
 155.747070312 -59.0751953125 167.94140625 -70.0439453125 189.208984375 -86.1259765625 c 0
 202.845703125 -96.4375 213.4921875 -104.763671875 223.356445312 -112.83203125 c 0
 231.448242188 -119.450195312 246.331054688 -132.356445312 247.49609375 -133.765625 c 0
 247.865234375 -134.2109375 248.229492188 -134.575195312 248.306640625 -134.575195312 c 0
 248.383789062 -134.575195312 252.147460938 -133.795898438 256.669921875 -132.842773438 c 0
251.15625 -89.478515625 m 2
 242.936523438 -79.771484375 234.169921875 -70.615234375 216.727539062 -53.5205078125 c 0
 197.55078125 -34.7265625 183.081054688 -19.4423828125 178.174804688 -12.798828125 c 0
 169.856445312 -1.537109375 165.05078125 10.275390625 163.543945312 23.1640625 c 0
 162.416015625 32.8154296875 163.638671875 51.9130859375 166.04296875 62.2021484375 c 0
 169.275390625 76.0322265625 174.053710938 84.8681640625 183.349609375 94.2060546875 c 0
 194.06640625 104.97265625 209.493164062 112.8046875 230.262695312 118.024414062 c 0
 266.032226562 127.013671875 301.354492188 124.212890625 333.522460938 109.836914062 c 0
 344.548828125 104.909179688 366.06640625 92.4326171875 374.4921875 86.0830078125 c 0
 381.381835938 80.890625 394.775390625 66.25 405.048828125 52.6806640625 c 0
 418.170898438 35.3486328125 430.416015625 13.869140625 434.849609375 0.4033203125 c 0
 439.368164062 -13.3193359375 443.094726562 -38.2724609375 445.109375 -68.291015625 c 2
 445.428710938 -73.0517578125 l 1
 442.318359375 -73.05859375 l 2
 440.608398438 -73.0634765625 432.506835938 -73.2783203125 424.31640625 -73.5400390625 c 0
 349.221679688 -75.9375 293.041992188 -82.5888671875 259.876953125 -93.0087890625 c 2
 255.348632812 -94.4306640625 l 1
 251.15625 -89.478515625 l 2
501.162109375 16.42578125 m 0
 501.65234375 18.3720703125 503.22265625 23.5908203125 504.65234375 28.0224609375 c 0
 506.08203125 32.453125 508.37109375 39.6396484375 509.739257812 43.9912109375 c 0
 511.107421875 48.3427734375 513.231445312 54.275390625 514.458984375 57.1748046875 c 0
 515.686523438 60.07421875 517.639648438 64.779296875 518.798828125 67.630859375 c 0
 519.958007812 70.482421875 523.48046875 78.0634765625 526.627929688 84.4765625 c 0
 533.681640625 98.8515625 539.40234375 111.331054688 542.485351562 119.068359375 c 0
 547.895507812 132.649414062 556.612304688 156.96875 557.3671875 160.590820312 c 0
 559.190429688 169.336914062 558.811523438 179.984375 556.374023438 188.509765625 c 0
 553.712890625 197.818359375 549.127929688 205.44921875 541.748046875 212.8515625 c 0
 532.970703125 221.65625 524.180664062 226.447265625 511.9921875 229.073242188 c 0
 506.509765625 230.25390625 491.46484375 230.219726562 484.619140625 229.01171875 c 0
 472.771484375 226.918945312 463.47265625 222.452148438 456.54296875 215.522460938 c 0
 447.248046875 206.227539062 442.721679688 193.786132812 442.063476562 175.727539062 c 0
 441.684570312 165.33203125 442.4609375 160.889648438 446.9609375 147.723632812 c 0
 456.53125 119.719726562 460.66015625 109.848632812 476.708007812 76.6064453125 c 0
 485.38671875 58.6298828125 486.045898438 56.8525390625 496.40234375 23.505859375 c 0
 498.216796875 17.6640625 499.829101562 12.8857421875 499.986328125 12.8857421875 c 0
 500.143554688 12.8857421875 500.672851562 14.478515625 501.162109375 16.42578125 c 0
499.51171875 97.28125 m 0
 499.51171875 99.4208984375 492.91796875 117.403320312 489.059570312 125.787109375 c 0
 483.966796875 136.852539062 479.1328125 148.737304688 476.954101562 155.549804688 c 0
 475.467773438 160.196289062 475.342773438 161.086914062 475.350585938 166.938476562 c 0
 475.356445312 172.088867188 475.560546875 173.930664062 476.428710938 176.704101562 c 0
 479.534179688 186.625976562 486.204101562 191.331054688 498.026367188 191.940429688 c 0
 512.221679688 192.671875 521.119140625 187.586914062 524.50390625 176.80859375 c 0
 525.809570312 172.649414062 526.192382812 164.334960938 525.229492188 161.079101562 c 0
 523.3046875 154.578125 515.8984375 135.91015625 512.809570312 129.776367188 c 0
 508.369140625 120.958007812 505.129882812 113.366210938 504.145507812 109.466796875 c 0
 502.82421875 104.236328125 500.263671875 96.3837890625 499.877929688 96.3828125 c 0
 499.676757812 96.3818359375 499.51171875 96.7861328125 499.51171875 97.28125 c 0
482.421875 297.797851562 m 1
 482.421875 329.780273438 l 1
 460.551757812 329.780273438 l 2
 436.649414062 329.780273438 434.791015625 329.95703125 430.961914062 332.6015625 c 0
 427.2421875 335.170898438 425.3046875 339.806640625 425.3046875 346.137695312 c 0
 425.3046875 352.522460938 427.170898438 356.994140625 430.912109375 359.567382812 c 0
 434.946289062 362.342773438 436.48046875 362.495117188 460.530273438 362.495117188 c 2
 482.377929688 362.495117188 l 1
 482.522460938 386.104492188 l 1
 482.666015625 409.71484375 l 1
 484.37890625 413.08203125 l 2
 485.703125 415.685546875 486.626953125 416.80859375 488.452148438 418.030273438 c 0
 491.768554688 420.25 494.1171875 420.8203125 500 420.833007812 c 0
 506.584960938 420.84765625 509.543945312 419.891601562 512.70703125 416.728515625 c 0
 516.850585938 412.584960938 516.799804688 412.944335938 516.977539062 386.076171875 c 2
 517.133789062 362.538085938 l 1
 540.915039062 362.39453125 l 2
 563.859375 362.255859375 564.774414062 362.21484375 566.89453125 361.229492188 c 0
 570.168945312 359.70703125 572.059570312 357.884765625 573.583007812 354.782226562 c 0
 574.852539062 352.198242188 574.951171875 351.5703125 574.951171875 346.102539062 c 0
 574.951171875 340.51171875 574.875976562 340.061523438 573.481445312 337.334960938 c 0
 571.873046875 334.190429688 569.02734375 331.659179688 566.02734375 330.706054688 c 0
 564.239257812 330.137695312 543.911132812 329.444335938 526.000976562 329.33984375 c 2
 517.578125 329.291992188 l 1
 517.578125 320.338867188 l 2
 517.578125 315.4140625 517.432617188 301.131835938 517.25390625 288.600585938 c 2
 516.930664062 265.815429688 l 1
 499.67578125 265.815429688 l 1
 482.421875 265.815429688 l 1
 482.421875 297.797851562 l 1
EndSplineSet
EndChar

StartChar: m
Encoding: 109 109 15
Width: 1000
Flags: H
LayerCount: 2
Fore
SplineSet
314.259765625 -422.231445312 m 2
 312.196289062 -419.010742188 311.388671875 -407.543945312 312.032226562 -390.606445312 c 0
 312.88671875 -368.103515625 314.811523438 -357.025390625 321.615234375 -335.46875 c 0
 327.123046875 -318.017578125 335.197265625 -299.873046875 347.2109375 -277.948242188 c 0
 356.1953125 -261.552734375 363.998046875 -252.118164062 394.64453125 -220.592773438 c 0
 437.080078125 -176.942382812 456.989257812 -156.125976562 461.096679688 -151.11328125 c 0
 472.3828125 -137.33984375 481.985351562 -119.6171875 488.556640625 -100.431640625 c 0
 495.772460938 -79.3662109375 498.571289062 -63.0927734375 498.126953125 -44.7958984375 c 2
 498.046875 -41.505859375 l 1
 494.018554688 -44.6015625 l 2
 483.09375 -52.9990234375 468.264648438 -61.560546875 457.275390625 -65.81640625 c 0
 431.568359375 -75.7724609375 425.100585938 -78.5859375 409.423828125 -86.62890625 c 0
 380.97265625 -101.2265625 358.98828125 -116.713867188 339.427734375 -135.940429688 c 0
 326.721679688 -148.4296875 317.728515625 -159.15625 309.330078125 -171.83984375 c 0
 304.731445312 -178.783203125 301.806640625 -183.952148438 290.520507812 -205.068359375 c 0
 279.6328125 -225.439453125 275.127929688 -232.602539062 269.987304688 -237.712890625 c 0
 263.559570312 -244.103515625 254.955078125 -247.333007812 242.919921875 -247.874023438 c 0
 233.376953125 -248.302734375 226.634765625 -246.717773438 219.0234375 -242.256835938 c 0
 214.41015625 -239.552734375 207.731445312 -232.75 203.84765625 -226.798828125 c 0
 201.625976562 -223.39453125 200.254882812 -221.729492188 199.8125 -221.899414062 c 0
 199.443359375 -222.041015625 197.413085938 -222.598632812 195.298828125 -223.137695312 c 0
 187.8984375 -225.02734375 179.969726562 -226.1484375 172.10546875 -226.416015625 c 2
 164.280273438 -226.682617188 l 1
 158.921875 -224.556640625 l 2
 146.551757812 -219.6484375 133.133789062 -212.15625 126.950195312 -206.705078125 c 0
 116.259765625 -197.28125 103.470703125 -180.594726562 97.3876953125 -168.130859375 c 0
 91.7158203125 -156.510742188 87.8916015625 -141.828125 85.640625 -123.02734375 c 0
 84.572265625 -114.1015625 84.4130859375 -94.720703125 85.365234375 -89.345703125 c 0
 90.3564453125 -61.15625 104.991210938 -33.3759765625 138.8203125 12.1201171875 c 0
 162.844726562 44.431640625 173.8203125 61.4970703125 184.575195312 83.26171875 c 0
 194.20703125 102.754882812 198.721679688 117.219726562 198.735351562 128.635742188 c 0
 198.74609375 137.671875 200.756835938 158.12109375 202.452148438 166.436523438 c 0
 204.309570312 175.547851562 208.108398438 184.362304688 214.60546875 194.634765625 c 0
 216.967773438 198.370117188 220.282226562 203.623046875 221.971679688 206.30859375 c 0
 227.444335938 215.009765625 242.598632812 233.55078125 253.986328125 245.477539062 c 2
 259.216796875 250.955078125 l 1
 256.306640625 259.637695312 l 2
 249.08984375 281.176757812 244.0390625 302.44921875 241.015625 324.041992188 c 0
 237.771484375 347.203125 236.681640625 373.244140625 238.091796875 393.907226562 c 2
 238.365234375 397.911132812 l 1
 242.83984375 396.2890625 l 2
 260.918945312 389.732421875 284.201171875 379.0625 301.2109375 369.538085938 c 0
 336.118164062 349.991210938 364.87890625 327.557617188 393.551757812 297.512695312 c 0
 397.708007812 293.157226562 401.249023438 289.751953125 401.420898438 289.944335938 c 0
 401.592773438 290.135742188 402.450195312 292.490234375 403.326171875 295.17578125 c 0
 413.727539062 327.064453125 433.447265625 354.580078125 460.83984375 375.424804688 c 2
 464.893554688 378.509765625 l 1
 469.544921875 375.013671875 l 2
 491.374023438 358.60546875 509.223632812 338.012695312 522.94921875 313.40234375 c 2
 526.944335938 306.237304688 l 1
 530.684570312 305.928710938 l 2
 579.100585938 301.93359375 619.662109375 290.975585938 660.262695312 270.921875 c 0
 709.1015625 246.797851562 750.65234375 213.896484375 784.759765625 172.338867188 c 0
 801.135742188 152.385742188 819.951171875 124.13671875 835.501953125 96.15234375 c 0
 873.559570312 27.666015625 896.461914062 -45.138671875 907.450195312 -132.55859375 c 0
 910.642578125 -157.958984375 913.17578125 -196.671875 915.583007812 -256.826171875 c 0
 915.880859375 -264.266601562 916.227539062 -304.381835938 916.359375 -346.791992188 c 2
 916.599609375 -423.330078125 l 1
 615.78125 -423.330078125 l 1
 314.963867188 -423.330078125 l 1
 314.259765625 -422.231445312 l 2
857.432617188 -383.901367188 m 2
 857.438476562 -381.283203125 857.762695312 -373.317382812 858.154296875 -366.201171875 c 0
 859.702148438 -338.025390625 859.94140625 -318.56640625 859.736328125 -237.5390625 c 0
 859.595703125 -182.268554688 859.353515625 -154.826171875 858.963867188 -150.13671875 c 0
 855.071289062 -103.262695312 849.654296875 -73.3671875 837.240234375 -30.263671875 c 0
 824.615234375 13.5732421875 813.228515625 43.7236328125 797.040039062 76.181640625 c 0
 785.616210938 99.0869140625 777.028320312 113.61328125 763.250976562 133.33984375 c 0
 754.732421875 145.53515625 751.416992188 149.985351562 745.5625 157.083984375 c 0
 704.224609375 207.203125 637.954101562 247.838867188 568.115234375 265.890625 c 0
 558.479492188 268.381835938 540.583007812 272.201171875 540.225585938 271.84375 c 0
 540.13671875 271.75390625 540.327148438 270.265625 540.650390625 268.536132812 c 0
 541.053710938 266.375976562 541.201171875 259.9609375 541.12109375 248.056640625 c 0
 541.056640625 238.5234375 541.171875 229.764648438 541.377929688 228.594726562 c 2
 541.751953125 226.465820312 l 1
 548.341796875 224.15234375 l 2
 584.34375 211.513671875 623.565429688 192.390625 649.658203125 174.755859375 c 0
 671.473632812 160.01171875 683.463867188 148.061523438 698.346679688 126.23046875 c 0
 722.749023438 90.4365234375 743.848632812 45.236328125 760.272460938 -6.4326171875 c 0
 778.161132812 -62.7109375 786.65234375 -108.125976562 789.102539062 -160.634765625 c 0
 789.942382812 -178.624023438 789.99609375 -337.927734375 789.166992188 -350.8203125 c 0
 788.821289062 -356.19140625 788.405273438 -366.903320312 788.241210938 -374.624023438 c 2
 787.943359375 -388.662109375 l 1
 822.682617188 -388.662109375 l 1
 857.421875 -388.662109375 l 1
 857.432617188 -383.901367188 l 2
231.201171875 -197.379882812 m 0
 235.137695312 -195.3671875 237.561523438 -192.203125 241.772460938 -183.583984375 c 0
 245.974609375 -174.98046875 249.887695312 -165.390625 252.430664062 -157.4609375 c 0
 253.716796875 -153.452148438 253.943359375 -152.108398438 253.696289062 -149.95703125 c 0
 252.821289062 -142.328125 247.723632812 -137.685546875 240.22265625 -137.685546875 c 0
 233.953125 -137.685546875 227.60546875 -144.655273438 219.19921875 -160.76953125 c 0
 215.908203125 -167.079101562 214.854492188 -168.625976562 211.522460938 -172.048828125 c 0
 207.3671875 -176.315429688 206.424804688 -177.774414062 205.53125 -181.323242188 c 0
 204.635742188 -184.879882812 205.6015625 -187.587890625 208.955078125 -190.921875 c 0
 211.629882812 -193.581054688 216.969726562 -196.767578125 220.93359375 -198.068359375 c 0
 223.65625 -198.961914062 228.778320312 -198.619140625 231.201171875 -197.379882812 c 0
168.676757812 -141.572265625 m 0
 174.467773438 -139.377929688 177.999023438 -134.524414062 178.530273438 -128.02734375 c 0
 178.8671875 -123.90625 179.814453125 -120.796875 182.059570312 -116.4453125 c 0
 184.338867188 -112.028320312 190.36328125 -105.920898438 195.068359375 -103.258789062 c 0
 199.326171875 -100.848632812 203.235351562 -96.958984375 204.360351562 -94.0126953125 c 0
 207.513671875 -85.755859375 199.356445312 -74.3955078125 189.072265625 -72.7216796875 c 0
 185.559570312 -72.150390625 180.697265625 -73.125 176.858398438 -75.1708984375 c 0
 169.93359375 -78.8623046875 159.56640625 -87.9892578125 154.380859375 -94.9609375 c 0
 150.840820312 -99.71875 146.258789062 -109.151367188 144.797851562 -114.6875 c 0
 141.096679688 -128.70703125 142.34375 -136.548828125 148.899414062 -140.479492188 c 0
 152.452148438 -142.610351562 154.618164062 -143.045898438 160.64453125 -142.844726562 c 0
 164.461914062 -142.716796875 166.513671875 -142.391601562 168.676757812 -141.572265625 c 0
516.926757812 -17.3271484375 m 0
 520.208984375 -16.3525390625 523.411132812 -13.8212890625 525.712890625 -10.3828125 c 0
 526.75390625 -8.8291015625 529.162109375 -5.361328125 531.065429688 -2.67578125 c 0
 548.432617188 21.8291015625 558.229492188 48.7490234375 560.54296875 78.328125 c 0
 561.59375 91.76171875 560.985351562 96.7763671875 557.727539062 101.5546875 c 0
 553.797851562 107.315429688 545.979492188 109.5625 535.676757812 107.891601562 c 0
 526.537109375 106.408203125 523.1171875 102.201171875 524.424804688 94.048828125 c 0
 525.263671875 88.814453125 525.125976562 73.9228515625 524.171875 66.66015625 c 0
 522.668945312 55.220703125 520.37890625 48.1962890625 513.669921875 34.43359375 c 0
 507.987304688 22.779296875 503.186523438 15.2958984375 496.984375 8.4306640625 c 0
 493.75 4.849609375 492.458007812 1.65625 492.491210938 -2.67578125 c 0
 492.53125 -7.8896484375 495.390625 -11.578125 501.95703125 -14.884765625 c 0
 508.06640625 -17.9609375 512.40625 -18.669921875 516.926757812 -17.3271484375 c 0
262.012695312 78.5771484375 m 0
 265.490234375 80.1572265625 267.37890625 82.58984375 270.9765625 90.125 c 0
 272.82421875 93.9951171875 274.798828125 97.8125 275.366210938 98.6083984375 c 2
 276.396484375 100.0546875 l 1
 278.481445312 98.6474609375 l 2
 286.731445312 93.080078125 302.830078125 92.0634765625 311.224609375 96.580078125 c 0
 314.580078125 98.38671875 318.766601562 102.676757812 320.629882812 106.217773438 c 0
 322.6796875 110.11328125 324.556640625 116.245117188 325.150390625 120.978515625 c 0
 325.916015625 127.083007812 324.647460938 133.490234375 321.58984375 138.959960938 c 2
 320.369140625 141.145507812 l 1
 328.275390625 145.098632812 l 2
 339.561523438 150.7421875 341.584960938 153.120117188 341.513671875 160.654296875 c 0
 341.435546875 168.8828125 337.020507812 175.971679688 330.615234375 178.155273438 c 0
 329.703125 178.466796875 327.25390625 178.720703125 325.173828125 178.720703125 c 0
 320.58203125 178.720703125 317.123046875 177.71875 308.1640625 173.791015625 c 0
 277.048828125 160.150390625 253.713867188 136.706054688 240.415039062 105.72265625 c 0
 238.5078125 101.279296875 238.072265625 99.701171875 237.889648438 96.5830078125 c 0
 237.768554688 94.505859375 237.928710938 91.7666015625 238.24609375 90.4794921875 c 0
 240.045898438 83.1962890625 247.893554688 77.7236328125 256.591796875 77.68359375 c 0
 258.911132812 77.6728515625 260.653320312 77.9599609375 262.012695312 78.5771484375 c 0
356.689453125 210.77734375 m 0
 357.763671875 211.331054688 363.98046875 214.676757812 370.50390625 218.211914062 c 0
 383.578125 225.297851562 388.380859375 227.456054688 395.068359375 229.245117188 c 0
 397.528320312 229.903320312 399.615234375 230.517578125 399.70703125 230.609375 c 0
 399.798828125 230.701171875 399.63671875 232.8515625 399.345703125 235.388671875 c 0
 398.690429688 241.107421875 399.107421875 256.765625 400.092773438 263.4296875 c 0
 400.489257812 266.110351562 400.750976562 268.3671875 400.673828125 268.444335938 c 0
 400.379882812 268.73828125 389.1875 265.6328125 384.521484375 263.961914062 c 0
 373.817382812 260.129882812 358.571289062 251.521484375 349.150390625 243.991210938 c 0
 347.388671875 242.583984375 344.790039062 240.700195312 343.375976562 239.805664062 c 0
 337.752929688 236.249023438 334.993164062 231.272460938 335.665039062 225.896484375 c 0
 336.360351562 220.331054688 341.21875 212.870117188 345.775390625 210.370117188 c 0
 348.025390625 209.135742188 353.9296875 209.35546875 356.689453125 210.77734375 c 0
EndSplineSet
EndChar

StartChar: o
Encoding: 111 111 16
Width: 1000
Flags: H
LayerCount: 2
Fore
SplineSet
235.782226562 -423.14453125 m 2
 228.109375 -403.388671875 222.704101562 -383.114257812 219.739257812 -362.962890625 c 0
 218.065429688 -351.586914062 217.271484375 -341.671875 216.965820312 -328.294921875 c 0
 215.6015625 -268.739257812 231.426757812 -214.255859375 264.051757812 -166.185546875 c 0
 292.807617188 -123.815429688 329.865234375 -91.0859375 373.72265625 -69.3203125 c 0
 382.16015625 -65.1328125 397.831054688 -58.275390625 398.961914062 -58.275390625 c 0
 400.303710938 -58.275390625 398.82421875 -57.2470703125 393.728515625 -54.63671875 c 0
 359.720703125 -37.2158203125 333.155273438 -2.94921875 325.002929688 34.009765625 c 0
 322.666015625 44.6064453125 322.059570312 50.841796875 322.059570312 64.283203125 c 0
 322.059570312 73.474609375 322.283203125 78.33203125 322.912109375 82.837890625 c 0
 326.504882812 108.561523438 336.411132812 130.413085938 353.495117188 150.302734375 c 0
 373.987304688 174.16015625 400.341796875 189.565429688 429.838867188 194.928710938 c 0
 440.860351562 196.932617188 440.284179688 196.190429688 434.540039062 200.984375 c 0
 420.036132812 213.08984375 409.813476562 228.302734375 404.592773438 245.55078125 c 0
 399.9765625 260.799804688 399.166015625 279.598632812 402.419921875 295.97265625 c 0
 407.702148438 322.549804688 425.866210938 347.434570312 450.625 362.013671875 c 0
 470.282226562 373.588867188 495.89453125 377.556640625 520.407226562 372.827148438 c 0
 535.176757812 369.9765625 550.50390625 362.622070312 562.451171875 352.65234375 c 0
 567.506835938 348.43359375 576.758789062 338.807617188 580.322265625 334.05859375 c 0
 592.311523438 318.080078125 598.666015625 299.833007812 599.453125 279.126953125 c 0
 600.6484375 247.6640625 589.104492188 220.998046875 565.737304688 201.24609375 c 0
 559.7109375 196.15234375 559.168945312 196.926757812 570.161132812 194.928710938 c 0
 590.547851562 191.221679688 609.120117188 182.913085938 625.887695312 169.99609375 c 0
 632.837890625 164.641601562 644.364257812 153.256835938 649.86328125 146.314453125 c 0
 669.841796875 121.090820312 679.169921875 92.41015625 678.053710938 59.64453125 c 0
 676.862304688 24.6669921875 663.982421875 -4.546875 638.427734375 -30.2333984375 c 0
 628.034179688 -40.681640625 617.155273438 -48.775390625 605.330078125 -54.857421875 c 0
 600.633789062 -57.2734375 599.232421875 -58.275390625 600.549804688 -58.275390625 c 0
 601.579101562 -58.275390625 617.038085938 -64.9892578125 624.755859375 -68.787109375 c 0
 669.3828125 -90.7509765625 706.7578125 -123.733398438 735.955078125 -166.91796875 c 0
 759.010742188 -201.017578125 773.888671875 -239.509765625 779.741210938 -280.19921875 c 0
 781.91796875 -295.328125 782.427734375 -303.333007812 782.418945312 -322.19140625 c 0
 782.409179688 -341.005859375 781.948242188 -348.095703125 779.75 -363.20703125 c 0
 777.033203125 -381.880859375 772.373046875 -400.4140625 765.751953125 -418.87109375 c 2
 763.825195312 -424.2421875 l 1
 500.064453125 -424.365234375 l 1
 236.3046875 -424.487304688 l 1
 235.782226562 -423.14453125 l 2
EndSplineSet
EndChar

StartChar: p
Encoding: 112 112 17
Width: 1000
Flags: H
LayerCount: 2
Fore
SplineSet
235.782226562 -419.736328125 m 6
 228.109375 -399.98046875 222.704101562 -379.706054688 219.739257812 -359.5546875 c 4
 218.065429688 -348.178710938 217.271484375 -338.263671875 216.965820312 -324.88671875 c 4
 215.6015625 -265.331054688 231.426757812 -210.84765625 264.051757812 -162.77734375 c 4
 292.807617188 -120.407226562 329.865234375 -87.677734375 373.72265625 -65.912109375 c 4
 382.16015625 -61.724609375 397.831054688 -54.8671875 398.961914062 -54.8671875 c 4
 400.303710938 -54.8671875 398.82421875 -53.8388671875 393.728515625 -51.228515625 c 4
 359.720703125 -33.8076171875 333.155273438 0.458984375 325.002929688 37.41796875 c 4
 322.666015625 48.0146484375 322.059570312 54.25 322.059570312 67.69140625 c 4
 322.059570312 76.8828125 322.283203125 81.740234375 322.912109375 86.24609375 c 4
 326.504882812 111.969726562 336.411132812 133.821289062 353.495117188 153.7109375 c 4
 373.987304688 177.568359375 400.341796875 192.973632812 429.838867188 198.336914062 c 4
 440.860351562 200.340820312 440.284179688 199.598632812 434.540039062 204.392578125 c 4
 420.036132812 216.498046875 409.813476562 231.7109375 404.592773438 248.958984375 c 4
 399.9765625 264.208007812 399.166015625 283.006835938 402.419921875 299.380859375 c 4
 407.702148438 325.958007812 425.866210938 350.842773438 450.625 365.421875 c 4
 470.282226562 376.99609375 495.89453125 380.96484375 520.407226562 376.234375 c 4
 535.176757812 373.384765625 550.50390625 366.030273438 562.451171875 356.060546875 c 4
 567.506835938 351.841796875 576.758789062 342.215820312 580.322265625 337.466796875 c 4
 592.311523438 321.48828125 598.666015625 303.241210938 599.453125 282.53515625 c 4
 600.6484375 251.072265625 589.104492188 224.40625 565.737304688 204.654296875 c 4
 559.7109375 199.560546875 559.168945312 200.334960938 570.161132812 198.336914062 c 4
 590.547851562 194.629882812 609.120117188 186.321289062 625.887695312 173.404296875 c 4
 632.837890625 168.049804688 644.364257812 156.665039062 649.86328125 149.72265625 c 4
 669.841796875 124.499023438 679.169921875 95.818359375 678.053710938 63.052734375 c 4
 676.862304688 28.0751953125 663.982421875 -1.138671875 638.427734375 -26.8251953125 c 4
 628.034179688 -37.2734375 617.155273438 -45.3671875 605.330078125 -51.44921875 c 4
 600.633789062 -53.865234375 599.232421875 -54.8671875 600.549804688 -54.8671875 c 4
 601.579101562 -54.8671875 617.038085938 -61.5810546875 624.755859375 -65.37890625 c 4
 669.3828125 -87.3427734375 706.7578125 -120.325195312 735.955078125 -163.509765625 c 4
 759.010742188 -197.609375 773.888671875 -236.1015625 779.741210938 -276.791015625 c 4
 781.91796875 -291.919921875 782.427734375 -299.92578125 782.418945312 -318.783203125 c 4
 782.409179688 -337.59765625 781.948242188 -344.6875 779.75 -359.798828125 c 4
 777.033203125 -378.47265625 772.373046875 -397.005859375 765.751953125 -415.462890625 c 6
 763.825195312 -420.833984375 l 5
 500.064453125 -420.95703125 l 5
 236.3046875 -421.079101562 l 5
 235.782226562 -419.736328125 l 6
740.165039062 -386.288085938 m 6
 742.361328125 -379.2421875 745.147460938 -366.8046875 746.814453125 -356.6015625 c 4
 751.899414062 -325.48828125 750.6953125 -291.998046875 743.375 -260.97265625 c 4
 733.125976562 -217.525390625 709.5390625 -176.0859375 675.791015625 -142.231445312 c 4
 655.5 -121.875976562 635.545898438 -107.498046875 609.86328125 -94.728515625 c 4
 600.356445312 -90.0009765625 599.590820312 -89.7099609375 594.630859375 -88.9365234375 c 4
 577.004882812 -86.1884765625 567.99609375 -75.85546875 567.056640625 -57.30859375 c 4
 566.670898438 -49.6943359375 567.590820312 -44.8974609375 570.607421875 -38.791015625 c 4
 574.961914062 -29.9775390625 584.497070312 -22.2646484375 597.252929688 -17.236328125 c 4
 602.612304688 -15.1240234375 615.504882812 -4.00390625 622.973632812 4.947265625 c 4
 639.963867188 25.310546875 647.512695312 51.8681640625 644.258789062 79.8330078125 c 4
 641.612304688 102.580078125 630.779296875 123.620117188 613.185546875 140.186523438 c 4
 598.301757812 154.202148438 580.22265625 163.131835938 561.279296875 165.826171875 c 4
 549.874023438 167.448242188 548.212890625 167.866210938 543.229492188 170.358398438 c 4
 539.45703125 172.24609375 534.725585938 176.989257812 532.787109375 180.828125 c 4
 527.9609375 190.390625 527.533203125 204.090820312 531.778320312 213.19921875 c 4
 534.43359375 218.896484375 536.936523438 222.106445312 543.802734375 228.623046875 c 4
 555.58203125 239.801757812 561.479492188 249.896484375 564.536132812 264.110351562 c 4
 565.966796875 270.765625 566.1015625 284.924804688 564.794921875 291.426757812 c 4
 562.241210938 304.140625 556.568359375 314.774414062 547.20703125 324.396484375 c 4
 536.97265625 334.916992188 526.88671875 340.706054688 513.671875 343.64453125 c 4
 506.48828125 345.2421875 493.389648438 345.245117188 485.969726562 343.651367188 c 4
 472.973632812 340.860351562 462.9375 335.358398438 453.348632812 325.768554688 c 4
 443.44921875 315.869140625 437.763671875 305.622070312 434.975585938 292.659179688 c 4
 433.545898438 286.009765625 433.41015625 271.84375 434.713867188 265.356445312 c 4
 437.704101562 250.475585938 443.0234375 241.30859375 456.345703125 228.076171875 c 4
 464.322265625 220.153320312 464.82421875 219.541015625 466.952148438 215.13671875 c 4
 469.991210938 208.844726562 470.93359375 203.986328125 470.544921875 196.599609375 c 4
 470.053710938 187.283203125 467.651367188 180.578125 462.999023438 175.544921875 c 4
 458.442382812 170.614257812 452.809570312 167.865234375 445 166.76171875 c 4
 431.23828125 164.818359375 422.823242188 162.658203125 414.177734375 158.852539062 c 4
 388.30078125 147.461914062 366.446289062 122.46484375 358.841796875 95.5625 c 4
 353.401367188 76.3134765625 353.794921875 54.375 359.915039062 35.7353515625 c 4
 364.873046875 20.6357421875 372.975585938 8.03515625 385.42578125 -3.93359375 c 4
 392.912109375 -11.130859375 399.137695312 -15.736328125 404.579101562 -18.1044921875 c 4
 419.17578125 -24.4560546875 428.194335938 -33.2646484375 431.72265625 -44.61328125 c 4
 432.703125 -47.7666015625 432.857421875 -49.2587890625 432.83203125 -55.35546875 c 4
 432.810546875 -60.4814453125 432.560546875 -63.37890625 431.927734375 -65.853515625 c 4
 428.49609375 -79.265625 419.260742188 -86.9755859375 404.08203125 -89.0986328125 c 4
 400.305664062 -89.626953125 398.845703125 -90.1806640625 390.716796875 -94.1669921875 c 4
 365.416992188 -106.573242188 344.583007812 -121.420898438 324.9375 -141.044921875 c 4
 286.959960938 -178.98046875 262.147460938 -225.677734375 253.717773438 -275.08203125 c 4
 247.381835938 -312.21875 249.311523438 -351.419921875 259.072265625 -383.846679688 c 6
 260.28515625 -387.875 l 5
 499.977539062 -387.875 l 5
 739.669921875 -387.875 l 5
 740.165039062 -386.288085938 l 6
EndSplineSet
EndChar

StartChar: q
Encoding: 113 113 18
Width: 1000
Flags: HO
LayerCount: 2
Fore
SplineSet
458.063476562 -400.865234375 m 4
 380.408203125 -398.586914062 313.645507812 -390.768554688 262.20703125 -377.931640625 c 4
 233.600585938 -370.791992188 210.989257812 -361.23828125 201.534179688 -352.294921875 c 6
 199.69921875 -350.55859375 l 5
 215.081054688 -291.96484375 l 5
 230.463867188 -233.37109375 l 5
 223.6328125 -194.817382812 l 5
 216.801757812 -156.264648438 l 5
 195.322265625 -119.171875 l 5
 173.841796875 -82.080078125 l 5
 166.27734375 -26.7548828125 l 6
 162.1171875 3.6748046875 152.783203125 71.9560546875 145.53515625 124.982421875 c 4
 138.288085938 178.008789062 132.473632812 221.509765625 132.615234375 221.651367188 c 4
 132.755859375 221.79296875 138.077148438 224.040039062 144.438476562 226.64453125 c 4
 155.702148438 231.256835938 156.025390625 231.35546875 156.73828125 230.422851562 c 4
 157.140625 229.895507812 187.229492188 179.159179688 223.602539062 117.674804688 c 4
 259.974609375 56.19140625 289.797851562 5.9501953125 289.875976562 6.0283203125 c 4
 289.954101562 6.10546875 290.68359375 66.3447265625 291.498046875 139.892578125 c 4
 292.311523438 213.440429688 293.059570312 273.698242188 293.16015625 273.797851562 c 4
 293.595703125 274.233398438 326.42578125 279.727539062 326.6953125 279.411132812 c 4
 326.860351562 279.217773438 349.715820312 218.702148438 377.486328125 144.931640625 c 4
 410.766601562 56.5263671875 428.098632812 11.0859375 428.330078125 11.630859375 c 4
 428.5234375 12.0859375 431.094726562 25.3115234375 434.044921875 41.0224609375 c 4
 445.9609375 104.49609375 482.49609375 298.174804688 482.747070312 299.201171875 c 6
 483.015625 300.299804688 l 5
 499.755859375 300.299804688 l 5
 516.49609375 300.299804688 l 5
 516.763671875 299.201171875 l 6
 516.911132812 298.596679688 529.134765625 234.051757812 543.926757812 155.768554688 c 4
 558.719726562 77.484375 570.982421875 13.064453125 571.177734375 12.611328125 c 4
 571.413085938 12.0673828125 588.559570312 57.0732421875 621.778320312 145.423828125 c 4
 649.413085938 218.923828125 672.159179688 279.217773438 672.325195312 279.411132812 c 4
 672.594726562 279.724609375 705.42578125 274.235351562 705.857421875 273.803710938 c 4
 705.955078125 273.706054688 706.701171875 213.451171875 707.515625 139.90234375 c 4
 708.331054688 66.3544921875 709.061523438 6.1142578125 709.138671875 6.037109375 c 4
 709.216796875 5.958984375 736.0703125 51.09765625 768.8125 106.344726562 c 4
 801.555664062 161.591796875 831.701171875 212.439453125 835.802734375 219.33984375 c 6
 843.260742188 231.88671875 l 5
 854.369140625 226.512695312 l 6
 860.479492188 223.557617188 865.638671875 220.981445312 865.833984375 220.788085938 c 4
 866.030273438 220.595703125 863.55078125 200.55859375 860.325195312 176.26171875 c 4
 857.098632812 151.965820312 848.096679688 84.130859375 840.319335938 25.5185546875 c 6
 826.1796875 -81.048828125 l 5
 804.2109375 -118.381835938 l 5
 782.2421875 -155.715820312 l 5
 775.395507812 -194.7890625 l 5
 768.549804688 -233.861328125 l 5
 784.390625 -293.0703125 l 6
 799.368164062 -349.05078125 800.186523438 -352.329101562 799.409179688 -353.1875 c 4
 797.978515625 -354.768554688 790.013671875 -359.861328125 785.176757812 -362.286132812 c 4
 760.30078125 -374.76171875 714.23046875 -385.568359375 655.029296875 -392.81640625 c 4
 624.826171875 -396.513671875 594.557617188 -398.856445312 556.884765625 -400.412109375 c 4
 540.682617188 -401.080078125 475.578125 -401.379882812 458.063476562 -400.865234375 c 4
558.349609375 -368.168945312 m 4
 646.790039062 -364.465820312 706.45703125 -355.163085938 753.540039062 -337.737304688 c 4
 757.232421875 -336.370117188 760.25390625 -335.124023438 760.25390625 -334.966796875 c 4
 760.25390625 -334.80859375 757.012695312 -333.443359375 753.051757812 -331.931640625 c 4
 707.731445312 -314.633789062 649.629882812 -303.901367188 577.880859375 -299.572265625 c 4
 535.483398438 -297.014648438 478.33984375 -296.717773438 436.5234375 -298.837890625 c 4
 356.094726562 -302.915039062 291.872070312 -314.370117188 247.525390625 -332.547851562 c 4
 244.186523438 -333.916015625 241.0703125 -335.15234375 240.600585938 -335.295898438 c 4
 240.130859375 -335.439453125 239.74609375 -335.716796875 239.74609375 -335.913085938 c 4
 239.74609375 -336.754882812 260.461914062 -343.192382812 274.169921875 -346.611328125 c 4
 324.31640625 -359.1171875 389.907226562 -366.62890625 468.26171875 -368.83984375 c 4
 479.6640625 -369.161132812 546.5390625 -368.663085938 558.349609375 -368.168945312 c 4
260.1953125 -287.33203125 m 4
 307.313476562 -274.588867188 364.739257812 -267.301757812 443.603515625 -264.057617188 c 4
 463.079101562 -263.255859375 538.077148438 -263.255859375 557.12890625 -264.057617188 c 4
 622.635742188 -266.811523438 667.041015625 -271.509765625 710.44921875 -280.279296875 c 4
 719.456054688 -282.098632812 745.458984375 -288.407226562 747.737304688 -289.325195312 c 4
 748.4765625 -289.623046875 748.594726562 -289.517578125 748.364257812 -288.763671875 c 4
 748.208007812 -288.252929688 744.9921875 -276.1328125 741.217773438 -261.829101562 c 6
 734.354492188 -235.823242188 l 5
 737.274414062 -214.974609375 l 6
 738.879882812 -203.5078125 740.102539062 -194.03515625 739.991210938 -193.923828125 c 4
 739.634765625 -193.56640625 728.11328125 -190.9921875 716.796875 -188.740234375 c 4
 660.842773438 -177.604492188 599.88671875 -172.36328125 516.845703125 -171.547851562 c 4
 428.806640625 -170.68359375 351.806640625 -176.118164062 291.259765625 -187.467773438 c 4
 281.615234375 -189.276367188 260.561523438 -193.837890625 259.859375 -194.271484375 c 4
 259.509765625 -194.48828125 260.283203125 -201.158203125 262.254882812 -214.931640625 c 6
 265.16796875 -235.271484375 l 5
 258.05859375 -261.797851562 l 6
 254.149414062 -276.38671875 250.8203125 -288.741210938 250.663085938 -289.251953125 c 4
 250.436523438 -289.984375 250.555664062 -290.111328125 251.227539062 -289.853515625 c 4
 251.696289062 -289.673828125 255.731445312 -288.5390625 260.1953125 -287.33203125 c 4
262.20703125 -154.782226562 m 4
 302.650390625 -144.845703125 358.209960938 -137.728515625 418.45703125 -134.764648438 c 4
 465.856445312 -132.43359375 527.41796875 -132.2421875 573.486328125 -134.283203125 c 4
 639.822265625 -137.22265625 698.251953125 -144.65234375 742.032226562 -155.716796875 c 4
 745.205078125 -156.518554688 747.9453125 -157.01953125 748.122070312 -156.831054688 c 4
 748.299804688 -156.642578125 757.166015625 -139.788085938 767.825195312 -119.377929688 c 4
 778.483398438 -98.9677734375 788.509765625 -79.80859375 790.10546875 -76.8017578125 c 6
 793.006835938 -71.3349609375 l 5
 787.982421875 -73.037109375 l 6
 771.80078125 -78.5224609375 755.538085938 -80.9658203125 739.013671875 -80.39453125 c 4
 710.1015625 -79.396484375 685.813476562 -70.634765625 664.55078125 -53.53515625 c 4
 659.021484375 -49.0888671875 648.69140625 -38.513671875 643.875 -32.3681640625 c 6
 639.588867188 -26.900390625 l 5
 636.567382812 -29.3544921875 l 6
 613.309570312 -48.2353515625 583.3203125 -55.6435546875 554.013671875 -49.748046875 c 4
 533.9609375 -45.7138671875 515.759765625 -34.4521484375 501.625 -17.3330078125 c 6
 499.61328125 -14.896484375 l 5
 493.825195312 -20.5126953125 l 6
 475.040039062 -38.740234375 454.34375 -47.6884765625 428.7109375 -48.666015625 c 4
 420.3046875 -48.9873046875 412.16015625 -48.3642578125 404.541015625 -46.81640625 c 4
 390.62109375 -43.9892578125 374.75 -36.6396484375 363.427734375 -27.775390625 c 6
 360.399414062 -25.4052734375 l 5
 356.779296875 -29.6669921875 l 6
 351.333007812 -36.0791015625 340.290039062 -46.5810546875 333.977539062 -51.3515625 c 4
 326.306640625 -57.1494140625 320.877929688 -60.48828125 312.255859375 -64.7109375 c 4
 295.952148438 -72.6953125 279.083984375 -76.7724609375 259.521484375 -77.455078125 c 4
 242.666015625 -78.04296875 227.124023438 -75.7666015625 211.221679688 -70.380859375 c 6
 205.559570312 -68.462890625 l 5
 207.95703125 -72.9248046875 l 6
 209.276367188 -75.37890625 218.747070312 -93.31640625 229.00390625 -112.786132812 c 4
 254.091796875 -160.409179688 252.381835938 -157.302734375 253.33984375 -157.009765625 c 4
 253.78515625 -156.873046875 257.775390625 -155.87109375 262.20703125 -154.782226562 c 4
753.315429688 -45.859375 m 4
 763.07421875 -44.787109375 773.30859375 -41.92578125 782.1328125 -37.802734375 c 4
 787.159179688 -35.453125 795.712890625 -30.4580078125 798.239257812 -28.3955078125 c 6
 799.834960938 -27.0927734375 l 5
 813.194335938 56.8916015625 l 6
 820.541992188 103.083007812 826.51171875 140.922851562 826.4609375 140.98046875 c 4
 826.33203125 141.127929688 719.689453125 -41.63671875 719.575195312 -42.201171875 c 4
 719.403320312 -43.052734375 729.384765625 -45.41796875 735.83984375 -46.0556640625 c 4
 739.795898438 -46.4462890625 748.907226562 -46.34375 753.315429688 -45.859375 c 4
268.798828125 -42.2587890625 m 4
 275.419921875 -41.07421875 278.423828125 -40.123046875 277.96875 -39.3564453125 c 4
 277.758789062 -39.00390625 254.19921875 1.5205078125 225.612304688 50.69921875 c 4
 197.025390625 99.8779296875 173.594726562 140.065429688 173.54296875 140.006835938 c 4
 173.4921875 139.947265625 179.458007812 103.096679688 186.801757812 58.1162109375 c 6
 200.153320312 -23.666015625 l 5
 201.76171875 -24.9931640625 l 6
 204.186523438 -26.994140625 215.080078125 -33.4033203125 219.416015625 -35.37890625 c 4
 227.353515625 -38.99609375 237.526367188 -41.9775390625 245.229492188 -42.943359375 c 4
 250.266601562 -43.5751953125 263.608398438 -43.1875 268.798828125 -42.2587890625 c 4
676.637695312 149.365234375 m 6
 676.513671875 205.384765625 l 5
 636.399414062 95.2490234375 l 6
 614.3359375 34.6748046875 596.352539062 -14.9560546875 596.434570312 -15.0419921875 c 4
 596.517578125 -15.1279296875 598.262695312 -14.4990234375 600.314453125 -13.6455078125 c 4
 605.221679688 -11.6025390625 610.446289062 -8.1025390625 613.76953125 -4.6318359375 c 4
 615.24609375 -3.08984375 618.07421875 -0.7568359375 620.053710938 0.5517578125 c 4
 631.1953125 7.91796875 647.329101562 7.50390625 658.8828125 -0.4453125 c 4
 661.974609375 -2.5732421875 666.655273438 -7.392578125 669.28125 -11.15234375 c 4
 670.52734375 -12.9375 672.665039062 -15.5595703125 674.030273438 -16.978515625 c 6
 676.513671875 -19.55859375 l 5
 676.637695312 36.8935546875 l 6
 676.706054688 67.9423828125 676.706054688 118.5546875 676.637695312 149.365234375 c 6
328.215820312 -9.2705078125 m 5
 333.020507812 -0.7353515625 339.900390625 4.6796875 349.12109375 7.1826171875 c 4
 353.059570312 8.251953125 363.682617188 8.380859375 367.67578125 7.4072265625 c 4
 369.15234375 7.0478515625 372.610351562 5.671875 375.359375 4.3505859375 c 4
 379.6328125 2.296875 381.048828125 1.2861328125 385.125 -2.6220703125 c 4
 389.774414062 -7.0791015625 393.482421875 -9.427734375 400.4921875 -12.3544921875 c 6
 402.301757812 -13.109375 l 5
 400.673828125 -8.626953125 l 6
 398.166992188 -1.7216796875 329.948242188 184.994140625 325.892578125 196.051757812 c 6
 322.311523438 205.817382812 l 5
 322.288085938 94.7529296875 l 5
 322.265625 -16.310546875 l 5
 324.484375 -14.1337890625 l 6
 325.705078125 -12.9365234375 327.383789062 -10.748046875 328.215820312 -9.2705078125 c 6
 328.215820312 -9.2705078125 l 5
520.85546875 108.298828125 m 4
 509.526367188 173.616210938 500.139648438 227.057617188 499.998046875 227.057617188 c 4
 499.85546875 227.057617188 498.8046875 221.728515625 497.663085938 215.216796875 c 4
 481.961914062 125.66015625 458.922851562 -5.451171875 458.686523438 -6.5849609375 c 6
 458.381835938 -8.0498046875 l 5
 459.538085938 -7.0087890625 l 6
 460.173828125 -6.435546875 461.38671875 -5.6171875 462.233398438 -5.189453125 c 4
 464.00390625 -4.294921875 464.924804688 -3.185546875 468.315429688 2.142578125 c 4
 476.1015625 14.375 487.399414062 20.1630859375 501.953125 19.3740234375 c 4
 515.53125 18.6376953125 524.26171875 13.1162109375 529.811523438 1.7548828125 c 4
 531.908203125 -2.5380859375 532.795898438 -3.8017578125 535.086914062 -5.7548828125 c 4
 538.399414062 -8.5791015625 541.188476562 -10.7255859375 541.342773438 -10.5712890625 c 4
 541.404296875 -10.509765625 532.185546875 42.982421875 520.85546875 108.298828125 c 4
107.177734375 222.962890625 m 4
 103.538085938 223.346679688 95.5556640625 225.178710938 92.0810546875 226.426757812 c 4
 83.041015625 229.672851562 75.4365234375 234.586914062 68.091796875 241.928710938 c 4
 55.2744140625 254.740234375 49.2119140625 268.638671875 48.4873046875 286.872070312 c 4
 47.712890625 306.387695312 54.1591796875 322.771484375 68.091796875 336.697265625 c 4
 80.50390625 349.103515625 94.4111328125 355.118164062 112.3046875 355.818359375 c 4
 126.888671875 356.389648438 140.25390625 352.663085938 152.196289062 344.697265625 c 4
 157.1640625 341.383789062 167.483398438 330.986328125 170.819335938 325.934570312 c 4
 177.689453125 315.529296875 180.94921875 305.16015625 181.485351562 291.999023438 c 4
 182.32421875 271.418945312 174.424804688 252.985351562 158.84765625 239.173828125 c 4
 150.237304688 231.5390625 140.751953125 226.731445312 129.150390625 224.122070312 c 4
 124.82421875 223.1484375 111.880859375 222.465820312 107.177734375 222.962890625 c 4
126.869140625 258.2890625 m 4
 137.276367188 261.252929688 143.236328125 267.287109375 146.109375 277.768554688 c 4
 147.491210938 282.809570312 147.616210938 295.403320312 146.3359375 300.494140625 c 4
 144.364257812 308.331054688 139.317382812 315.075195312 133.241210938 317.9921875 c 4
 127.629882812 320.6875 123.509765625 321.494140625 115.234375 321.517578125 c 4
 102.944335938 321.552734375 96.2255859375 319.337890625 90.4814453125 313.356445312 c 4
 85.4423828125 308.108398438 83.1767578125 301.983398438 82.669921875 292.243164062 c 4
 81.64453125 272.509765625 89.5576171875 260.669921875 105.836914062 257.580078125 c 4
 111.219726562 256.55859375 122.075195312 256.924804688 126.869140625 258.2890625 c 4
876.096679688 223.16796875 m 5
 854.56640625 225.874023438 834.852539062 240.153320312 824.918945312 260.239257812 c 4
 822.620117188 264.887695312 820.861328125 270.151367188 819.525390625 276.374023438 c 4
 818.288085938 282.143554688 818.259765625 296.3359375 819.474609375 302.341796875 c 4
 822.217773438 315.907226562 827.481445312 325.533203125 837.876953125 335.998046875 c 4
 848.389648438 346.581054688 858.368164062 352.025390625 872.375976562 354.821289062 c 4
 878.356445312 356.014648438 892.106445312 356.024414062 898.038085938 354.838867188 c 4
 911.642578125 352.119140625 921.310546875 346.80078125 931.904296875 336.20703125 c 4
 940.533203125 327.577148438 945.052734375 320.520507812 948.41015625 310.432617188 c 4
 952.423828125 298.372070312 952.643554688 283.036132812 948.98828125 270.270507812 c 4
 942.423828125 247.349609375 921.806640625 228.471679688 898.3046875 223.861328125 c 4
 893.544921875 222.927734375 881.1015625 222.5390625 876.096679688 223.16796875 c 5
 876.096679688 223.16796875 l 5
896.44140625 258.046875 m 4
 903.991210938 259.9140625 910.8046875 265.055664062 913.689453125 271.061523438 c 4
 916.383789062 276.672851562 917.190429688 280.79296875 917.21484375 289.069335938 c 4
 917.240234375 297.87109375 916.422851562 302.28515625 913.793945312 307.5390625 c 4
 911.814453125 311.497070312 907.233398438 316.138671875 903.380859375 318.090820312 c 4
 898.268554688 320.681640625 894.11328125 321.459960938 885.25390625 321.48828125 c 4
 878.28515625 321.509765625 876.672851562 321.36328125 873.313476562 320.40234375 c 4
 862.533203125 317.317382812 856.310546875 311.012695312 853.6640625 300.494140625 c 4
 852.3359375 295.211914062 852.466796875 282.729492188 853.904296875 277.692382812 c 4
 857.307617188 265.763671875 864.771484375 259.358398438 877.673828125 257.29296875 c 4
 881.37109375 256.701171875 892.8671875 257.163085938 896.44140625 258.046875 c 4
285.15625 276.88671875 m 4
 261.154296875 279.848632812 239.530273438 297.206054688 231.302734375 320.114257812 c 4
 228.666015625 327.45703125 227.799804688 332.995117188 227.797851562 342.536132812 c 4
 227.795898438 352.008789062 228.418945312 356.456054688 230.741210938 363.571289062 c 4
 236.124023438 380.059570312 249.155273438 395.057617188 265.013671875 403.014648438 c 4
 274.091796875 407.569335938 282.130859375 409.341796875 293.9453125 409.393554688 c 4
 303.397460938 409.434570312 307.225585938 408.919921875 314.453125 406.638671875 c 4
 333.924804688 400.494140625 351.209960938 383.260742188 357.630859375 363.59375 c 4
 361.626953125 351.3515625 361.809570312 336.259765625 358.118164062 323.36328125 c 4
 356.356445312 317.208984375 352.15625 308.94140625 347.961914062 303.374023438 c 4
 338.04296875 290.20703125 324.060546875 281.083007812 308.837890625 277.844726562 c 4
 303.212890625 276.6484375 291.068359375 276.157226562 285.15625 276.88671875 c 4
306.227539062 311.944335938 m 5
 311.439453125 313.3203125 314.655273438 315.080078125 318.232421875 318.514648438 c 4
 324.213867188 324.258789062 326.4296875 330.977539062 326.39453125 343.268554688 c 4
 326.375976562 349.609375 326.193359375 351.466796875 325.26953125 354.720703125 c 4
 322.213867188 365.482421875 315.868164062 371.74609375 305.37109375 374.361328125 c 4
 300.540039062 375.564453125 288.694335938 375.565429688 283.567382812 374.362304688 c 4
 272.71875 371.817382812 266.02734375 365.354492188 263.0703125 354.568359375 c 4
 261.688476562 349.52734375 261.563476562 336.93359375 262.84375 331.842773438 c 4
 264.6328125 324.734375 268.51171875 318.966796875 273.762695312 315.607421875 c 4
 276.645507812 313.762695312 282.43359375 311.6953125 286.525390625 311.047851562 c 4
 291.10546875 310.323242188 301.958007812 310.817382812 306.227539062 311.944335938 c 5
 306.227539062 311.944335938 l 5
695.80078125 276.88671875 m 4
 671.798828125 279.848632812 650.174804688 297.206054688 641.947265625 320.114257812 c 4
 639.310546875 327.45703125 638.444335938 332.995117188 638.442382812 342.536132812 c 4
 638.442382812 352.008789062 639.063476562 356.456054688 641.385742188 363.571289062 c 4
 646.768554688 380.059570312 659.799804688 395.057617188 675.658203125 403.014648438 c 4
 684.736328125 407.569335938 692.775390625 409.341796875 704.58984375 409.393554688 c 4
 714.041992188 409.434570312 717.870117188 408.919921875 725.09765625 406.638671875 c 4
 744.569335938 400.494140625 761.854492188 383.260742188 768.275390625 363.59375 c 4
 772.271484375 351.3515625 772.454101562 336.259765625 768.762695312 323.36328125 c 4
 767.000976562 317.208984375 762.80078125 308.94140625 758.606445312 303.374023438 c 4
 748.6875 290.20703125 734.705078125 281.083007812 719.482421875 277.844726562 c 4
 713.857421875 276.6484375 701.712890625 276.157226562 695.80078125 276.88671875 c 4
716.872070312 311.944335938 m 5
 722.083984375 313.3203125 725.299804688 315.080078125 728.876953125 318.514648438 c 4
 734.858398438 324.258789062 737.07421875 330.977539062 737.0390625 343.268554688 c 4
 737.020507812 349.609375 736.837890625 351.466796875 735.9140625 354.720703125 c 4
 732.858398438 365.482421875 726.512695312 371.74609375 716.015625 374.361328125 c 4
 711.184570312 375.564453125 699.338867188 375.565429688 694.211914062 374.362304688 c 4
 683.36328125 371.817382812 676.671875 365.354492188 673.71484375 354.568359375 c 4
 672.333007812 349.52734375 672.208007812 336.93359375 673.48828125 331.842773438 c 4
 675.27734375 324.734375 679.15625 318.966796875 684.407226562 315.607421875 c 4
 687.290039062 313.762695312 693.078125 311.6953125 697.169921875 311.047851562 c 4
 701.75 310.323242188 712.602539062 310.817382812 716.872070312 311.944335938 c 5
 716.872070312 311.944335938 l 5
491.943359375 301.123046875 m 4
 488.547851562 301.419921875 480.435546875 303.262695312 476.846679688 304.551757812 c 4
 467.806640625 307.797851562 460.202148438 312.711914062 452.857421875 320.053710938 c 4
 440.040039062 332.865234375 433.977539062 346.763671875 433.252929688 364.997070312 c 4
 432.478515625 384.512695312 438.924804688 400.896484375 452.857421875 414.822265625 c 4
 465.05078125 427.009765625 478.958007812 433.126953125 496.337890625 433.946289062 c 4
 509.954101562 434.587890625 523.237304688 431.26953125 533.936523438 424.552734375 c 4
 550.40234375 414.21484375 561.481445312 398.663085938 565.232421875 380.622070312 c 4
 566.59375 374.073242188 566.48828125 360.474609375 565.022460938 353.65234375 c 4
 561.892578125 339.078125 554.65234375 327.103515625 542.784179688 316.872070312 c 4
 528.602539062 304.646484375 511.658203125 299.397460938 491.943359375 301.123046875 c 4
507.114257812 335.979492188 m 4
 519.950195312 337.764648438 528.114257812 344.833984375 531.09765625 356.745117188 c 4
 531.715820312 359.212890625 531.940429688 362.13671875 531.940429688 367.682617188 c 4
 531.940429688 379.583984375 529.880859375 385.767578125 523.96875 391.6171875 c 4
 520.41015625 395.137695312 517.298828125 396.852539062 511.415039062 398.537109375 c 4
 508.09765625 399.487304688 506.458984375 399.634765625 499.51171875 399.61328125 c 4
 492.883789062 399.592773438 490.791992188 399.405273438 487.717773438 398.559570312 c 4
 482.44921875 397.109375 479.260742188 395.353515625 475.712890625 391.947265625 c 4
 469.833007812 386.30078125 467.529296875 379.469726562 467.529296875 367.682617188 c 4
 467.529296875 359.405273438 468.405273438 354.831054688 470.971679688 349.700195312 c 4
 473.723632812 344.198242188 479.409179688 339.401367188 485.52734375 337.419921875 c 4
 491.155273438 335.596679688 500.081054688 335.000976562 507.114257812 335.979492188 c 4
EndSplineSet
EndChar

StartChar: r
Encoding: 114 114 19
Width: 1000
Flags: H
LayerCount: 2
Fore
SplineSet
166.50390625 -335.461914062 m 5
 166.50390625 -277.112304688 l 5
 203.857421875 -277.112304688 l 5
 241.2109375 -277.112304688 l 5
 241.2109375 -227.16796875 l 5
 241.2109375 -177.22265625 l 5
 282.959960938 -135.500976562 l 5
 324.708984375 -93.779296875 l 5
 324.5859375 22.892578125 l 5
 324.462890625 139.565429688 l 5
 270.5078125 181.1328125 l 5
 216.552734375 222.700195312 l 5
 216.4296875 314.346679688 l 5
 216.305664062 405.993164062 l 5
 282.958007812 405.993164062 l 5
 349.609375 405.993164062 l 5
 349.609375 372.545898438 l 5
 349.609375 339.098632812 l 5
 391.357421875 339.098632812 l 5
 433.10546875 339.098632812 l 5
 433.10546875 372.545898438 l 5
 433.10546875 405.993164062 l 5
 500 405.993164062 l 5
 566.89453125 405.993164062 l 5
 566.89453125 372.545898438 l 5
 566.89453125 339.098632812 l 5
 608.3984375 339.098632812 l 5
 649.90234375 339.098632812 l 5
 649.90234375 372.545898438 l 5
 649.90234375 405.993164062 l 5
 716.797851562 405.993164062 l 5
 783.694335938 405.993164062 l 5
 783.5703125 314.350585938 l 5
 783.447265625 222.708007812 l 5
 729.4921875 181.139648438 l 5
 675.537109375 139.571289062 l 5
 675.4140625 22.904296875 l 5
 675.291015625 -93.7626953125 l 5
 716.795898438 -135.265625 l 5
 758.30078125 -176.768554688 l 5
 758.30078125 -226.940429688 l 5
 758.30078125 -277.112304688 l 5
 795.654296875 -277.112304688 l 5
 833.0078125 -277.112304688 l 5
 833.0078125 -335.461914062 l 5
 833.0078125 -393.811523438 l 5
 499.755859375 -393.811523438 l 5
 166.50390625 -393.811523438 l 5
 166.50390625 -335.461914062 l 5
800.29296875 -335.461914062 m 5
 800.29296875 -310.315429688 l 5
 500 -310.315429688 l 5
 199.70703125 -310.315429688 l 5
 199.70703125 -335.461914062 l 5
 199.70703125 -360.608398438 l 5
 500 -360.608398438 l 5
 800.29296875 -360.608398438 l 5
 800.29296875 -335.461914062 l 5
724.609375 -243.909179688 m 5
 724.609375 -210.706054688 l 5
 500 -210.706054688 l 5
 275.390625 -210.706054688 l 5
 275.390625 -243.909179688 l 5
 275.390625 -277.112304688 l 5
 500 -277.112304688 l 5
 724.609375 -277.112304688 l 5
 724.609375 -243.909179688 l 5
687.236328125 -152.109375 m 5
 662.315429688 -127.209960938 l 5
 500.307617188 -127.209960938 l 5
 338.30078125 -127.209960938 l 5
 312.94921875 -151.911132812 l 6
 299.005859375 -165.49609375 287.59765625 -176.702148438 287.59765625 -176.813476562 c 4
 287.59765625 -176.923828125 383.124023438 -177.013671875 499.877929688 -177.01171875 c 6
 712.158203125 -177.006835938 l 5
 687.236328125 -152.109375 l 5
641.6015625 22.6923828125 m 5
 641.6015625 139.391601562 l 5
 500 139.391601562 l 5
 358.3984375 139.391601562 l 5
 358.3984375 22.6923828125 l 5
 358.3984375 -94.0068359375 l 5
 500 -94.0068359375 l 5
 641.6015625 -94.0068359375 l 5
 641.6015625 22.6923828125 l 5
689.537109375 197.619140625 m 5
 720.379882812 222.643554688 l 5
 610.190429688 222.766601562 l 6
 549.5859375 222.833984375 450.413085938 222.833984375 389.806640625 222.766601562 c 6
 279.61328125 222.643554688 l 5
 310.583007812 197.655273438 l 5
 341.552734375 172.666015625 l 5
 500.123046875 172.630859375 l 5
 658.693359375 172.594726562 l 5
 689.537109375 197.619140625 l 5
750 314.440429688 m 5
 750 372.790039062 l 5
 716.552734375 372.790039062 l 5
 683.10546875 372.790039062 l 5
 683.10546875 339.342773438 l 5
 683.10546875 305.895507812 l 5
 607.91015625 305.895507812 l 5
 532.71484375 305.895507812 l 5
 532.71484375 339.342773438 l 5
 532.71484375 372.790039062 l 5
 499.755859375 372.790039062 l 5
 466.796875 372.790039062 l 5
 466.796875 339.342773438 l 5
 466.796875 305.895507812 l 5
 391.845703125 305.895507812 l 5
 316.89453125 305.895507812 l 5
 316.89453125 339.342773438 l 5
 316.89453125 372.790039062 l 5
 283.447265625 372.790039062 l 5
 250 372.790039062 l 5
 250 314.440429688 l 5
 250 256.090820312 l 5
 500 256.090820312 l 5
 750 256.090820312 l 5
 750 314.440429688 l 5
EndSplineSet
EndChar

StartChar: t
Encoding: 116 116 20
Width: 1000
Flags: H
LayerCount: 2
Fore
SplineSet
166.50390625 -358.461914062 m 1
 166.50390625 -300.112304688 l 1
 203.857421875 -300.112304688 l 1
 241.2109375 -300.112304688 l 1
 241.2109375 -250.16796875 l 1
 241.2109375 -200.22265625 l 1
 282.959960938 -158.500976562 l 1
 324.708984375 -116.779296875 l 1
 324.5859375 -0.107421875 l 1
 324.462890625 116.565429688 l 1
 270.5078125 158.1328125 l 1
 216.552734375 199.700195312 l 1
 216.4296875 291.346679688 l 1
 216.305664062 382.993164062 l 1
 282.958007812 382.993164062 l 1
 349.609375 382.993164062 l 1
 349.609375 349.545898438 l 1
 349.609375 316.098632812 l 1
 391.357421875 316.098632812 l 1
 433.10546875 316.098632812 l 1
 433.10546875 349.545898438 l 1
 433.10546875 382.993164062 l 1
 500 382.993164062 l 1
 566.89453125 382.993164062 l 1
 566.89453125 349.545898438 l 1
 566.89453125 316.098632812 l 1
 608.3984375 316.098632812 l 1
 649.90234375 316.098632812 l 1
 649.90234375 349.545898438 l 1
 649.90234375 382.993164062 l 1
 716.797851562 382.993164062 l 1
 783.694335938 382.993164062 l 1
 783.5703125 291.350585938 l 1
 783.447265625 199.708007812 l 1
 729.4921875 158.139648438 l 1
 675.537109375 116.571289062 l 1
 675.4140625 -0.095703125 l 1
 675.291015625 -116.762695312 l 1
 716.795898438 -158.265625 l 1
 758.30078125 -199.768554688 l 1
 758.30078125 -249.940429688 l 1
 758.30078125 -300.112304688 l 1
 795.654296875 -300.112304688 l 1
 833.0078125 -300.112304688 l 1
 833.0078125 -358.461914062 l 1
 833.0078125 -416.811523438 l 1
 499.755859375 -416.811523438 l 1
 166.50390625 -416.811523438 l 1
 166.50390625 -358.461914062 l 1
724.609375 -317.202148438 m 1
 724.609375 -292.299804688 l 1
 500 -292.299804688 l 1
 275.390625 -292.299804688 l 1
 275.390625 -317.202148438 l 1
 275.390625 -342.104492188 l 1
 500 -342.104492188 l 1
 724.609375 -342.104492188 l 1
 724.609375 -317.202148438 l 1
724.609375 -227.400390625 m 1
 724.609375 -213.28125 l 1
 713.412109375 -202.7421875 l 1
 702.21484375 -192.202148438 l 1
 500 -192.202148438 l 1
 297.78515625 -192.202148438 l 1
 286.587890625 -202.7421875 l 1
 275.390625 -213.28125 l 1
 275.390625 -227.400390625 l 1
 275.390625 -241.518554688 l 1
 500 -241.518554688 l 1
 724.609375 -241.518554688 l 1
 724.609375 -227.400390625 l 1
656.109375 -144.698242188 m 1
 641.563476562 -130.434570312 l 1
 641.583007812 -119.326171875 l 1
 641.6015625 -108.217773438 l 1
 500 -108.217773438 l 1
 358.3984375 -108.217773438 l 1
 358.416992188 -119.326171875 l 1
 358.436523438 -130.434570312 l 1
 343.890625 -144.698242188 l 1
 329.345703125 -158.961914062 l 1
 500 -158.961914062 l 1
 670.654296875 -158.961914062 l 1
 656.109375 -144.698242188 l 1
641.715820312 121.62109375 m 1
 641.845703125 135.638671875 l 1
 656.217773438 146.889648438 l 1
 670.590820312 158.139648438 l 1
 585.294921875 158.262695312 l 2
 538.3828125 158.331054688 461.6171875 158.331054688 414.704101562 158.262695312 c 2
 329.409179688 158.139648438 l 1
 343.78125 146.889648438 l 1
 358.154296875 135.638671875 l 1
 358.284179688 121.62109375 l 1
 358.413085938 107.602539062 l 1
 500 107.602539062 l 1
 641.586914062 107.602539062 l 1
 641.715820312 121.62109375 l 1
732.0546875 204.9296875 m 1
 749.267578125 218.272460938 l 1
 749.3984375 229.587890625 l 1
 749.529296875 240.903320312 l 1
 499.755859375 240.903320312 l 1
 249.982421875 240.903320312 l 1
 250.11328125 229.6015625 l 1
 250.244140625 218.299804688 l 1
 267.822265625 204.97265625 l 1
 285.400390625 191.64453125 l 1
 500.12109375 191.616210938 l 1
 714.842773438 191.586914062 l 1
 732.0546875 204.9296875 l 1
EndSplineSet
EndChar

StartChar: v
Encoding: 118 118 21
Width: 1000
Flags: H
LayerCount: 2
Fore
SplineSet
342.615234375 -377.016601562 m 1
 339.120117188 -376.66796875 304.63671875 -371.909179688 224.20703125 -360.67578125 c 0
 209.5703125 -358.631835938 195.3984375 -356.84375 192.712890625 -356.702148438 c 0
 189.662109375 -356.541015625 185.356445312 -356.737304688 181.23828125 -357.225585938 c 0
 177.612304688 -357.65625 172.888671875 -358.01171875 170.740234375 -358.016601562 c 0
 160.077148438 -358.04296875 142.116210938 -362.41015625 132.203125 -367.38671875 c 0
 127.60546875 -369.6953125 124.668945312 -371.639648438 121.822265625 -374.259765625 c 2
 119.779296875 -376.139648438 l 1
 119.055664062 -375.008789062 l 2
 118.658203125 -374.38671875 107.966796875 -356.874023438 95.298828125 -336.091796875 c 2
 72.265625 -298.3046875 l 1
 75.6044921875 -294.913085938 l 2
 82.419921875 -287.98828125 85.921875 -285.611328125 98.474609375 -279.393554688 c 0
 117.77734375 -269.831054688 133.436523438 -264.764648438 152.75 -261.834960938 c 0
 163.290039062 -260.235351562 169.984375 -259.875 189.294921875 -259.865234375 c 0
 199.5 -259.859375 210.29296875 -259.639648438 213.279296875 -259.375 c 0
 218.517578125 -258.911132812 219.1875 -258.970703125 232.322265625 -261.061523438 c 0
 264.307617188 -266.153320312 324.857421875 -274.512695312 329.73828125 -274.51171875 c 0
 335.532226562 -274.51171875 346.25 -273.64453125 351.33203125 -272.768554688 c 0
 358.374023438 -271.5546875 362.782226562 -269.904296875 369.04296875 -266.13671875 c 0
 385.67578125 -256.126953125 393.305664062 -249.766601562 403.3046875 -237.576171875 c 2
 405.365234375 -235.063476562 l 1
 401.08984375 -234.49609375 l 2
 375.419921875 -231.087890625 347.268554688 -224.407226562 319.883789062 -215.225585938 c 0
 307.350585938 -211.0234375 305.482421875 -210.271484375 305.622070312 -209.489257812 c 0
 305.686523438 -209.131835938 316.638671875 -181.8125 329.961914062 -148.780273438 c 0
 343.284179688 -115.748046875 354.591796875 -87.6982421875 355.088867188 -86.447265625 c 2
 355.993164062 -84.171875 l 1
 344.421875 -77.2333984375 l 2
 321.794921875 -63.666015625 307.330078125 -53.3447265625 298.248046875 -44.2861328125 c 0
 289 -35.0634765625 283.7109375 -27.3857421875 275.711914062 -11.5732421875 c 0
 266.801757812 6.0390625 263.250976562 17.8974609375 260.5078125 39.2080078125 c 0
 259.283203125 48.7197265625 259.274414062 70.78125 260.491210938 79.4912109375 c 0
 264.234375 106.275390625 274.03515625 134.513671875 285.658203125 152.004882812 c 0
 292.838867188 162.809570312 304.15234375 175.248046875 315.026367188 184.293945312 c 0
 317.309570312 186.192382812 324.12109375 191.556640625 330.163085938 196.213867188 c 0
 348.821289062 210.594726562 371.772460938 229.193359375 385.827148438 241.321289062 c 0
 402.791015625 255.958007812 420.630859375 273.69140625 437.9921875 293.17578125 c 2
 441.961914062 297.631835938 l 1
 438.186523438 299.827148438 l 2
 425.598632812 307.150390625 415.501953125 318.219726562 410.854492188 329.794921875 c 0
 403.896484375 347.123046875 404.249023438 368.625976562 411.751953125 384.63671875 c 0
 414.948242188 391.458007812 419.662109375 398.041015625 425.598632812 403.975585938 c 0
 435.1953125 413.56640625 445.229492188 419.067382812 458.223632812 421.858398438 c 0
 464.856445312 423.282226562 478.576171875 423.416992188 485.038085938 422.120117188 c 0
 493.612304688 420.399414062 501.362304688 417.21484375 508.629882812 412.42578125 c 0
 513.768554688 409.040039062 524.458984375 398.350585938 527.84375 393.211914062 c 0
 534.71875 382.778320312 537.970703125 372.422851562 538.501953125 359.276367188 c 0
 539.546875 333.392578125 528.401367188 312.934570312 506.060546875 299.73046875 c 2
 502.513671875 297.633789062 l 1
 505.802734375 293.909179688 l 2
 521.693359375 275.913085938 539.486328125 257.698242188 552.331054688 246.276367188 c 0
 568.28125 232.09375 591.158203125 213.541015625 612.826171875 197.215820312 c 0
 619.376953125 192.280273438 627.067382812 186.2421875 629.916015625 183.798828125 c 0
 648.770507812 167.625 662.34765625 149.075195312 670.16796875 128.807617188 c 0
 676.484375 112.438476562 680.977539062 95.259765625 683.514648438 77.7822265625 c 0
 685.53125 63.892578125 684.057617188 38.5654296875 680.176757812 20.4091796875 c 0
 676.326171875 2.3896484375 667.469726562 -16.9423828125 656.130859375 -32.0810546875 c 0
 644.895507812 -47.0810546875 629.5390625 -59.3369140625 598.372070312 -78.1806640625 c 2
 588.50390625 -84.146484375 l 1
 589.411132812 -86.43359375 l 2
 589.91015625 -87.6923828125 601.219726562 -115.748046875 614.543945312 -148.780273438 c 0
 627.8671875 -181.8125 638.821289062 -209.142578125 638.884765625 -209.512695312 c 0
 638.965820312 -209.979492188 636.40625 -211.073242188 630.584960938 -213.061523438 c 0
 603.208984375 -222.408203125 571.625 -230.349609375 548.424804688 -233.716796875 c 0
 543.725585938 -234.399414062 539.701171875 -234.958984375 539.481445312 -234.959960938 c 0
 537.854492188 -234.966796875 553.106445312 -251.211914062 558.696289062 -255.422851562 c 0
 567.462890625 -262.029296875 580.094726562 -269.34375 585.663085938 -271.038085938 c 0
 592.043945312 -272.98046875 604.8828125 -274.512695312 614.774414062 -274.512695312 c 0
 618.868164062 -274.512695312 686.333984375 -265.173828125 713.41796875 -260.858398438 c 0
 725.23828125 -258.975585938 726.067382812 -258.905273438 730.99609375 -259.373046875 c 0
 733.841796875 -259.642578125 744.62890625 -259.865234375 754.967773438 -259.869140625 c 0
 775.516601562 -259.874023438 781.705078125 -260.237304688 792.911132812 -262.090820312 c 0
 812.401367188 -265.314453125 830.727539062 -271.370117188 847.741210938 -280.208007812 c 0
 858.27734375 -285.680664062 861.385742188 -287.786132812 867.34765625 -293.487304688 c 2
 872.30078125 -298.223632812 l 1
 849.44140625 -335.318359375 l 2
 836.868164062 -355.720703125 826.056640625 -373.252929688 825.4140625 -374.279296875 c 2
 824.247070312 -376.146484375 l 1
 822.092773438 -374.16015625 l 2
 817.754882812 -370.162109375 810.727539062 -366.359375 802.786132812 -363.711914062 c 0
 792.283203125 -360.209960938 781.028320312 -358.017578125 773.522460938 -358.010742188 c 0
 771.240234375 -358.010742188 766.40625 -357.65625 762.780273438 -357.225585938 c 0
 758.678710938 -356.739257812 754.344726562 -356.541015625 751.305664062 -356.69921875 c 0
 748.620117188 -356.83984375 714.892578125 -361.35546875 676.354492188 -366.734375 c 0
 637.817382812 -372.11328125 604.010742188 -376.745117188 601.229492188 -377.02734375 c 0
 590.771484375 -378.087890625 578.39453125 -377.528320312 567.997070312 -375.5234375 c 0
 553.700195312 -372.767578125 535.583007812 -365.365234375 523.233398438 -357.232421875 c 0
 513.581054688 -350.875976562 491.198242188 -331.422851562 485.806640625 -324.705078125 c 0
 481.51953125 -319.36328125 476.399414062 -307.180664062 473.690429688 -295.875 c 0
 473.0625 -293.256835938 472.427734375 -291.115234375 472.279296875 -291.1171875 c 0
 472.130859375 -291.1171875 471.276367188 -293.809570312 470.379882812 -297.098632812 c 0
 467.05859375 -309.287109375 462.483398438 -319.71875 457.634765625 -326.15234375 c 0
 451.58984375 -334.173828125 435.775390625 -347.641601562 423.33203125 -355.36328125 c 0
 408.88671875 -364.328125 388.4296875 -372.8671875 375.0078125 -375.534179688 c 0
 365.372070312 -377.44921875 352.7421875 -378.02734375 342.614257812 -377.016601562 c 1
 342.615234375 -377.016601562 l 1
446.216796875 -274.756835938 m 2
 451.126953125 -262.520507812 453.747070312 -251.551757812 454.485351562 -240.13671875 c 2
 454.819335938 -234.961914062 l 1
 446.948242188 -234.961914062 l 1
 439.076171875 -234.961914062 l 1
 436.744140625 -238.669921875 l 2
 426.018554688 -255.725585938 413.993164062 -269.818359375 401.693359375 -279.748046875 c 2
 399.744140625 -281.322265625 l 1
 421.70703125 -281.212890625 l 1
 443.669921875 -281.104492188 l 1
 446.216796875 -274.756835938 l 2
541.58984375 -279.549804688 m 2
 537.3828125 -276.143554688 525.62890625 -263.978515625 521.390625 -258.643554688 c 0
 519.04296875 -255.689453125 514.35546875 -249.15234375 510.973632812 -244.1171875 c 2
 504.825195312 -234.961914062 l 1
 497.009765625 -234.961914062 l 1
 489.194335938 -234.961914062 l 1
 489.512695312 -240.5234375 l 2
 490.239257812 -253.2421875 494.372070312 -269.15234375 499.625 -279.44921875 c 2
 500.59375 -281.348632812 l 1
 522.190429688 -281.338867188 l 1
 543.787109375 -281.330078125 l 1
 541.58984375 -279.549804688 l 2
601.3828125 -195.533203125 m 0
 600.9609375 -194.526367188 596.419921875 -183.484375 591.29296875 -170.997070312 c 0
 586.166015625 -158.508789062 581.803710938 -148.102539062 581.598632812 -147.87109375 c 0
 581.12109375 -147.331054688 574.614257812 -145.991210938 562.341796875 -143.908203125 c 0
 511.362304688 -135.252929688 447.806640625 -134.517578125 395.349609375 -141.977539062 c 0
 382.380859375 -143.821289062 364.634765625 -147.10546875 363.952148438 -147.788085938 c 0
 363.6328125 -148.107421875 343.389648438 -196.571289062 343.520507812 -196.704101562 c 0
 343.559570312 -196.743164062 347.65625 -195.83984375 352.625 -194.696289062 c 0
 428.793945312 -177.159179688 519.40625 -177.497070312 594.568359375 -195.599609375 c 0
 598.328125 -196.504882812 601.572265625 -197.272460938 601.77734375 -197.3046875 c 0
 601.982421875 -197.337890625 601.8046875 -196.540039062 601.3828125 -195.533203125 c 0
393.15234375 -95.33203125 m 1
 431.333007812 -89.298828125 477.211914062 -87.876953125 519.045898438 -91.4296875 c 0
 531.46875 -92.4853515625 546.400390625 -94.287109375 555.211914062 -95.7939453125 c 0
 558.296875 -96.3212890625 560.865234375 -96.7041015625 560.919921875 -96.6435546875 c 0
 560.973632812 -96.5830078125 557.866210938 -88.953125 554.012695312 -79.6884765625 c 2
 547.006835938 -62.8427734375 l 1
 546.984375 -56.1826171875 l 1
 546.9609375 -49.5234375 l 1
 545.374023438 -49.2392578125 l 2
 539.009765625 -48.1005859375 519.529296875 -46.0859375 503.748046875 -44.9345703125 c 0
 492.8125 -44.1357421875 452.689453125 -44.1357421875 441.4921875 -44.93359375 c 0
 426.487304688 -46.001953125 406.538085938 -48.0283203125 399.680664062 -49.1806640625 c 2
 398.15234375 -49.4375 l 1
 397.797851562 -56.1396484375 l 1
 397.444335938 -62.8427734375 l 1
 392.079101562 -76.7587890625 l 2
 389.12890625 -84.412109375 386.188476562 -92.064453125 385.546875 -93.763671875 c 2
 384.37890625 -96.8525390625 l 1
 385.713867188 -96.57421875 l 2
 386.448242188 -96.421875 389.795898438 -95.8623046875 393.15234375 -95.33203125 c 1
 393.15234375 -95.33203125 l 1
477.72265625 14.1220703125 m 1
 484.467773438 15.5537109375 488.342773438 19.427734375 489.771484375 26.1708984375 c 0
 490.131835938 27.8701171875 490.3203125 36.4521484375 490.3203125 51.173828125 c 2
 490.3203125 73.58984375 l 1
 515.150390625 73.7333984375 l 1
 539.981445312 73.8759765625 l 1
 543.348632812 75.5888671875 l 2
 545.953125 76.9130859375 547.075195312 77.8369140625 548.296875 79.6630859375 c 0
 550.520507812 82.984375 551.088867188 85.333984375 551.088867188 91.2099609375 c 0
 551.088867188 97.0859375 550.520507812 99.435546875 548.296875 102.7578125 c 0
 547.075195312 104.583007812 545.953125 105.506835938 543.348632812 106.831054688 c 2
 539.981445312 108.543945312 l 1
 515.150390625 108.6875 l 1
 490.3203125 108.830078125 l 1
 490.3203125 132.165039062 l 2
 490.3203125 147.75390625 490.134765625 156.424804688 489.760742188 158.286132812 c 0
 488.659179688 163.771484375 484.631835938 168.377929688 479.665039062 169.8359375 c 0
 476.602539062 170.734375 470.559570312 170.977539062 467.2890625 170.333984375 c 0
 460.080078125 168.916015625 456.21484375 165.180664062 454.735351562 158.202148438 c 0
 454.374023438 156.494140625 454.1875 147.666992188 454.1875 132.22265625 c 2
 454.1875 108.831054688 l 1
 429.844726562 108.6875 l 1
 405.502929688 108.543945312 l 1
 402.134765625 106.831054688 l 2
 398.450195312 104.95703125 396.155273438 102.233398438 395.000976562 98.3671875 c 0
 394.21875 95.7451171875 394.21875 86.6748046875 395.000976562 84.052734375 c 0
 396.155273438 80.1865234375 398.450195312 77.462890625 402.135742188 75.5888671875 c 2
 405.50390625 73.8759765625 l 1
 421.911132812 73.5556640625 l 2
 430.934570312 73.3798828125 441.888671875 73.21484375 446.252929688 73.189453125 c 2
 454.1875 73.1435546875 l 1
 454.1875 50.951171875 l 2
 454.1875 36.39453125 454.375976562 27.8681640625 454.735351562 26.1708984375 c 0
 456.140625 19.5419921875 459.661132812 15.869140625 466.150390625 14.26171875 c 0
 469.286132812 13.484375 474.424804688 13.4228515625 477.72265625 14.1220703125 c 1
 477.72265625 14.1220703125 l 1
EndSplineSet
EndChar

StartChar: w
Encoding: 119 119 22
Width: 1000
Flags: H
LayerCount: 2
Fore
SplineSet
466.552734375 -429.521484375 m 0
 452.482421875 -429.140625 430.895507812 -428.267578125 418.9453125 -427.595703125 c 0
 341.123046875 -423.219726562 269.18359375 -411.139648438 229.903320312 -395.8515625 c 0
 219.009765625 -391.611328125 206.810546875 -384.790039062 202.022460938 -380.260742188 c 2
 200.1875 -378.524414062 l 1
 215.569335938 -319.932617188 l 1
 230.951171875 -261.33984375 l 1
 224.114257812 -223.005859375 l 1
 217.276367188 -184.671875 l 1
 195.802734375 -147.352539062 l 1
 174.328125 -110.033203125 l 1
 167.265625 -58.3759765625 l 2
 139.818359375 142.37890625 133.233398438 190.740234375 133.150390625 192.1796875 c 2
 133.056640625 193.813476562 l 1
 144.775390625 198.362304688 l 2
 151.220703125 200.864257812 156.646484375 202.765625 156.833984375 202.587890625 c 0
 157.020507812 202.41015625 169.879882812 180.841796875 185.409179688 154.657226562 c 0
 200.939453125 128.473632812 230.877929688 77.998046875 251.938476562 42.490234375 c 0
 273 6.9814453125 290.293945312 -22.0078125 290.370117188 -21.931640625 c 0
 290.446289062 -21.85546875 291.174804688 38.3818359375 291.98828125 111.9296875 c 0
 292.802734375 185.4765625 293.5546875 245.73828125 293.661132812 245.844726562 c 0
 294.108398438 246.291992188 326.415039062 251.7734375 326.692382812 251.44921875 c 0
 326.942382812 251.15625 365.407226562 149.483398438 418.391601562 9.0595703125 c 0
 425.112304688 -8.751953125 428.584960938 -17.369140625 428.8203125 -16.8193359375 c 0
 429.014648438 -16.3671875 441.27734375 48.3828125 456.0703125 127.069335938 c 0
 470.86328125 205.755859375 483.087890625 270.630859375 483.235351562 271.234375 c 2
 483.50390625 272.333007812 l 1
 500.244140625 272.333007812 l 1
 516.984375 272.333007812 l 1
 517.251953125 271.234375 l 2
 517.399414062 270.630859375 529.623046875 205.975585938 544.416015625 127.557617188 c 0
 559.208007812 49.1396484375 571.470703125 -15.390625 571.666015625 -15.8427734375 c 0
 571.901367188 -16.3857421875 589.078125 28.783203125 622.267578125 117.213867188 c 0
 649.90234375 190.84765625 672.6484375 251.250976562 672.814453125 251.444335938 c 0
 673.083984375 251.759765625 705.9140625 246.26953125 706.346679688 245.836914062 c 0
 706.444335938 245.739257812 707.19140625 185.483398438 708.005859375 111.934570312 c 0
 708.821289062 38.38671875 709.55078125 -21.853515625 709.62890625 -21.9306640625 c 0
 709.70703125 -22.0087890625 739.686523438 28.2939453125 776.25 89.8525390625 c 0
 812.813476562 151.411132812 843.013671875 202.14453125 843.361328125 202.59375 c 0
 843.936523438 203.336914062 844.993164062 202.944335938 854.98046875 198.2734375 c 0
 861.0234375 195.447265625 866.127929688 192.984375 866.325195312 192.80078125 c 0
 866.522460938 192.6171875 865.487304688 183.575195312 864.025390625 172.70703125 c 0
 862.563476562 161.83984375 853.448242188 93.8935546875 843.770507812 21.7138671875 c 2
 826.173828125 -109.520507812 l 1
 804.453125 -146.84765625 l 1
 782.732421875 -184.174804688 l 1
 775.887695312 -223.01171875 l 1
 769.04296875 -261.849609375 l 1
 784.881835938 -321.046875 l 2
 799.856445312 -377.017578125 800.674804688 -380.294921875 799.897460938 -381.153320312 c 0
 796.98828125 -384.369140625 784.354492188 -391.37109375 774.4140625 -395.278320312 c 0
 730.72265625 -412.452148438 643.936523438 -425.9765625 560.546875 -428.607421875 c 0
 555.309570312 -428.772460938 550.366210938 -429.0078125 549.560546875 -429.129882812 c 0
 547.778320312 -429.399414062 474.77734375 -429.743164062 466.552734375 -429.521484375 c 0
252.57421875 -363.455078125 m 1
 301.68359375 -349.28125 361.333007812 -341.3203125 443.84765625 -337.927734375 c 0
 463.671875 -337.112304688 534.278320312 -337.107421875 552.978515625 -337.920898438 c 0
 619.7109375 -340.821289062 673.791015625 -347 723.14453125 -357.36328125 c 0
 732.71875 -359.374023438 750.893554688 -363.803710938 753.108398438 -364.666015625 c 0
 753.84375 -364.953125 753.96484375 -364.842773438 753.73828125 -364.092773438 c 0
 753.584960938 -363.58203125 750.28125 -350.676757812 746.3984375 -335.413085938 c 0
 742.514648438 -320.150390625 739.216796875 -307.541015625 739.068359375 -307.392578125 c 0
 738.6328125 -306.95703125 722.211914062 -303.520507812 709.37890625 -301.178710938 c 0
 665.8203125 -293.231445312 618.669921875 -288.581054688 557.12890625 -286.1640625 c 0
 536.767578125 -285.364257812 463.083984375 -285.368164062 442.87109375 -286.169921875 c 0
 383.794921875 -288.513671875 339.006835938 -292.856445312 295.41015625 -300.466796875 c 0
 282.063476562 -302.795898438 262.421875 -306.87890625 261.860351562 -307.439453125 c 0
 261.724609375 -307.576171875 258.2265625 -320.279296875 254.086914062 -335.669921875 c 0
 249.948242188 -351.060546875 246.430664062 -364.0703125 246.271484375 -364.581054688 c 0
 246.047851562 -365.295898438 246.165039062 -365.438476562 246.780273438 -365.202148438 c 0
 247.220703125 -365.034179688 249.827148438 -364.247070312 252.57421875 -363.454101562 c 1
 252.57421875 -363.455078125 l 1
276.934570312 -266.26171875 m 0
 317.140625 -256.603515625 365.993164062 -250.043945312 420.654296875 -246.963867188 c 0
 466.158203125 -244.399414062 525.814453125 -244.109375 570.068359375 -246.237304688 c 0
 632.337890625 -249.232421875 686.95703125 -256.333984375 727.524414062 -266.709960938 c 0
 730.604492188 -267.498046875 733.1953125 -268.071289062 733.28125 -267.985351562 c 0
 733.3671875 -267.899414062 735.176757812 -256.876953125 737.301757812 -243.490234375 c 0
 740.095703125 -225.892578125 741.01171875 -219.055664062 740.607421875 -218.806640625 c 0
 739.603515625 -218.186523438 716.298828125 -212.62890625 706.200195312 -210.602539062 c 0
 647.583007812 -198.836914062 573.666992188 -193.278320312 487.3046875 -194.142578125 c 0
 471.057617188 -194.3046875 452.05078125 -194.665039062 445.068359375 -194.943359375 c 0
 380.075195312 -197.530273438 328.849609375 -203.379882812 284.423828125 -213.286132812 c 0
 274.572265625 -215.482421875 260.399414062 -219.057617188 260.013671875 -219.443359375 c 0
 259.84765625 -219.609375 265.749023438 -260.681640625 266.864257812 -267.120117188 c 0
 267.077148438 -268.350585938 267.338867188 -268.669921875 267.970703125 -268.473632812 c 0
 268.426757812 -268.331054688 272.459960938 -267.3359375 276.934570312 -266.26171875 c 0
762.803710938 -153.66796875 m 0
 769.497070312 -141.864257812 775.012695312 -132.017578125 775.059570312 -131.786132812 c 0
 775.166015625 -131.267578125 772.125 -130.180664062 761.823242188 -127.053710938 c 0
 726.536132812 -116.34375 672.073242188 -107.202148438 615.234375 -102.448242188 c 0
 488.108398438 -91.81640625 343.018554688 -99.673828125 255.126953125 -121.950195312 c 0
 243.450195312 -124.91015625 227.158203125 -129.725585938 226.489257812 -130.416015625 c 0
 225.984375 -130.935546875 250.305664062 -174.698242188 251.052734375 -174.614257812 c 0
 251.4140625 -174.573242188 255.553710938 -173.536132812 260.25390625 -172.309570312 c 0
 295.012695312 -163.239257812 338.823242188 -157.671875 400.87890625 -154.4375 c 0
 490.274414062 -149.779296875 598.359375 -151.952148438 669.189453125 -159.833007812 c 0
 696.616210938 -162.883789062 726.092773438 -168.276367188 743.408203125 -173.409179688 c 0
 746.899414062 -174.444335938 749.953125 -175.25390625 750.194335938 -175.208984375 c 0
 750.436523438 -175.1640625 756.110351562 -165.470703125 762.803710938 -153.66796875 c 0
108.154296875 195.012695312 m 0
 99.2001953125 196.05078125 92.5927734375 197.94140625 85.1982421875 201.58203125 c 0
 73.267578125 207.455078125 61.5576171875 219.166992188 55.7275390625 231.057617188 c 0
 51.19921875 240.29296875 49.470703125 247.266601562 49.0048828125 258.172851562 c 0
 48.484375 270.35546875 50.515625 280.260742188 55.6630859375 290.643554688 c 0
 63.197265625 305.842773438 77.1220703125 318.5859375 92.2119140625 324.09375 c 0
 99.740234375 326.840820312 105.197265625 327.694335938 115.234375 327.694335938 c 0
 125.0859375 327.694335938 130.549804688 326.866210938 137.809570312 324.2734375 c 0
 156.4140625 317.627929688 172.759765625 300.788085938 178.919921875 281.916015625 c 0
 182.916015625 269.673828125 183.098632812 254.583007812 179.407226562 241.686523438 c 0
 173.4296875 220.802734375 154.334960938 202.393554688 132.9765625 196.922851562 c 0
 125.57421875 195.026367188 115.032226562 194.215820312 108.154296875 195.012695312 c 0
876.46484375 195.209960938 m 0
 852.462890625 198.171875 830.838867188 215.529296875 822.611328125 238.4375 c 0
 819.974609375 245.780273438 819.108398438 251.318359375 819.106445312 260.858398438 c 0
 819.106445312 270.33203125 819.727539062 274.779296875 822.049804688 281.89453125 c 0
 827.432617188 298.3828125 840.463867188 313.379882812 856.322265625 321.337890625 c 0
 865.400390625 325.892578125 873.439453125 327.665039062 885.25390625 327.715820312 c 0
 894.706054688 327.756835938 898.534179688 327.243164062 905.76171875 324.961914062 c 0
 925.233398438 318.817382812 942.518554688 301.583984375 948.939453125 281.916015625 c 0
 952.935546875 269.673828125 953.118164062 254.583007812 949.426757812 241.686523438 c 0
 947.665039062 235.532226562 943.46484375 227.264648438 939.270507812 221.697265625 c 0
 929.3515625 208.529296875 915.369140625 199.405273438 900.146484375 196.16796875 c 0
 894.521484375 194.971679688 882.376953125 194.48046875 876.46484375 195.209960938 c 0
285.64453125 248.920898438 m 1
 261.642578125 251.8828125 240.018554688 269.240234375 231.791015625 292.1484375 c 0
 229.154296875 299.491210938 228.288085938 305.029296875 228.286132812 314.569335938 c 0
 228.284179688 324.043945312 228.901367188 328.450195312 231.237304688 335.655273438 c 0
 234.360351562 345.286132812 239.1484375 352.801757812 247.544921875 361.254882812 c 0
 258.057617188 371.836914062 268.036132812 377.282226562 282.043945312 380.078125 c 0
 288.024414062 381.271484375 301.774414062 381.280273438 307.706054688 380.094726562 c 0
 316.264648438 378.384765625 324.025390625 375.197265625 331.298828125 370.404296875 c 0
 336.4375 367.018554688 347.126953125 356.329101562 350.512695312 351.190429688 c 0
 357.381835938 340.765625 360.630859375 330.427734375 361.177734375 317.254882812 c 0
 361.821289062 301.78515625 357.420898438 287.31640625 348.450195312 275.408203125 c 0
 338.53125 262.240234375 324.548828125 253.116210938 309.326171875 249.87890625 c 0
 303.701171875 248.682617188 291.556640625 248.19140625 285.64453125 248.920898438 c 1
 285.64453125 248.920898438 l 1
697.998046875 248.723632812 m 0
 689.043945312 249.76171875 682.436523438 251.65234375 675.041992188 255.29296875 c 0
 663.111328125 261.166015625 651.401367188 272.877929688 645.571289062 284.768554688 c 0
 641.04296875 294.00390625 639.314453125 300.977539062 638.848632812 311.883789062 c 0
 638.006835938 331.576171875 644.40625 347.943359375 658.423828125 361.954101562 c 0
 670.8359375 374.359375 684.743164062 380.374023438 702.63671875 381.075195312 c 0
 717.220703125 381.646484375 730.5859375 377.919921875 742.528320312 369.954101562 c 0
 747.49609375 366.639648438 757.815429688 356.243164062 761.151367188 351.190429688 c 0
 771.790039062 335.080078125 774.7578125 314.635742188 769.250976562 295.397460938 c 0
 763.2734375 274.513671875 744.178710938 256.104492188 722.8203125 250.633789062 c 0
 715.41796875 248.737304688 704.875976562 247.926757812 697.998046875 248.723632812 c 0
492.431640625 273.157226562 m 0
 489.036132812 273.454101562 480.923828125 275.295898438 477.334960938 276.584960938 c 0
 468.294921875 279.83203125 460.690429688 284.74609375 453.345703125 292.087890625 c 0
 440.528320312 304.8984375 434.465820312 318.797851562 433.741210938 337.030273438 c 0
 432.966796875 356.546875 439.413085938 372.930664062 453.345703125 386.856445312 c 0
 465.5390625 399.043945312 479.446289062 405.161132812 496.826171875 405.98046875 c 0
 510.442382812 406.622070312 523.725585938 403.303710938 534.424804688 396.586914062 c 0
 550.890625 386.249023438 561.969726562 370.697265625 565.720703125 352.655273438 c 0
 567.08203125 346.107421875 566.9765625 332.5078125 565.510742188 325.686523438 c 0
 562.380859375 311.112304688 555.140625 299.137695312 543.272460938 288.905273438 c 0
 529.090820312 276.680664062 512.146484375 271.431640625 492.431640625 273.157226562 c 0
EndSplineSet
EndChar

